<svg width="106" height="118" viewBox="0 0 106 118" fill="none" xmlns="http://www.w3.org/2000/svg">
<path d="M52.95 117.5C49.3284 117.5 46.3313 114.68 46.3313 111.272V75.3175C46.3313 71.91 49.3284 69.09 52.95 69.09C56.5716 69.09 59.5688 71.91 59.5688 75.3175V111.272C59.5688 114.68 56.5716 117.5 52.95 117.5ZM52.95 71.205C50.4524 71.205 48.5791 73.085 48.5791 75.3175V111.272C48.5791 113.622 50.5772 115.385 52.95 115.385C55.3228 115.385 57.3209 113.505 57.3209 111.272V75.3175C57.3209 73.085 55.4476 71.205 52.95 71.205Z" fill="black"/>
<path d="M52.95 71.205C52.3256 71.205 51.8261 70.735 51.8261 70.1475V26.2025C51.8261 25.615 52.3256 25.145 52.95 25.145C53.5744 25.145 54.074 25.615 54.074 26.2025V70.1475C54.074 70.735 53.5744 71.205 52.95 71.205Z" fill="black"/>
<path d="M62.6908 99.405C62.1913 99.405 61.6918 99.0525 61.5669 98.5825C61.442 97.995 61.8166 97.525 62.441 97.4075C84.1705 93.4125 101.03 76.375 103.652 55.695C103.777 55.1075 104.277 54.755 104.901 54.755C105.525 54.8725 105.9 55.3425 105.9 55.93C104.526 66.6225 99.7808 76.375 91.9132 84.2475C84.0456 92.12 74.0551 97.4075 62.9406 99.2875C62.8157 99.405 62.8157 99.405 62.6908 99.405Z" fill="black"/>
<path d="M42.8345 99.2875C42.7097 99.2875 42.7097 99.2875 42.5848 99.2875C19.8562 95.0575 2.7474 77.6675 0.124874 56.0475C-7.72415e-06 55.46 0.499521 54.99 1.12393 54.8725C1.74834 54.755 2.24787 55.225 2.37275 55.8125C4.99528 76.61 21.3548 93.295 43.2092 97.29C43.8336 97.4075 44.2082 97.995 44.0834 98.465C43.8336 98.935 43.3341 99.2875 42.8345 99.2875Z" fill="black"/>
<path d="M104.776 45.355C104.277 45.355 103.777 45.0025 103.652 44.415C100.655 20.3275 78.8006 2.115 52.95 2.115C27.0994 2.115 5.24505 20.3275 2.24788 44.5325C2.12299 45.12 1.62347 45.4725 0.999056 45.4725C0.374646 45.355 0 44.885 0 44.2975C3.24693 19.035 25.9755 0 52.95 0C79.9245 0 102.653 19.035 105.775 44.18C105.9 44.7675 105.4 45.2375 104.776 45.355Z" fill="black"/>
<path d="M56.1969 26.085C55.9472 26.085 55.6974 25.9675 55.5725 25.85C55.073 25.4975 54.9481 24.7925 55.3228 24.44C57.3209 22.09 59.6936 20.0925 62.441 18.8C62.9406 18.565 63.6899 18.6825 63.9396 19.27C64.1894 19.74 64.0645 20.445 63.4401 20.68C60.9424 21.855 58.6946 23.6175 56.9462 25.7325C56.9462 25.9675 56.5716 26.085 56.1969 26.085Z" fill="black"/>
<path d="M57.3209 33.605C57.0711 33.605 56.8213 33.4875 56.5716 33.37C56.0721 33.0175 56.0721 32.3125 56.4467 31.96C60.318 27.73 65.3133 24.44 70.933 22.56C71.5574 22.325 72.1818 22.6775 72.3067 23.1475C72.5565 23.735 72.1818 24.3225 71.6823 24.44C66.4373 26.2025 61.8166 29.14 58.0702 33.135C57.9453 33.4875 57.6955 33.605 57.3209 33.605Z" fill="black"/>
<path d="M57.3209 40.185C56.9462 40.185 56.5716 40.0675 56.4467 39.715C56.072 39.245 56.1969 38.54 56.8213 38.305C64.8138 33.37 74.4297 30.9025 83.9208 31.255C84.5452 31.255 85.0447 31.725 84.9198 32.3125C84.9198 32.9 84.4203 33.37 83.7959 33.2525C74.6795 32.9 65.5631 35.25 57.9453 39.95C57.8204 40.0675 57.5706 40.185 57.3209 40.185Z" fill="black"/>
<path d="M57.3209 45.825C56.9462 45.825 56.5716 45.59 56.3218 45.2375C56.072 44.7675 56.1969 44.0625 56.8213 43.8275C67.811 38.54 81.4231 38.1875 92.5376 42.8875C93.0371 43.1225 93.2869 43.71 93.0371 44.2975C92.7874 44.7675 92.163 45.0025 91.5385 44.7675C81.0485 40.3025 68.0607 40.655 57.6955 45.59C57.6955 45.7075 57.5706 45.825 57.3209 45.825Z" fill="black"/>
<path d="M93.9113 58.28C93.6615 58.28 93.4118 58.1625 93.162 58.045C88.1667 53.9325 82.1724 51.1125 75.6785 49.9375C69.8091 48.88 63.565 49.115 57.6955 50.76C57.0711 50.8775 56.4467 50.6425 56.3218 50.055C56.1969 49.4675 56.4467 48.88 57.0711 48.7625C63.1903 47 69.8091 46.765 76.0532 47.8225C82.9217 49.115 89.2907 52.0525 94.6606 56.4C95.1601 56.7525 95.1601 57.4575 94.7855 57.81C94.5357 58.1625 94.1611 58.28 93.9113 58.28Z" fill="black"/>
<path d="M91.1639 67.0925C90.9142 67.0925 90.6644 66.975 90.4146 66.8575C81.548 59.22 69.5593 55.1075 57.4458 55.46C56.8213 55.46 56.3218 54.99 56.3218 54.4025C56.3218 53.815 56.8213 53.345 57.4458 53.345C70.0588 52.9925 82.6719 57.34 91.9132 65.33C92.4127 65.6825 92.4127 66.3875 92.0381 66.74C91.6635 66.975 91.4137 67.0925 91.1639 67.0925Z" fill="black"/>
<path d="M84.5452 75.0825C84.2954 75.0825 83.9208 74.965 83.671 74.73C76.9274 67.445 67.3114 62.275 57.196 60.63C56.5716 60.5125 56.1969 60.0425 56.3218 59.455C56.4467 58.8675 56.9462 58.515 57.5706 58.6325C68.4354 60.395 78.3011 65.6825 85.4193 73.4375C85.794 73.9075 85.794 74.495 85.2945 74.8475C85.0447 74.965 84.7949 75.0825 84.5452 75.0825Z" fill="black"/>
<path d="M78.5508 83.3075C78.1762 83.3075 77.9264 83.19 77.6767 82.955C73.9302 78.6075 69.6842 74.6125 65.0636 71.205C62.9406 69.6775 60.0683 67.68 56.9462 66.6225C56.3218 66.3875 56.0721 65.8 56.3218 65.33C56.5716 64.7425 57.196 64.5075 57.6955 64.7425C61.0673 65.9175 64.1894 67.915 66.4373 69.6775C71.1828 73.2025 75.5536 77.315 79.425 81.78C79.7996 82.25 79.6748 82.8375 79.3001 83.19C79.0503 83.19 78.8006 83.3075 78.5508 83.3075Z" fill="black"/>
<path d="M49.7031 26.085C49.3284 26.085 49.0787 25.9675 48.8289 25.7325C47.0805 23.6175 44.8327 21.855 42.335 20.68C41.8355 20.445 41.5857 19.74 41.8355 19.27C42.0853 18.8 42.8346 18.565 43.3341 18.8C46.0815 20.0925 48.5791 22.09 50.4524 24.44C50.827 24.91 50.7021 25.4975 50.2026 25.85C50.2026 25.9675 49.9528 26.085 49.7031 26.085Z" fill="black"/>
<path d="M48.2045 33.135C47.9547 33.135 47.5801 33.0175 47.3303 32.7825C43.7087 29.0225 39.213 26.085 34.0928 24.44C33.4684 24.205 33.2186 23.6175 33.4684 23.1475C33.7182 22.56 34.3426 22.325 34.8421 22.56C40.212 24.3225 45.0824 27.3775 48.9538 31.49C49.3284 31.96 49.3284 32.5475 48.8289 32.9C48.704 33.135 48.4543 33.135 48.2045 33.135Z" fill="black"/>
<path d="M48.2045 39.95C47.9547 39.95 47.8298 39.95 47.5801 39.8325C40.0872 35.25 30.9708 33.0175 22.1041 33.37C21.4797 33.37 20.9802 32.9 20.9802 32.43C20.9802 31.8425 21.4797 31.3725 21.9793 31.3725C31.3454 31.02 40.8364 33.37 48.704 38.1875C49.2035 38.54 49.3284 39.1275 49.0787 39.5975C48.8289 39.715 48.5791 39.95 48.2045 39.95Z" fill="black"/>
<path d="M48.2045 45.59C48.0796 45.59 47.8298 45.59 47.705 45.4725C37.4646 40.655 24.6018 40.3025 14.2366 44.7675C13.737 45.0025 12.9877 44.7675 12.738 44.2975C12.4882 43.8275 12.738 43.1225 13.2375 42.8875C24.352 38.07 37.5895 38.4225 48.5791 43.5925C49.0787 43.8275 49.3284 44.415 49.0787 45.0025C48.9538 45.355 48.5791 45.59 48.2045 45.59Z" fill="black"/>
<path d="M11.9887 58.28C11.7389 58.28 11.3643 58.1625 11.1145 57.9275C10.7399 57.4575 10.7399 56.87 11.2394 56.5175C16.4844 52.17 22.9783 49.2325 29.8468 47.94C35.966 46.765 42.4599 47.1175 48.4542 48.7625C49.0787 48.88 49.3284 49.4675 49.2035 50.055C49.0787 50.6425 48.4542 50.8775 47.8298 50.76C42.0853 49.2325 36.0909 48.9975 30.2215 50.055C23.7276 51.23 17.6084 54.05 12.738 58.1625C12.6131 58.1625 12.2384 58.28 11.9887 58.28Z" fill="black"/>
<path d="M14.7361 67.0925C14.4863 67.0925 14.1117 66.975 13.8619 66.74C13.4873 66.27 13.4873 65.6825 13.9868 65.33C23.2281 57.4575 35.7163 53.11 48.2045 53.345C48.8289 53.345 49.3284 53.815 49.3284 54.4025C49.3284 54.99 48.8289 55.46 48.2045 55.46C36.2158 55.225 24.352 59.3375 15.4854 66.8575C15.3605 67.0925 15.1107 67.0925 14.7361 67.0925Z" fill="black"/>
<path d="M21.3548 75.0825C21.1051 75.0825 20.8553 74.965 20.6055 74.8475C20.106 74.495 20.106 73.79 20.4807 73.4375C27.5989 65.6825 37.4646 60.395 48.3294 58.6325C48.9538 58.515 49.4533 58.8675 49.5782 59.455C49.7031 60.0425 49.3284 60.5125 48.704 60.63C38.4637 62.275 28.8478 67.445 22.1041 74.73C21.9792 74.965 21.6046 75.0825 21.3548 75.0825Z" fill="black"/>
<path d="M27.3492 83.3075C27.0994 83.3075 26.8496 83.19 26.5999 83.0725C26.1004 82.72 26.1004 82.015 26.475 81.6625C30.3463 77.1975 34.7172 73.085 39.4627 69.56C41.5857 67.915 44.458 66.035 47.705 64.86C48.3294 64.625 48.9538 64.9775 49.0787 65.4475C49.3284 66.035 48.9538 66.6225 48.4542 66.74C45.4571 67.7975 42.7097 69.6775 40.7116 71.205C36.0909 74.6125 31.8449 78.6075 28.0985 82.955C27.9736 83.19 27.7238 83.3075 27.3492 83.3075Z" fill="black"/>
</svg>
