<svg width="150" height="188" viewBox="0 0 150 188" fill="none" xmlns="http://www.w3.org/2000/svg">
<path d="M74.9341 161.611C70.9716 161.611 67.6924 158.356 67.6924 154.423V112.926C67.6924 108.994 70.9716 105.739 74.9341 105.739C78.8966 105.739 82.1759 108.994 82.1759 112.926V154.423C82.1759 158.356 78.8966 161.611 74.9341 161.611ZM74.9341 108.18C72.2014 108.18 70.1518 110.35 70.1518 112.926V154.423C70.1518 157.135 72.338 159.17 74.9341 159.17C77.5303 159.17 79.7165 157 79.7165 154.423V112.926C79.7165 110.35 77.6668 108.18 74.9341 108.18Z" fill="black"/>
<path d="M74.9342 108.18C74.251 108.18 73.7045 107.638 73.7045 106.96V56.2412C73.7045 55.5631 74.251 55.0207 74.9342 55.0207C75.6173 55.0207 76.164 55.5631 76.164 56.2412V106.96C76.164 107.638 75.6173 108.18 74.9342 108.18Z" fill="black"/>
<path d="M85.5918 140.727C85.0453 140.727 84.4988 140.32 84.3621 139.777C84.2254 139.099 84.6353 138.557 85.3185 138.421C109.093 133.811 127.54 114.147 130.409 90.2795C130.545 89.6014 131.092 89.1946 131.775 89.1946C132.458 89.3302 132.868 89.8727 132.868 90.5507C131.365 102.891 126.173 114.147 117.565 123.233C108.957 132.319 98.0258 138.421 85.8651 140.591C85.7284 140.727 85.7284 140.727 85.5918 140.727Z" fill="black"/>
<path d="M63.8665 140.591C63.7299 140.591 63.7299 140.591 63.5933 140.591C38.7253 135.709 20.006 115.639 17.1366 90.6863C17 90.0083 17.5466 89.4658 18.2297 89.3302C18.9129 89.1946 19.4595 89.7371 19.5961 90.4151C22.4655 114.418 40.3649 133.675 64.2765 138.286C64.9596 138.421 65.3695 139.099 65.2329 139.642C64.9596 140.184 64.4131 140.591 63.8665 140.591Z" fill="black"/>
<path d="M131.638 78.3458C131.092 78.3458 130.545 77.9389 130.409 77.2609C127.13 49.4607 103.218 28.441 74.9341 28.441C46.6502 28.441 22.7388 49.4607 19.4595 77.3965C19.3228 78.0745 18.7763 78.4814 18.0931 78.4814C17.4099 78.3458 17 77.8033 17 77.1253C20.5526 47.9689 45.4205 26 74.9341 26C104.448 26 129.316 47.9689 132.731 76.9897C132.868 77.6677 132.321 78.2101 131.638 78.3458Z" fill="black"/>
<path d="M78.4866 56.1056C78.2134 56.1056 77.9401 55.97 77.8035 55.8344C77.2569 55.4275 77.1203 54.6139 77.5303 54.207C79.7164 51.4948 82.3125 49.1894 85.3185 47.6977C85.8651 47.4265 86.6849 47.5621 86.9581 48.2402C87.2315 48.7826 87.0948 49.5963 86.4116 49.8675C83.6788 51.2236 81.2194 53.2578 79.3065 55.6988C79.3065 55.97 78.8966 56.1056 78.4866 56.1056Z" fill="black"/>
<path d="M79.7165 64.7847C79.4432 64.7847 79.1698 64.6491 78.8966 64.5135C78.3501 64.1066 78.3501 63.293 78.76 62.8861C82.9957 58.0041 88.4612 54.207 94.6099 52.0373C95.293 51.766 95.9762 52.1729 96.1129 52.7153C96.3862 53.3934 95.9762 54.0714 95.4297 54.207C89.691 56.2412 84.6353 59.6315 80.5363 64.2422C80.3996 64.6491 80.1263 64.7847 79.7165 64.7847Z" fill="black"/>
<path d="M79.7164 72.3789C79.3065 72.3789 78.8966 72.2433 78.7599 71.8364C78.35 71.294 78.4866 70.4803 79.1698 70.2091C87.9146 64.5135 98.4357 61.6656 108.82 62.0725C109.503 62.0725 110.05 62.6149 109.913 63.293C109.913 63.971 109.367 64.5135 108.683 64.3778C98.709 63.971 88.7345 66.6832 80.3996 72.1077C80.2629 72.2433 79.9896 72.3789 79.7164 72.3789Z" fill="black"/>
<path d="M79.7164 78.8882C79.3065 78.8882 78.8966 78.617 78.6233 78.2102C78.35 77.6677 78.4866 76.854 79.1698 76.5828C91.1939 70.4803 106.087 70.0735 118.248 75.4979C118.795 75.7692 119.068 76.4472 118.795 77.1253C118.521 77.6677 117.838 77.9389 117.155 77.6677C105.677 72.5145 91.4672 72.9213 80.1263 78.617C80.1263 78.7526 79.9896 78.8882 79.7164 78.8882Z" fill="black"/>
<path d="M119.751 93.2629C119.478 93.2629 119.205 93.1273 118.931 92.9917C113.466 88.2453 106.907 84.9907 99.8021 83.6346C93.3802 82.4141 86.5483 82.6853 80.1263 84.5839C79.4432 84.7195 78.76 84.4482 78.6233 83.7702C78.4867 83.0921 78.76 82.4141 79.4432 82.2785C86.1384 80.2443 93.3802 79.9731 100.212 81.1936C107.727 82.6853 114.696 86.0756 120.571 91.0932C121.117 91.5 121.117 92.3137 120.708 92.7205C120.434 93.1273 120.024 93.2629 119.751 93.2629Z" fill="black"/>
<path d="M116.745 103.434C116.472 103.434 116.199 103.298 115.925 103.163C106.224 94.3478 93.1069 89.6015 79.8531 90.0083C79.1698 90.0083 78.6233 89.4658 78.6233 88.7878C78.6233 88.1097 79.1698 87.5673 79.8531 87.5673C93.6534 87.1605 107.454 92.1781 117.565 101.4C118.111 101.806 118.111 102.62 117.702 103.027C117.292 103.298 117.018 103.434 116.745 103.434Z" fill="black"/>
<path d="M109.503 112.655C109.23 112.655 108.82 112.52 108.547 112.248C101.169 103.841 90.6474 97.8737 79.5798 95.9752C78.8966 95.8396 78.4867 95.2971 78.6233 94.6191C78.76 93.941 79.3065 93.5342 79.9897 93.6698C91.8772 95.7039 102.672 101.806 110.46 110.757C110.87 111.299 110.87 111.977 110.323 112.384C110.05 112.52 109.777 112.655 109.503 112.655Z" fill="black"/>
<path d="M102.945 122.148C102.535 122.148 102.262 122.012 101.988 121.741C97.8892 116.724 93.2435 112.113 88.188 108.18C85.8651 106.417 82.7225 104.112 79.3065 102.891C78.6233 102.62 78.3501 101.942 78.6233 101.4C78.8966 100.722 79.5798 100.45 80.1263 100.722C83.8155 102.078 87.2315 104.383 89.691 106.417C94.8832 110.486 99.6654 115.232 103.901 120.385C104.311 120.928 104.174 121.606 103.765 122.012C103.491 122.012 103.218 122.148 102.945 122.148Z" fill="black"/>
<path d="M71.3816 56.1056C70.9716 56.1056 70.6984 55.97 70.4251 55.6988C68.5121 53.2578 66.0527 51.2236 63.3199 49.8675C62.7734 49.5963 62.5001 48.7826 62.7734 48.2402C63.0467 47.6977 63.8665 47.4265 64.4131 47.6977C67.4191 49.1895 70.1518 51.4948 72.2014 54.2071C72.6113 54.7495 72.4746 55.4275 71.9281 55.8344C71.9281 55.97 71.6548 56.1056 71.3816 56.1056Z" fill="black"/>
<path d="M69.7419 64.2422C69.4686 64.2422 69.0588 64.1066 68.7854 63.8354C64.823 59.4959 59.9041 56.1056 54.3019 54.207C53.6187 53.9358 53.3454 53.2578 53.6187 52.7153C53.8921 52.0373 54.5752 51.766 55.1217 52.0373C60.9971 54.0714 66.326 57.5973 70.5618 62.3437C70.9716 62.8861 70.9716 63.5642 70.4251 63.971C70.2885 64.2422 70.0152 64.2422 69.7419 64.2422Z" fill="black"/>
<path d="M69.7419 72.1077C69.4686 72.1077 69.3319 72.1077 69.0587 71.9721C60.8605 66.6832 50.886 64.1066 41.1847 64.5135C40.5015 64.5135 39.955 63.971 39.955 63.4286C39.955 62.7505 40.5015 62.2081 41.0482 62.2081C51.2959 61.8012 61.6803 64.5135 70.2884 70.0735C70.8349 70.4803 70.9716 71.1584 70.6984 71.7008C70.4251 71.8364 70.1518 72.1077 69.7419 72.1077Z" fill="black"/>
<path d="M69.742 78.617C69.6053 78.617 69.332 78.617 69.1954 78.4814C57.9911 72.9213 43.9176 72.5145 32.5767 77.6677C32.0301 77.9389 31.2102 77.6677 30.937 77.1253C30.6637 76.5828 30.937 75.7692 31.4835 75.4979C43.6442 69.9379 58.1278 70.3447 70.1518 76.3116C70.6984 76.5828 70.9716 77.2609 70.6984 77.9389C70.5618 78.3458 70.1518 78.617 69.742 78.617Z" fill="black"/>
<path d="M30.1172 93.2629C29.8439 93.2629 29.434 93.1273 29.1607 92.8561C28.7508 92.3137 28.7508 91.6356 29.2973 91.2288C35.036 86.2112 42.1412 82.8209 49.6562 81.3292C56.3514 79.9731 63.4566 80.3799 70.0151 82.2785C70.6984 82.4141 70.9716 83.0921 70.835 83.7702C70.6984 84.4482 70.0151 84.7195 69.3319 84.5838C63.0467 82.8209 56.4881 82.5497 50.0662 83.7702C42.961 85.1263 36.2658 88.3809 30.937 93.1273C30.8003 93.1273 30.3904 93.2629 30.1172 93.2629Z" fill="black"/>
<path d="M33.1232 103.434C32.8499 103.434 32.44 103.298 32.1667 103.027C31.7568 102.484 31.7568 101.806 32.3033 101.4C42.4145 92.3137 56.0782 87.2961 69.7419 87.5673C70.4251 87.5673 70.9716 88.1097 70.9716 88.7878C70.9716 89.4658 70.4251 90.0083 69.7419 90.0083C56.6247 89.7371 43.6442 94.4834 33.943 103.163C33.8064 103.434 33.533 103.434 33.1232 103.434Z" fill="black"/>
<path d="M40.3649 112.655C40.0917 112.655 39.8184 112.52 39.5451 112.384C38.9985 111.977 38.9985 111.164 39.4085 110.757C47.1967 101.806 57.9911 95.7039 69.8786 93.6698C70.5618 93.5342 71.1083 93.941 71.2449 94.6191C71.3816 95.2971 70.9716 95.8396 70.2884 95.9752C59.0842 97.8737 48.5632 103.841 41.1847 112.248C41.0481 112.52 40.6382 112.655 40.3649 112.655Z" fill="black"/>
<path d="M46.9235 122.148C46.6502 122.148 46.3769 122.012 46.1037 121.877C45.5572 121.47 45.5572 120.656 45.967 120.249C50.2027 115.096 54.9851 110.35 60.1773 106.282C62.5001 104.383 65.6428 102.213 69.1954 100.857C69.8786 100.586 70.5618 100.993 70.6984 101.535C70.9716 102.213 70.5618 102.891 70.0151 103.027C66.7359 104.247 63.7299 106.417 61.5437 108.18C56.4881 112.113 51.8424 116.724 47.7434 121.741C47.6067 122.012 47.3334 122.148 46.9235 122.148Z" fill="black"/>
</svg>
