<svg width="124" height="155" viewBox="0 0 124 155" fill="none" xmlns="http://www.w3.org/2000/svg">
<rect width="124" height="155" fill="#F5F5F5"/>
<path d="M87.6784 59.5324C87.6784 45.4601 76.1647 33.6266 61.7726 33.6266C47.3805 33.6266 35.8668 45.1403 35.8668 59.5324C35.8668 73.6046 47.3805 85.4382 61.7726 85.4382C76.1647 85.4382 87.6784 73.9245 87.6784 59.5324ZM56.9752 59.5324C56.9752 58.8927 56.9752 58.2531 56.9752 57.6134C56.9752 52.816 56.9752 48.0187 56.9752 43.2213C56.9752 40.6627 59.214 38.4239 61.7726 38.4239C64.3312 38.4239 66.57 40.6627 66.57 43.2213C66.57 43.861 66.57 44.5006 66.57 45.1403C66.57 48.3385 66.57 51.5368 66.57 54.735C69.7682 54.735 73.2863 54.735 76.4845 54.735C79.0431 54.735 81.2819 56.9738 81.2819 59.5324C81.2819 62.091 79.0431 64.3297 76.4845 64.3297C75.8449 64.3297 75.2052 64.3297 74.5656 64.3297C70.4079 64.3297 65.9303 64.3297 61.7726 64.3297C59.214 64.3297 56.9752 62.091 56.9752 59.5324Z" fill="black"/>
<path d="M85.1199 4.52254C61.7727 -5.07219 34.2678 1.00447 16.9973 18.9146C-1.23274 38.1041 -6.34994 68.8073 9.32147 91.195C16.3576 101.11 24.3532 110.704 32.029 120.299C40.6643 131.493 49.6194 142.687 58.2546 153.561C59.8537 155.48 63.6916 155.48 64.9709 153.561C80.3225 134.051 95.6741 114.542 111.026 95.3527C118.701 85.758 123.499 74.884 123.499 62.4108C123.819 37.1447 108.147 14.1173 85.1199 4.52254ZM26.2722 59.5324C26.2722 40.0231 42.2634 24.0318 61.7727 24.0318C81.282 24.0318 97.2732 40.0231 97.2732 59.5324C97.2732 79.0417 81.282 95.0329 61.7727 95.0329C42.2634 95.0329 26.2722 79.0417 26.2722 59.5324Z" fill="black"/>
</svg>
