<svg width="150" height="188" viewBox="0 0 150 188" fill="none" xmlns="http://www.w3.org/2000/svg">
<path d="M140.773 130.77H8V95.0864H140.773V130.77ZM10.0426 128.728H138.73V97.129H10.0426V128.728Z" fill="black"/>
<path d="M81.4649 130.77H67.3079V115.967C67.3079 112.143 70.4197 109.031 74.2448 109.031H74.529C78.353 109.031 81.4649 112.143 81.4649 115.967V130.77ZM69.3506 128.728H79.4222V115.967C79.4222 113.269 77.227 111.074 74.529 111.074H74.2448C71.5458 111.074 69.3506 113.269 69.3506 115.967V128.728Z" fill="black"/>
<path d="M42.7691 130.77H30.7036V118.846C30.7036 115.584 33.3577 112.931 36.6191 112.931H36.8535C40.115 112.931 42.7691 115.584 42.7691 118.846V130.77ZM32.7463 128.728H40.7264V118.846C40.7264 116.71 38.9889 114.973 36.8535 114.973H36.6191C34.4837 114.973 32.7463 116.71 32.7463 118.846V128.728Z" fill="black"/>
<path d="M117.024 130.77H104.959V118.846C104.959 115.584 107.612 112.931 110.874 112.931H111.108C114.37 112.931 117.024 115.584 117.024 118.846V130.77ZM107.001 128.728H114.981V118.846C114.981 116.71 113.244 114.973 111.108 114.973H110.874C108.739 114.973 107.001 116.71 107.001 118.846V128.728Z" fill="black"/>
<path d="M131.6 85.3194H18.4037L18.2153 85.2406C14.6985 83.775 11.8829 79.6482 9.36446 75.4073L8.44781 73.8644H141.465L140.65 75.3714C138.555 79.2463 135.865 83.4478 131.795 85.2331L131.6 85.3194ZM18.8207 83.2768H131.165C134.082 81.9123 136.256 78.9371 138.012 75.907H12.0564C14.0951 79.184 16.3173 82.1397 18.8207 83.2768Z" fill="black"/>
<path d="M122.591 75.9071H27.4132L27.1988 75.8008C24.4799 74.4519 21.9615 71.482 19.7144 66.9749L18.8696 65.2823L20.7477 65.5047C26.5674 66.1939 32.4899 66.5435 38.3516 66.5435H111.515C116.713 66.5435 121.97 66.2683 127.139 65.7256L131.033 65.3172L130.295 66.9414C128.373 71.1774 125.785 74.2379 122.814 75.7908L122.591 75.9071ZM27.901 73.8644H122.083C124.582 72.4755 126.395 69.9974 127.625 67.7283L127.352 67.7574C122.113 68.3073 116.784 68.5862 111.515 68.5862H38.3516C33.0585 68.5862 27.7154 68.3049 22.4402 67.7494C24.1587 70.7605 26.0239 72.8535 27.901 73.8644Z" fill="black"/>
<path d="M121.174 68.2511C116.94 67.273 113.712 62.6621 111.583 59.0427H35.8123C33.7845 62.6023 30.4912 66.8442 25.8992 68.0167L25.3945 66.0378C29.5048 64.988 32.5139 60.8329 34.3152 57.532L34.6054 57H112.761L113.055 57.5116C114.985 60.8629 117.975 65.416 121.633 66.2612L121.174 68.2511Z" fill="black"/>
<path d="M90.3986 96.388H58.3753V83.2768H90.3986V96.388ZM60.418 94.3453H88.3559V85.3194H60.418V94.3453Z" fill="black"/>
<path d="M116.544 97.129H32.2287V83.2768H116.544V97.129ZM34.2713 95.0864H114.501V85.3194H34.2713V95.0864Z" fill="black"/>
</svg>
