<svg width="150" height="188" viewBox="0 0 150 188" fill="none" xmlns="http://www.w3.org/2000/svg">
<path d="M121.955 154.79H28.0361L47.6387 128.225H102.352L121.955 154.79ZM31.9971 152.79H117.994L101.342 130.225H48.6484L31.9971 152.79Z" fill="black"/>
<path d="M53.8867 136.341H51.8867V147.353H53.8867V136.341Z" fill="black"/>
<path d="M65.0684 136.341H63.0684V147.353H65.0684V136.341Z" fill="black"/>
<path d="M76.249 136.341H74.249V147.353H76.249V136.341Z" fill="black"/>
<path d="M87.4307 136.341H85.4307V147.353H87.4307V136.341Z" fill="black"/>
<path d="M87.4307 136.341H85.4307V147.353H87.4307V136.341Z" fill="black"/>
<path d="M65.0684 112.962H63.0684V123.974H65.0684V112.962Z" fill="black"/>
<path d="M76.249 112.962H74.249V123.974H76.249V112.962Z" fill="black"/>
<path d="M87.4307 112.962H85.4307V123.974H87.4307V112.962Z" fill="black"/>
<path d="M98.6113 136.341H96.6113V147.353H98.6113V136.341Z" fill="black"/>
<path d="M102.932 130.225H47.5674V123.315L56.5029 105.355H94.5225L102.932 123.414V130.225ZM49.5674 128.225H100.932V123.857L93.2471 107.355H57.7412L49.5674 123.785V128.225Z" fill="black"/>
<path d="M87.5996 107.355H63.5762V68.5762H65.5762V105.355H85.5996V68.5762H87.5996V107.355Z" fill="black"/>
<path d="M80.5908 85.9834H78.5908V48.1836C78.5908 46.5279 77.2441 45.1812 75.5879 45.1812C73.9326 45.1812 72.5859 46.5279 72.5859 48.1836V85.9834H70.5859V48.1836C70.5859 45.4253 72.8301 43.1812 75.5879 43.1812C78.3467 43.1812 80.5908 45.4253 80.5908 48.1836V85.9834Z" fill="black"/>
<path d="M85.6562 95.9883C85.6025 90.565 81.1045 86.4751 75.1934 86.4751C69.7109 86.4751 65.5762 90.5606 65.5762 95.9786H63.5762C63.5762 89.4204 68.5703 84.4751 75.1934 84.4751C82.1182 84.4751 87.5928 89.524 87.6562 95.9688L85.6562 95.9883Z" fill="black"/>
<path d="M86.6562 94.9786H64.5762V96.9786H86.6562V94.9786Z" fill="black"/>
<path d="M30.5664 154.79H10V148.176C10 147.317 10.1084 146.459 10.3213 145.625L15.8867 123.876H28.3994L33.9658 145.625C34.2012 146.547 34.2871 147.974 34.2871 148.709H32.2871C32.2871 147.951 32.1885 146.746 32.0283 146.12L26.8467 125.876H17.4395L12.2588 146.121C12.0869 146.792 12 147.484 12 148.176V152.79H30.5664V154.79Z" fill="black"/>
<path d="M28.5977 125.876H15.6631V115.148C15.6631 113.761 15.7676 112.36 15.9736 110.984L16.1221 110.032H28.1396L28.2705 110.879C28.4873 112.287 28.5977 113.723 28.5977 115.147V125.876ZM17.6631 123.876H26.5977V115.147C26.5977 114.109 26.5352 113.065 26.4102 112.032H17.8506C17.7266 113.064 17.6631 114.111 17.6631 115.148V123.876Z" fill="black"/>
<path d="M27.5742 111.346H25.5742V96.2701C25.5742 94.378 24.0352 92.8389 22.1436 92.8389C20.251 92.8389 18.7119 94.378 18.7119 96.2701V111.346H16.7119V96.2701C16.7119 93.2754 19.1484 90.8389 22.1436 90.8389C25.1377 90.8389 27.5742 93.2754 27.5742 96.2701V111.346Z" fill="black"/>
<path d="M23.1436 84.0777H21.1436V91.8389H23.1436V84.0777Z" fill="black"/>
<path d="M140 154.79H119.434V152.79H138V148.176C138 147.484 137.913 146.792 137.741 146.12L132.561 125.876H123.153L117.972 146.121C117.812 146.746 117.713 147.951 117.713 148.709H115.713C115.713 147.974 115.799 146.547 116.034 145.625L121.601 123.876H134.113L139.679 145.625C139.892 146.459 140 147.317 140 148.176V154.79Z" fill="black"/>
<path d="M134.337 125.876H121.402V115.147C121.402 113.723 121.513 112.287 121.729 110.879L121.86 110.032H133.878L134.025 110.978C134.232 112.36 134.337 113.761 134.337 115.148V125.876ZM123.402 123.876H132.337V115.148C132.337 114.112 132.274 113.067 132.149 112.032H123.59C123.465 113.065 123.402 114.109 123.402 115.147V123.876Z" fill="black"/>
<path d="M133.288 111.346H131.288V96.2701C131.288 94.378 129.749 92.8389 127.856 92.8389C125.964 92.8389 124.425 94.378 124.425 96.2701V111.346H122.425V96.2701C122.425 93.2754 124.861 90.8389 127.856 90.8389C130.852 90.8389 133.288 93.2754 133.288 96.2701V111.346Z" fill="black"/>
<path d="M128.856 84.0777H126.856V91.8389H128.856V84.0777Z" fill="black"/>
<path d="M76.5879 33H74.5879V44.1812H76.5879V33Z" fill="black"/>
</svg>
