<svg width="150" height="188" viewBox="0 0 150 188" fill="none" xmlns="http://www.w3.org/2000/svg">
<g clip-path="url(#clip0_1_108)">
<path d="M154.618 91.9805H107.598V79.8079H143.623L154.618 91.9805ZM110.001 89.577H149.208L142.555 82.2115H110.001V89.577Z" fill="black"/>
<path d="M126.704 141.047H117.052V89.577H126.704V141.047ZM119.455 138.644H124.3V91.9805H119.455V138.644Z" fill="black"/>
<path d="M145.612 141.047H135.961V89.577H145.612V141.047ZM138.364 138.644H143.209V91.9805H138.364V138.644Z" fill="black"/>
<path d="M42.4028 91.9805H-4.61795L6.37747 79.8079H42.4028V91.9805ZM0.792329 89.577H39.9993V82.2115H7.44545L0.792329 89.577Z" fill="black"/>
<path d="M32.9483 141.047H23.2966V89.577H32.9483V141.047ZM25.7002 138.644H30.5448V91.9805H25.7002V138.644Z" fill="black"/>
<path d="M14.0399 141.047H4.38824V89.577H14.0399V141.047ZM6.79177 138.644H11.6364V91.9805H6.79177V138.644Z" fill="black"/>
<path d="M110.001 141.047H99.2465V53.9659H110.001V141.047ZM101.65 138.644H107.598V56.3695H101.65V138.644Z" fill="black"/>
<path d="M50.7541 141.047H39.9993V53.9659H50.7541V141.047ZM42.4028 138.644H48.3506V56.3695H42.4028V138.644Z" fill="black"/>
<path d="M80.3774 141.047H69.6226V53.9659H80.3774V141.047ZM72.0261 138.644H77.9739V56.3695H72.0261V138.644Z" fill="black"/>
<path d="M114.58 56.3694H35.421L27.4247 40.6251H122.575L114.58 56.3694ZM36.8962 53.9659H113.104L118.659 43.0286H31.341L36.8962 53.9659Z" fill="black"/>
<path d="M88.2564 42.582H61.7442V27.205H88.2564V42.582ZM64.1478 40.1785H85.8528V29.6085H64.1478V40.1785Z" fill="black"/>
<path d="M79.5371 28.3804H77.1336V16.0112C77.1336 12.183 76.7545 11.3562 75 11.3562C73.2455 11.3562 72.8664 12.183 72.8664 16.0112V28.3804H70.4629V16.0112C70.4629 13.2005 70.4629 8.95264 75 8.95264C79.5371 8.95264 79.5371 13.2005 79.5371 16.0112V28.3804Z" fill="black"/>
</g>
<defs>
<clipPath id="clip0_1_108">
<rect width="150" height="187.5" fill="white"/>
</clipPath>
</defs>
</svg>
