<svg width="150" height="187" viewBox="0 0 150 187" fill="none" xmlns="http://www.w3.org/2000/svg">
<path d="M83.9919 105.74H74.2969C73.8784 105.74 73.5994 105.393 73.5994 105.045V97.7408C73.5994 94.6801 76.1104 92.1758 79.1793 92.1758C82.2482 92.1758 84.6894 94.6801 84.6894 97.7408V105.045C84.6894 105.393 84.3407 105.74 83.9919 105.74ZM74.9944 104.28H83.2247V97.7408C83.2247 95.4452 81.4113 93.6366 79.1096 93.6366C76.8079 93.6366 74.9944 95.5148 74.9944 97.7408V104.28Z" fill="black"/>
<path d="M93.687 105.74H83.992C83.5735 105.74 83.2945 105.393 83.2945 105.045V97.7408C83.2945 94.6801 85.8054 92.1758 88.8744 92.1758C91.9433 92.1758 94.4543 94.6801 94.4543 97.7408V105.045C94.3845 105.393 94.0358 105.74 93.687 105.74ZM84.6895 104.28H92.9198V97.7408C92.9198 95.4452 91.0366 93.6366 88.8046 93.6366C86.5029 93.6366 84.6895 95.5148 84.6895 97.7408V104.28Z" fill="black"/>
<path d="M83.992 98.4364C83.5735 98.4364 83.2945 98.0886 83.2945 97.7408C83.2945 95.4453 81.481 93.6366 79.1793 93.6366C76.8776 93.6366 75.0642 95.5148 75.0642 97.7408C75.0642 98.1582 74.7154 98.4364 74.3667 98.4364C74.0179 98.4364 73.6692 98.0886 73.6692 97.7408V91.8976C73.6692 88.8368 76.1801 86.4021 79.2491 86.4021C82.318 86.4021 84.7592 88.9064 84.7592 91.8976V97.7408C84.6895 98.1582 84.3407 98.4364 83.992 98.4364ZM79.1793 87.7934C76.8776 87.7934 75.0642 89.602 75.0642 91.8976V94.054C76.1104 92.941 77.5751 92.2454 79.1793 92.2454C80.7835 92.2454 82.2483 92.941 83.2945 94.054V91.9671C83.2247 89.6716 81.4113 87.7934 79.1793 87.7934Z" fill="black"/>
<path d="M93.687 98.4364C93.2685 98.4364 92.9895 98.0886 92.9895 97.7408C92.9895 95.4453 91.1063 93.6366 88.8743 93.6366C86.5726 93.6366 84.7592 95.5148 84.7592 97.7408C84.7592 98.1582 84.4104 98.4364 84.0617 98.4364C83.7129 98.4364 83.3642 98.0886 83.3642 97.7408V91.8976C83.3642 88.8368 85.8751 86.4021 88.9441 86.4021C92.013 86.4021 94.524 88.9064 94.524 91.8976V97.7408C94.3845 98.1582 94.0357 98.4364 93.687 98.4364ZM88.8046 87.7934C86.5029 87.7934 84.6894 89.602 84.6894 91.8976V94.054C85.7356 92.941 87.2004 92.2454 88.8046 92.2454C90.4088 92.2454 91.9433 92.941 92.9197 94.054V91.8976C92.9197 89.6716 91.1063 87.7934 88.8046 87.7934Z" fill="black"/>
<path d="M45.0026 116.801H24.636C24.4268 116.801 24.2175 116.731 24.078 116.523C16.6847 107.41 20.9394 103.515 25.8915 98.993C29.3789 95.7931 33.2848 92.2454 34.0521 85.9848C34.1218 85.637 34.4008 85.3587 34.7496 85.3587C35.0983 85.3587 35.447 85.637 35.447 85.9848C36.2143 92.1758 40.1899 95.7931 43.6774 98.993C48.6295 103.515 52.9539 107.48 45.4908 116.523C45.4211 116.731 45.2118 116.801 45.0026 116.801ZM24.915 115.41H44.5841C50.8615 107.549 47.4438 104.419 42.7009 100.106C39.7017 97.3235 36.284 94.2627 34.7496 89.4629C33.2151 94.2627 29.8672 97.3235 26.7982 100.106C22.1251 104.419 18.7074 107.549 24.915 115.41Z" fill="black"/>
<path d="M34.8193 82.2979C34.4008 82.2979 34.1218 81.9501 34.1218 81.6023V75.2026C34.1218 74.7852 34.4705 74.5069 34.8193 74.5069C35.168 74.5069 35.5167 74.8547 35.5167 75.2026V81.5327C35.5167 81.9501 35.168 82.2979 34.8193 82.2979Z" fill="black"/>
<path d="M34.8193 86.6108C33.2848 86.6108 32.0293 85.3587 32.0293 83.8283C32.0293 82.2979 33.2848 81.0458 34.8193 81.0458C36.3537 81.0458 37.6092 82.2979 37.6092 83.8283C37.5395 85.2891 36.284 86.6108 34.8193 86.6108ZM34.8193 82.4371C34.052 82.4371 33.4941 83.0631 33.4941 83.7587C33.4941 84.5239 34.1218 85.15 34.8193 85.15C35.5168 85.15 36.1445 84.5239 36.1445 83.7587C36.1445 83.0631 35.5168 82.4371 34.8193 82.4371Z" fill="black"/>
<path d="M123.33 108.732H108.264C108.055 108.732 107.846 108.662 107.706 108.453C102.127 101.567 105.474 98.506 109.101 95.167C111.612 92.8019 114.542 90.1585 115.1 85.6369C115.17 85.2891 115.449 85.0109 115.797 85.0109C116.146 85.0109 116.425 85.2891 116.495 85.6369C117.053 90.1585 119.982 92.8019 122.493 95.167C126.05 98.4364 129.468 101.567 123.888 108.453C123.749 108.593 123.539 108.732 123.33 108.732ZM108.543 107.271H122.912C127.376 101.636 125.004 99.4799 121.447 96.2104C119.424 94.3322 116.913 92.1062 115.658 88.6977C114.402 92.0367 111.961 94.3322 109.938 96.2104C106.451 99.4799 104.08 101.636 108.543 107.271Z" fill="black"/>
<path d="M115.728 83.2022C115.309 83.2022 115.03 82.8544 115.03 82.5066V75.2026C115.03 74.7852 115.379 74.5069 115.728 74.5069C116.076 74.5069 116.425 74.8547 116.425 75.2026V82.5066C116.425 82.8544 116.146 83.2022 115.728 83.2022Z" fill="black"/>
<path d="M115.728 86.4021C114.472 86.4021 113.496 85.4283 113.496 84.1761C113.496 82.9936 114.542 81.9501 115.728 81.9501C116.983 81.9501 117.959 82.924 117.959 84.1761C117.959 85.4283 116.983 86.4021 115.728 86.4021ZM115.728 83.3414C115.309 83.3414 114.891 83.6892 114.891 84.1761C114.891 84.6631 115.239 85.0109 115.728 85.0109C116.216 85.0109 116.565 84.6631 116.565 84.1761C116.565 83.6892 116.216 83.3414 115.728 83.3414Z" fill="black"/>
<path d="M115.797 108.732C115.588 108.732 115.449 108.662 115.309 108.523L106.8 100.106C106.521 99.8277 106.521 99.4103 106.8 99.132C107.079 98.8538 107.497 98.8538 107.776 99.132L116.286 107.549C116.565 107.827 116.565 108.245 116.286 108.523C116.146 108.662 116.007 108.732 115.797 108.732ZM123.539 108.036C123.33 108.036 123.191 107.966 123.051 107.827L110.706 95.5148C110.427 95.2365 110.427 94.8192 110.706 94.4714C110.985 94.1931 111.403 94.1931 111.752 94.4714L124.097 106.784C124.376 107.062 124.376 107.48 124.097 107.827C123.888 107.966 123.679 108.036 123.539 108.036Z" fill="black"/>
<path d="M115.937 108.732C115.728 108.732 115.588 108.662 115.449 108.523C115.17 108.245 115.17 107.827 115.449 107.48L123.888 99.0625C124.167 98.7842 124.586 98.7842 124.934 99.0625C125.213 99.3407 125.213 99.7581 124.934 100.106L116.495 108.523C116.286 108.662 116.076 108.732 115.937 108.732ZM107.776 108.036C107.567 108.036 107.427 107.966 107.288 107.827C107.009 107.549 107.009 107.132 107.288 106.784L119.633 94.4714C119.912 94.1931 120.331 94.1931 120.68 94.4714C120.959 94.7496 120.959 95.167 120.68 95.5148L108.264 107.827C108.125 107.966 107.916 108.036 107.776 108.036Z" fill="black"/>
<path d="M58.5338 79.9328C58.1153 79.9328 57.8363 79.585 57.8363 79.2372V70.6115C57.8363 70.1941 58.185 69.9158 58.5338 69.9158C58.8825 69.9158 59.2312 70.2636 59.2312 70.6115V79.2372C59.2312 79.585 58.9522 79.9328 58.5338 79.9328Z" fill="black"/>
<path d="M58.5338 83.6196C57.1388 83.6196 56.0228 82.5066 56.0228 81.1154C56.0228 79.7241 57.1388 78.6111 58.5338 78.6111C59.9287 78.6111 61.0447 79.7241 61.0447 81.1154C61.0447 82.5066 59.9287 83.6196 58.5338 83.6196ZM58.5338 80.0719C57.906 80.0719 57.4875 80.5589 57.4875 81.1154C57.4875 81.7414 57.9758 82.1588 58.5338 82.1588C59.0918 82.1588 59.58 81.6719 59.58 81.1154C59.58 80.5589 59.0918 80.0719 58.5338 80.0719Z" fill="black"/>
<path d="M96.1282 101.497C95.7097 101.497 95.4307 101.149 95.4307 100.802V93.7758C95.4307 93.3584 95.7795 93.0801 96.1282 93.0801C96.477 93.0801 96.8257 93.428 96.8257 93.7758V100.802C96.8257 101.219 96.5467 101.497 96.1282 101.497Z" fill="black"/>
<path d="M96.1282 104.975C94.9425 104.975 93.8962 103.932 93.8962 102.749C93.8962 101.567 94.9425 100.523 96.1282 100.523C97.3139 100.523 98.3602 101.567 98.3602 102.749C98.3602 103.932 97.3139 104.975 96.1282 104.975ZM96.1282 101.915C95.7097 101.915 95.2912 102.262 95.2912 102.749C95.2912 103.167 95.64 103.584 96.1282 103.584C96.5467 103.584 96.9652 103.236 96.9652 102.749C96.9652 102.332 96.5467 101.915 96.1282 101.915Z" fill="black"/>
<path d="M95.082 80.3502H63.2069C62.9279 80.3502 62.7187 80.2111 62.5792 80.0024C62.4397 79.7937 62.4397 79.5154 62.5792 79.3067L68.996 68.6637C69.1355 68.455 69.3448 68.3159 69.6238 68.3159C69.9028 68.3159 70.112 68.455 70.2515 68.6637L74.4364 75.4808L78.6213 68.6637C78.7608 68.455 78.9701 68.3159 79.2491 68.3159C79.5281 68.3159 79.7373 68.455 79.8768 68.6637L83.992 75.4808L88.1769 68.6637C88.3164 68.455 88.5256 68.3159 88.8046 68.3159C89.0836 68.3159 89.2928 68.455 89.4323 68.6637L95.8492 79.3067C95.9887 79.5154 95.9887 79.7937 95.8492 80.0024C95.5702 80.2111 95.2912 80.3502 95.082 80.3502ZM64.4624 78.9589H93.8265L88.6651 70.4027L84.4802 77.2199C84.3407 77.4286 84.1315 77.5677 83.8525 77.5677C83.5735 77.5677 83.3642 77.4286 83.2247 77.2199L79.1096 70.4027L74.9247 77.2199C74.6457 77.6372 73.9482 77.6372 73.6692 77.2199L69.4843 70.4027L64.4624 78.9589Z" fill="black"/>
<path d="M83.2944 51.4817H75.0641C74.6456 51.4817 74.3666 51.1339 74.3666 50.7861V48.7688C74.3666 48.3514 74.7154 48.0732 75.0641 48.0732H83.2944C83.7129 48.0732 83.9919 48.421 83.9919 48.7688V50.7861C83.9919 51.1339 83.6432 51.4817 83.2944 51.4817ZM75.6919 50.0209H82.5272V49.4644H75.6919V50.0209Z" fill="black"/>
<path d="M83.2944 49.4645H75.0641C74.6456 49.4645 74.3666 49.1166 74.3666 48.7688V41.3952C74.3666 40.9778 74.7154 40.6996 75.0641 40.6996H83.2944C83.7129 40.6996 83.9919 41.0474 83.9919 41.3952V48.7688C83.9919 49.1166 83.6432 49.4645 83.2944 49.4645ZM75.6919 48.0036H82.5272V42.0908H75.6919V48.0036Z" fill="black"/>
<path d="M84.55 42.0908H73.6692C73.2507 42.0908 72.9717 41.743 72.9717 41.3952V38.8214C72.9717 38.404 73.3205 38.1258 73.6692 38.1258H84.55C84.9685 38.1258 85.2474 38.4736 85.2474 38.8214V41.3952C85.3172 41.743 84.9685 42.0908 84.55 42.0908ZM74.4364 40.63H83.8525V39.517H74.3667V40.63H74.4364Z" fill="black"/>
<path d="M79.1096 26.2306C78.6911 26.2306 78.4121 25.8828 78.4121 25.5349V19.8308C78.4121 19.4134 78.7609 19.1352 79.1096 19.1352C79.4583 19.1352 79.8071 19.483 79.8071 19.8308V25.5349C79.8071 25.9523 79.5281 26.2306 79.1096 26.2306Z" fill="black"/>
<path d="M79.1096 29.6391C77.7844 29.6391 76.6684 28.5261 76.6684 27.2044C76.6684 25.8827 77.7844 24.7697 79.1096 24.7697C80.4348 24.7697 81.5508 25.8827 81.5508 27.2044C81.5508 28.5261 80.5046 29.6391 79.1096 29.6391ZM79.1096 26.2306C78.5516 26.2306 78.1331 26.7175 78.1331 27.2044C78.1331 27.7609 78.5516 28.1783 79.1096 28.1783C79.6676 28.1783 80.1558 27.7609 80.1558 27.2044C80.1558 26.6479 79.6676 26.2306 79.1096 26.2306Z" fill="black"/>
<path d="M83.1549 150.191H75.0641C74.6456 150.191 74.3666 149.843 74.3666 149.495V143.374C74.3666 140.73 76.4591 138.574 79.1095 138.574C81.76 138.574 83.9222 140.73 83.9222 143.374V149.426C83.9222 149.843 83.5734 150.191 83.1549 150.191ZM75.8314 148.73H82.4575V143.374C82.4575 141.565 80.923 140.035 79.1095 140.035C77.2263 140.035 75.8314 141.496 75.8314 143.374V148.73Z" fill="black"/>
<path d="M93.687 82.9936H64.6019C64.1834 82.9936 63.9044 82.6457 63.9044 82.2979V79.6546C63.9044 79.2372 64.2531 78.9589 64.6019 78.9589H93.687C94.1055 78.9589 94.3845 79.3068 94.3845 79.6546V82.2979C94.3845 82.6457 94.0357 82.9936 93.687 82.9936ZM65.2994 81.5327H92.9198V80.3502H65.2994V81.5327Z" fill="black"/>
<path d="M128.352 155.199H20.5906C20.1721 155.199 19.8931 154.852 19.8931 154.504V149.495C19.8931 149.078 20.2418 148.8 20.5906 148.8H128.352C128.771 148.8 129.049 149.148 129.049 149.495V154.504C129.119 154.852 128.771 155.199 128.352 155.199ZM21.3578 153.739H127.655V150.121H21.3578V153.739Z" fill="black"/>
<path d="M128.352 167.512H20.5906C20.1721 167.512 19.8931 167.164 19.8931 166.816V154.504C19.8931 154.086 20.2418 153.808 20.5906 153.808H128.352C128.771 153.808 129.049 154.156 129.049 154.504V166.816C129.119 167.164 128.771 167.512 128.352 167.512ZM21.3578 166.121H127.655V155.199H21.3578V166.121Z" fill="black"/>
<path d="M25.0545 167.512H20.5906C20.1721 167.512 19.8931 167.164 19.8931 166.816V160.069C19.8931 158.469 21.2183 157.147 22.8225 157.147C24.4267 157.147 25.752 158.469 25.752 160.069V166.816C25.8217 167.164 25.473 167.512 25.0545 167.512ZM21.3578 166.121H24.357V160.069C24.357 159.234 23.6595 158.538 22.8225 158.538C21.9856 158.538 21.2881 159.234 21.2881 160.069V166.121H21.3578Z" fill="black"/>
<path d="M29.5881 167.512H25.0544C24.636 167.512 24.357 167.164 24.357 166.816V160.069C24.357 158.469 25.6822 157.147 27.3561 157.147C28.9604 157.147 30.2856 158.469 30.2856 160.069V166.816C30.2856 167.164 30.0066 167.512 29.5881 167.512ZM25.8217 166.121H28.8906V160.069C28.8906 159.234 28.1931 158.538 27.3561 158.538C26.5192 158.538 25.8217 159.234 25.8217 160.069V166.121Z" fill="black"/>
<path d="M34.1218 167.512H29.5881C29.1696 167.512 28.8906 167.164 28.8906 166.816V160.069C28.8906 158.469 30.2158 157.147 31.8201 157.147C33.494 157.147 34.8192 158.469 34.8192 160.069V166.816C34.8192 167.164 34.4705 167.512 34.1218 167.512ZM30.2856 166.121H33.3545V160.069C33.3545 159.234 32.657 158.538 31.8201 158.538C30.9831 158.538 30.2856 159.234 30.2856 160.069V166.121Z" fill="black"/>
<path d="M38.5857 167.512H34.052C33.6335 167.512 33.3545 167.164 33.3545 166.816V160.069C33.3545 158.469 34.6797 157.147 36.284 157.147C37.8882 157.147 39.2831 158.469 39.2831 160.069V166.816C39.2831 167.164 39.0042 167.512 38.5857 167.512ZM34.8192 166.121H37.8882V160.069C37.8882 159.234 37.1907 158.538 36.3537 158.538C35.5167 158.538 34.8192 159.234 34.8192 160.069V166.121Z" fill="black"/>
<path d="M43.0496 167.512H38.5857C38.1672 167.512 37.8882 167.164 37.8882 166.816V160.069C37.8882 158.469 39.2134 157.147 40.8176 157.147C42.4218 157.147 43.7471 158.469 43.7471 160.069V166.816C43.7471 167.164 43.4681 167.512 43.0496 167.512ZM39.2832 166.121H42.2823V160.069C42.2823 159.234 41.5849 158.538 40.7479 158.538C39.9109 158.538 39.2134 159.234 39.2134 160.069V166.121H39.2832Z" fill="black"/>
<path d="M47.5833 167.512H43.0496C42.6311 167.512 42.3521 167.164 42.3521 166.816V160.069C42.3521 158.469 43.6774 157.147 45.3513 157.147C46.9555 157.147 48.2808 158.469 48.2808 160.069V166.816C48.2808 167.164 47.932 167.512 47.5833 167.512ZM43.7471 166.121H46.816V160.069C46.816 159.234 46.1186 158.538 45.2816 158.538C44.4446 158.538 43.7471 159.234 43.7471 160.069V166.121Z" fill="black"/>
<path d="M52.0471 167.512H47.5832C47.1647 167.512 46.8857 167.164 46.8857 166.816V160.069C46.8857 158.469 48.211 157.147 49.8152 157.147C51.4891 157.147 52.8144 158.469 52.8144 160.069V166.816C52.7446 167.164 52.4656 167.512 52.0471 167.512ZM48.2807 166.121H51.3496V160.069C51.3496 159.234 50.6522 158.538 49.8152 158.538C48.9782 158.538 48.2807 159.234 48.2807 160.069V166.121Z" fill="black"/>
<path d="M56.5111 167.512H52.0472C51.6287 167.512 51.3497 167.164 51.3497 166.816V160.069C51.3497 158.469 52.6749 157.147 54.2791 157.147C55.8833 157.147 57.2085 158.469 57.2085 160.069V166.816C57.2085 167.164 56.9296 167.512 56.5111 167.512ZM52.7446 166.121H55.7438V160.069C55.7438 159.234 55.0463 158.538 54.2094 158.538C53.3724 158.538 52.6749 159.234 52.6749 160.069V166.121H52.7446Z" fill="black"/>
<path d="M61.0447 167.512H56.5111C56.0926 167.512 55.8136 167.164 55.8136 166.816V160.069C55.8136 158.469 57.2085 157.147 58.8128 157.147C60.417 157.147 61.7422 158.469 61.7422 160.069V166.816C61.7422 167.164 61.3934 167.512 61.0447 167.512ZM57.2085 166.121H60.2775V160.069C60.2775 159.234 59.58 158.538 58.743 158.538C57.906 158.538 57.2085 159.234 57.2085 160.069V166.121Z" fill="black"/>
<path d="M65.5086 167.512H60.975C60.5565 167.512 60.2775 167.164 60.2775 166.816V160.069C60.2775 158.469 61.6027 157.147 63.2767 157.147C64.8809 157.147 66.2061 158.469 66.2061 160.069V166.816C66.2061 167.164 65.9271 167.512 65.5086 167.512ZM61.7422 166.121H64.8111V160.069C64.8111 159.234 64.1136 158.538 63.2767 158.538C62.4397 158.538 61.7422 159.234 61.7422 160.069V166.121Z" fill="black"/>
<path d="M70.0422 167.512H65.5086C65.0901 167.512 64.8111 167.164 64.8111 166.816V160.069C64.8111 158.469 66.1363 157.147 67.7405 157.147C69.3448 157.147 70.7397 158.469 70.7397 160.069V166.816C70.7397 167.164 70.391 167.512 70.0422 167.512ZM66.2061 166.121H69.275V160.069C69.275 159.234 68.5775 158.538 67.7405 158.538C66.9036 158.538 66.2061 159.234 66.2061 160.069V166.121Z" fill="black"/>
<path d="M74.5062 167.512H70.0423C69.6238 167.512 69.3448 167.164 69.3448 166.816V160.069C69.3448 158.469 70.67 157.147 72.2742 157.147C73.8784 157.147 75.2037 158.469 75.2037 160.069V166.816C75.2037 167.164 74.8549 167.512 74.5062 167.512ZM70.7398 166.121H73.7389V160.069C73.7389 159.234 73.0415 158.538 72.2045 158.538C71.3675 158.538 70.67 159.234 70.67 160.069V166.121H70.7398Z" fill="black"/>
<path d="M78.9701 167.512H74.4364C74.0179 167.512 73.739 167.164 73.739 166.816V160.069C73.739 158.469 75.0642 157.147 76.7381 157.147C78.3424 157.147 79.6676 158.469 79.6676 160.069V166.816C79.6676 167.164 79.3886 167.512 78.9701 167.512ZM75.2037 166.121H78.2726V160.069C78.2726 159.234 77.5751 158.538 76.7381 158.538C75.9012 158.538 75.2037 159.234 75.2037 160.069V166.121Z" fill="black"/>
<path d="M83.5037 167.512H78.9701C78.5516 167.512 78.2726 167.164 78.2726 166.816V160.069C78.2726 158.469 79.5978 157.147 81.202 157.147C82.876 157.147 84.2012 158.469 84.2012 160.069V166.816C84.2012 167.164 83.8525 167.512 83.5037 167.512ZM79.6676 166.121H82.7365V160.069C82.7365 159.234 82.039 158.538 81.202 158.538C80.365 158.538 79.6676 159.234 79.6676 160.069V166.121Z" fill="black"/>
<path d="M87.9676 167.512H83.5037C83.0852 167.512 82.8062 167.164 82.8062 166.816V160.069C82.8062 158.469 84.1315 157.147 85.7357 157.147C87.3399 157.147 88.6651 158.469 88.6651 160.069V166.816C88.6651 167.164 88.3164 167.512 87.9676 167.512ZM84.2012 166.121H87.2004V160.069C87.2004 159.234 86.5029 158.538 85.6659 158.538C84.829 158.538 84.1315 159.234 84.1315 160.069V166.121H84.2012Z" fill="black"/>
<path d="M92.4315 167.512H87.8979C87.4794 167.512 87.2004 167.164 87.2004 166.816V160.069C87.2004 158.469 88.5954 157.147 90.1996 157.147C91.8038 157.147 93.129 158.469 93.129 160.069V166.816C93.129 167.164 92.85 167.512 92.4315 167.512ZM88.6651 166.121H91.734V160.069C91.734 159.234 91.0365 158.538 90.1996 158.538C89.3626 158.538 88.6651 159.234 88.6651 160.069V166.121Z" fill="black"/>
<path d="M96.9652 167.512H92.4315C92.013 167.512 91.734 167.164 91.734 166.816V160.069C91.734 158.469 93.0593 157.147 94.7332 157.147C96.3374 157.147 97.6627 158.469 97.6627 160.069V166.816C97.6627 167.164 97.3139 167.512 96.9652 167.512ZM93.129 166.121H96.1979V160.069C96.1979 159.234 95.5005 158.538 94.6635 158.538C93.8265 158.538 93.129 159.234 93.129 160.069V166.121Z" fill="black"/>
<path d="M101.429 167.512H96.8955C96.477 167.512 96.198 167.164 96.198 166.816V160.069C96.198 158.469 97.5232 157.147 99.1274 157.147C100.801 157.147 102.127 158.469 102.127 160.069V166.816C102.196 167.164 101.848 167.512 101.429 167.512ZM97.6627 166.121H100.732V160.069C100.732 159.234 100.034 158.538 99.1972 158.538C98.3602 158.538 97.6627 159.234 97.6627 160.069V166.121Z" fill="black"/>
<path d="M105.893 167.512H101.429C101.011 167.512 100.732 167.164 100.732 166.816V160.069C100.732 158.469 102.057 157.147 103.661 157.147C105.265 157.147 106.59 158.469 106.59 160.069V166.816C106.59 167.164 106.311 167.512 105.893 167.512ZM102.196 166.121H105.195V160.069C105.195 159.234 104.498 158.538 103.661 158.538C102.824 158.538 102.127 159.234 102.127 160.069V166.121H102.196Z" fill="black"/>
<path d="M110.427 167.512H105.893C105.474 167.512 105.195 167.164 105.195 166.816V160.069C105.195 158.469 106.521 157.147 108.195 157.147C109.799 157.147 111.124 158.469 111.124 160.069V166.816C111.124 167.164 110.775 167.512 110.427 167.512ZM106.59 166.121H109.659V160.069C109.659 159.234 108.962 158.538 108.125 158.538C107.288 158.538 106.59 159.234 106.59 160.069V166.121Z" fill="black"/>
<path d="M114.891 167.512H110.357C109.938 167.512 109.659 167.164 109.659 166.816V160.069C109.659 158.469 110.985 157.147 112.589 157.147C114.263 157.147 115.588 158.469 115.588 160.069V166.816C115.658 167.164 115.309 167.512 114.891 167.512ZM111.124 166.121H114.193V160.069C114.193 159.234 113.496 158.538 112.659 158.538C111.822 158.538 111.124 159.234 111.124 160.069V166.121Z" fill="black"/>
<path d="M119.424 167.512H114.891C114.472 167.512 114.193 167.164 114.193 166.816V160.069C114.193 158.469 115.518 157.147 117.122 157.147C118.727 157.147 120.122 158.469 120.122 160.069V166.816C120.122 167.164 119.843 167.512 119.424 167.512ZM115.658 166.121H118.727V160.069C118.727 159.234 118.029 158.538 117.192 158.538C116.355 158.538 115.658 159.234 115.658 160.069V166.121Z" fill="black"/>
<path d="M123.888 167.512H119.424C119.006 167.512 118.727 167.164 118.727 166.816V160.069C118.727 158.469 120.052 157.147 121.656 157.147C123.26 157.147 124.586 158.469 124.586 160.069V166.816C124.586 167.164 124.237 167.512 123.888 167.512ZM120.122 166.121H123.121V160.069C123.121 159.234 122.423 158.538 121.586 158.538C120.749 158.538 120.052 159.234 120.052 160.069V166.121H120.122Z" fill="black"/>
<path d="M128.352 167.512H123.818C123.4 167.512 123.121 167.164 123.121 166.816V160.069C123.121 158.469 124.446 157.147 126.12 157.147C127.724 157.147 129.049 158.469 129.049 160.069V166.816C129.119 167.164 128.77 167.512 128.352 167.512ZM124.586 166.121H127.655V160.069C127.655 159.234 126.957 158.538 126.12 158.538C125.283 158.538 124.586 159.234 124.586 160.069V166.121Z" fill="black"/>
<path d="M92.7105 150.191H85.9449C85.5264 150.191 85.2474 149.843 85.2474 149.495V144.417C85.2474 142.122 87.0609 140.313 89.3626 140.313C91.6643 140.313 93.4777 142.191 93.4777 144.417V149.495C93.408 149.843 93.129 150.191 92.7105 150.191ZM86.6424 148.73H92.013V144.348C92.013 142.887 90.8273 141.635 89.2928 141.635C87.8281 141.635 86.6424 142.817 86.6424 144.348V148.73Z" fill="black"/>
<path d="M99.5459 150.191H92.7105C92.292 150.191 92.013 149.843 92.013 149.495V144.417C92.013 142.122 93.8962 140.313 96.1282 140.313C98.3602 140.313 100.243 142.191 100.243 144.417V149.495C100.243 149.843 99.8946 150.191 99.5459 150.191ZM93.408 148.73H98.7786V144.348C98.7786 142.887 97.5929 141.635 96.0584 141.635C94.5937 141.635 93.3383 142.817 93.3383 144.348V148.73H93.408Z" fill="black"/>
<path d="M34.8193 143.235H26.031C25.6125 143.235 25.3335 142.887 25.3335 142.539V135.931C25.3335 133.079 27.6352 130.783 30.4949 130.783C33.2848 130.783 35.5865 133.079 35.5865 135.931V142.539C35.5167 142.887 35.168 143.235 34.8193 143.235ZM26.7284 141.774H34.052V135.931C34.052 133.913 32.3781 132.244 30.4251 132.244C28.4024 132.244 26.7284 133.913 26.7284 135.931V141.774Z" fill="black"/>
<path d="M127.794 150.191H103.731C103.312 150.191 103.033 149.843 103.033 149.495V130.366C103.033 129.948 103.382 129.67 103.731 129.67H127.794C128.213 129.67 128.492 130.018 128.492 130.366V149.495C128.492 149.843 128.143 150.191 127.794 150.191ZM104.428 148.73H127.027V131.061H104.428V148.73Z" fill="black"/>
<path d="M46.6068 150.191H22.962C22.5435 150.191 22.2645 149.843 22.2645 149.495V142.539C22.2645 142.122 22.6133 141.843 22.962 141.843H46.537C46.9555 141.843 47.2345 142.191 47.2345 142.539V149.495C47.3042 149.843 46.9555 150.191 46.6068 150.191ZM23.7292 148.73H45.9093V143.235H23.7292V148.73Z" fill="black"/>
<path d="M46.6068 143.235H37.7487C37.3302 143.235 37.0512 142.887 37.0512 142.539V127.861C37.0512 127.444 37.4 127.166 37.7487 127.166H46.6068C47.0253 127.166 47.3043 127.514 47.3043 127.861V142.539C47.3043 142.887 46.9555 143.235 46.6068 143.235ZM38.4462 141.774H45.9093V128.487H38.4462V141.774Z" fill="black"/>
<path d="M66.0666 116.592H50.9312C50.5825 116.592 50.3035 116.384 50.2337 116.036L48.769 109.219C48.6993 109.01 48.769 108.801 48.9085 108.593C49.048 108.384 49.2572 108.314 49.4665 108.314H67.4616C67.6708 108.314 67.8801 108.384 68.0196 108.593C68.1591 108.732 68.2288 109.01 68.1591 109.219L66.6944 116.036C66.6944 116.384 66.4154 116.592 66.0666 116.592ZM51.5589 115.201H65.5086L66.6246 109.775H50.3732L51.5589 115.201Z" fill="black"/>
<path d="M62.5094 131.479H54.5581C54.1396 131.479 53.8606 131.131 53.8606 130.783V124.801C53.8606 122.227 55.953 120.14 58.5337 120.14C61.1144 120.14 63.2069 122.227 63.2069 124.801V130.783C63.2069 131.131 62.9279 131.479 62.5094 131.479ZM55.2556 130.018H61.8119V124.731C61.8119 122.992 60.3472 121.531 58.5337 121.531C56.79 121.531 55.2556 122.992 55.2556 124.731V130.018Z" fill="black"/>
<path d="M70.391 131.479H62.5094C62.0909 131.479 61.812 131.131 61.812 130.783V124.801C61.812 122.227 63.9044 120.14 66.4851 120.14C69.0658 120.14 71.1582 122.227 71.1582 124.801V130.783C71.1582 131.131 70.8095 131.479 70.391 131.479ZM63.2069 130.018H69.6935V124.731C69.6935 122.992 68.2288 121.531 66.4154 121.531C64.6716 121.531 63.2069 122.992 63.2069 124.731V130.018Z" fill="black"/>
<path d="M46.9555 128.557H37.7487C37.5394 128.557 37.3302 128.487 37.1907 128.279C33.5638 123.896 35.8655 121.809 38.0974 119.792C39.7016 118.331 41.3756 116.801 41.7243 114.158C41.7941 113.81 42.0731 113.532 42.4218 113.532C42.7706 113.532 43.0496 113.81 43.1193 114.158C43.4681 116.801 45.0723 118.331 46.6765 119.792C48.8387 121.809 51.1404 123.896 47.5135 128.279C47.374 128.418 47.1647 128.557 46.9555 128.557ZM38.0277 127.096H46.537C48.9782 123.966 47.7925 122.853 45.6303 120.836C44.5143 119.792 43.1193 118.54 42.2823 116.801C41.4454 118.54 40.1201 119.792 38.9344 120.836C36.8419 122.853 35.5865 123.966 38.0277 127.096Z" fill="black"/>
<path d="M42.3521 111.792C41.9336 111.792 41.6546 111.445 41.6546 111.097V108.384C41.6546 107.966 42.0033 107.688 42.3521 107.688C42.7008 107.688 43.0496 108.036 43.0496 108.384V111.097C43.0496 111.445 42.7706 111.792 42.3521 111.792Z" fill="black"/>
<path d="M42.3521 114.923C41.1664 114.923 40.2596 113.949 40.2596 112.836C40.2596 111.653 41.1664 110.749 42.3521 110.749C43.5378 110.749 44.4446 111.723 44.4446 112.836C44.4446 113.949 43.4681 114.923 42.3521 114.923ZM42.3521 112.071C41.9336 112.071 41.6546 112.349 41.6546 112.766C41.6546 113.114 41.9336 113.462 42.3521 113.462C42.7008 113.462 43.0496 113.114 43.0496 112.766C43.0496 112.349 42.7008 112.071 42.3521 112.071Z" fill="black"/>
<path d="M37.8882 128.557C37.6789 128.557 37.5394 128.487 37.3999 128.348C37.121 128.07 37.121 127.583 37.3999 127.374L45.2118 119.653C45.4908 119.375 45.979 119.375 46.1883 119.653C46.4673 119.931 46.4673 120.418 46.1883 120.627L38.3764 128.348C38.2369 128.487 38.0974 128.557 37.8882 128.557Z" fill="black"/>
<path d="M46.9555 128.557C46.7462 128.557 46.6067 128.487 46.4672 128.348L38.4462 120.418C38.1672 120.14 38.1672 119.723 38.4462 119.375C38.7251 119.096 39.1436 119.096 39.4924 119.375L47.4437 127.305C47.7227 127.583 47.7227 128 47.4437 128.348C47.3042 128.487 47.095 128.557 46.9555 128.557Z" fill="black"/>
<path d="M41.7941 128.557C41.5849 128.557 41.4454 128.487 41.3059 128.348L36.0747 123.201C35.7957 122.922 35.7957 122.505 36.0747 122.227C36.3537 121.949 36.7722 121.949 37.0512 122.227L42.2823 127.374C42.5613 127.653 42.5613 128.07 42.2823 128.348C42.2126 128.487 42.0033 128.557 41.7941 128.557Z" fill="black"/>
<path d="M43.0496 128.557C42.8404 128.557 42.7009 128.487 42.5614 128.348C42.2824 128.07 42.2824 127.583 42.5614 127.374L47.7925 122.227C48.0715 121.949 48.5598 121.949 48.769 122.227C49.048 122.505 49.048 122.992 48.769 123.201L43.5379 128.348C43.3984 128.487 43.2589 128.557 43.0496 128.557Z" fill="black"/>
<path d="M53.3026 150.191H48.6295C48.4202 150.191 48.211 150.121 48.0715 149.913C47.932 149.774 47.8622 149.495 47.932 149.287L50.2337 139.687C50.3034 139.339 50.5824 139.131 50.9312 139.131C51.2799 139.131 51.5589 139.339 51.6287 139.687L54.0001 149.287C54.0699 149.495 54.0001 149.704 53.8606 149.913C53.7211 150.052 53.5119 150.191 53.3026 150.191ZM49.5362 148.73H52.3959L50.9312 142.887L49.5362 148.73Z" fill="black"/>
<path d="M68.4381 150.191H63.6952C63.4859 150.191 63.2767 150.121 63.1372 149.913C62.9977 149.774 62.9279 149.495 62.9977 149.287L65.3691 139.687C65.5086 139.061 66.6246 139.061 66.7641 139.687L69.1355 149.287C69.2053 149.495 69.1355 149.704 68.996 149.913C68.8565 150.052 68.6473 150.191 68.4381 150.191ZM64.6716 148.73H67.6011L66.1364 142.817L64.6716 148.73Z" fill="black"/>
<path d="M60.8355 150.191H56.1623C55.9531 150.191 55.7438 150.121 55.6043 149.913C55.4648 149.774 55.3951 149.495 55.4648 149.287L57.8363 139.687C57.906 139.339 58.185 139.131 58.5338 139.131C58.8825 139.131 59.1615 139.339 59.2312 139.687L61.5329 149.287C61.6027 149.495 61.533 149.704 61.3935 149.913C61.254 150.052 61.0447 150.191 60.8355 150.191ZM57.069 148.73H59.9287L58.5338 142.887L57.069 148.73Z" fill="black"/>
<path d="M110.566 150.191H105.823C105.614 150.191 105.405 150.121 105.265 149.913C105.126 149.774 105.056 149.495 105.126 149.287L107.497 139.687C107.637 139.061 108.753 139.061 108.892 139.687L111.264 149.287C111.333 149.495 111.264 149.704 111.124 149.913C110.985 150.052 110.775 150.191 110.566 150.191ZM106.73 148.73H109.659L108.195 142.817L106.73 148.73Z" fill="black"/>
<path d="M125.702 150.191H121.028C120.819 150.191 120.61 150.121 120.47 149.913C120.331 149.774 120.261 149.495 120.331 149.287L122.702 139.687C122.772 139.339 123.051 139.131 123.4 139.131C123.749 139.131 124.028 139.339 124.097 139.687L126.399 149.287C126.469 149.495 126.399 149.704 126.26 149.913C126.12 150.052 125.911 150.191 125.702 150.191ZM121.935 148.73H124.795L123.4 142.887L121.935 148.73Z" fill="black"/>
<path d="M118.099 150.191H113.426C113.217 150.191 113.007 150.121 112.868 149.913C112.728 149.774 112.659 149.495 112.728 149.287L115.03 139.687C115.1 139.339 115.379 139.131 115.727 139.131C116.076 139.131 116.355 139.339 116.425 139.687L118.796 149.287C118.866 149.495 118.796 149.704 118.657 149.913C118.517 150.052 118.308 150.191 118.099 150.191ZM114.333 148.73H117.192L115.727 142.887L114.333 148.73Z" fill="black"/>
<path d="M111.752 131.2H103.731C103.312 131.2 103.033 130.853 103.033 130.505V124.522C103.033 121.949 105.126 119.862 107.776 119.862C110.357 119.862 112.519 121.949 112.519 124.522V130.505C112.449 130.853 112.17 131.2 111.752 131.2ZM104.428 129.74H111.054V124.453C111.054 122.644 109.59 121.183 107.776 121.183C105.963 121.183 104.498 122.644 104.498 124.453V129.74H104.428Z" fill="black"/>
<path d="M119.773 131.2H111.752C111.333 131.2 111.054 130.853 111.054 130.505V124.522C111.054 121.949 113.147 119.862 115.728 119.862C118.308 119.862 120.47 121.949 120.47 124.522V130.505C120.47 130.853 120.191 131.2 119.773 131.2ZM112.449 129.74H119.006V124.453C119.006 122.644 117.541 121.183 115.728 121.183C113.914 121.183 112.449 122.644 112.449 124.453V129.74Z" fill="black"/>
<path d="M127.794 131.2H119.773C119.354 131.2 119.075 130.853 119.075 130.505V124.522C119.075 121.949 121.168 119.862 123.818 119.862C126.399 119.862 128.491 121.949 128.491 124.522V130.505C128.491 130.853 128.143 131.2 127.794 131.2ZM120.47 129.74H127.027V124.453C127.027 122.644 125.562 121.183 123.749 121.183C121.935 121.183 120.47 122.644 120.47 124.453V129.74Z" fill="black"/>
<path d="M139.303 167.512H10.2678C9.84931 167.512 9.57031 167.164 9.57031 166.816C9.57031 166.469 9.91905 166.121 10.2678 166.121H139.303C139.721 166.121 140 166.469 140 166.816C140 167.164 139.721 167.512 139.303 167.512Z" fill="black"/>
<path d="M82.8062 39.4474H75.4129C75.2036 39.4474 74.9944 39.3779 74.8549 39.1692C71.8557 35.5519 73.8087 33.7433 75.5524 32.1434C76.5986 31.1695 77.7146 30.1261 78.2028 28.5957C78.2726 28.2479 78.6213 28.0392 78.9701 28.1088C78.9701 28.1088 79.1096 28.1088 79.1793 28.1783C79.1096 28.1783 79.1793 28.1783 79.249 28.1088C79.5978 28.0392 79.9465 28.2479 80.0163 28.5957C80.5045 30.1261 81.6205 31.1695 82.6667 32.1434C84.4104 33.7433 86.3634 35.5519 83.3642 39.1692C83.2247 39.3779 83.0155 39.4474 82.8062 39.4474ZM75.7616 38.0562H82.4575C84.3407 35.6911 83.434 34.8563 81.6902 33.2564C80.8533 32.4912 79.807 31.5173 79.1096 30.1956C78.4121 31.5173 77.3658 32.4216 76.5289 33.2564C74.7851 34.8563 73.9482 35.6911 75.7616 38.0562Z" fill="black"/>
<path d="M83.8525 77.4981C83.5735 77.4981 83.3642 77.359 83.2247 77.1503L79.1096 70.3332L74.9247 77.1503C74.6457 77.5677 73.9482 77.5677 73.6692 77.1503L69.4843 70.3332L68.9263 71.2375C68.7171 71.5853 68.3683 71.6549 68.0196 71.5158C67.6708 71.3766 67.5313 70.9593 67.6708 70.6115L75.1339 50.4383C75.2037 50.1601 75.4827 49.9514 75.8314 49.9514H82.2483C82.5273 49.9514 82.8062 50.1601 82.9457 50.4383L90.4088 70.6115C90.5483 70.9593 90.4088 71.3071 90.0601 71.5158C89.7113 71.6549 89.3626 71.5853 89.1534 71.2375L88.5954 70.3332L84.4105 77.1503C84.3407 77.4286 84.1315 77.4981 83.8525 77.4981ZM70.112 68.5246C70.1818 68.5941 70.1818 68.5941 70.2515 68.6637L74.4364 75.4808L78.6213 68.6637C78.7608 68.455 78.9701 68.3159 79.2491 68.3159C79.5281 68.3159 79.7373 68.455 79.8768 68.6637L83.992 75.4808L88.1769 68.6637C88.1769 68.5941 88.2466 68.5941 88.2466 68.5246L81.9693 51.4818H76.5289L70.112 68.5246Z" fill="black"/>
<path d="M25.194 116.801C25.0545 116.801 24.9847 116.801 24.8452 116.731L23.8687 116.244C23.799 116.175 23.6595 116.105 23.5897 116.036C16.7544 107.34 21.1485 103.236 25.8217 98.993C29.3091 95.7931 33.215 92.1758 33.9823 85.9848C34.052 85.637 34.331 85.3587 34.6798 85.3587C35.0285 85.3587 35.3772 85.637 35.3772 85.9848C35.7957 89.0455 36.9117 91.7585 39.0739 94.3323C39.2134 94.4714 39.2832 94.7496 39.2134 94.9583C38.0974 99.8973 34.9588 102.68 31.8898 105.393C28.5419 108.384 25.6125 110.958 25.8217 116.036C25.8217 116.314 25.6822 116.523 25.473 116.662C25.473 116.801 25.3335 116.801 25.194 116.801ZM34.8193 89.3933C33.2848 94.1931 29.9369 97.3235 26.8679 100.036C22.2645 104.28 18.9166 107.34 24.4965 114.784C24.7755 109.914 27.9839 107.062 30.9831 104.349C33.773 101.845 36.7025 99.2712 37.8184 94.9583C36.4235 93.2193 35.447 91.3411 34.8193 89.3933Z" fill="black"/>
<path d="M32.7966 116.801H24.636C24.4268 116.801 24.2175 116.731 24.078 116.523C16.6847 107.41 20.9394 103.515 25.8915 98.993C29.3789 95.7931 33.2848 92.2454 34.0521 85.9848C34.1218 85.637 34.4008 85.3587 34.7496 85.3587C35.0983 85.3587 35.447 85.637 35.447 85.9848C36.2143 92.1758 40.1899 95.7931 43.6076 98.9234C43.8169 99.0625 43.8866 99.3408 43.8169 99.619C42.9799 103.584 40.3294 105.88 38.0975 107.967C35.5168 110.262 33.2848 112.279 33.4243 116.036C33.4243 116.244 33.3546 116.384 33.2151 116.523C33.1453 116.731 33.0059 116.801 32.7966 116.801ZM24.915 115.41H32.0294C32.1689 111.375 34.6798 109.149 37.121 106.923C39.2832 104.975 41.5152 103.028 42.3521 99.7581C39.5622 97.1843 36.284 94.054 34.7496 89.3933C33.2151 94.1931 29.8672 97.3235 26.7982 100.036C22.1251 104.419 18.7074 107.549 24.915 115.41Z" fill="black"/>
<path d="M55.3951 96.5582C55.1858 96.5582 55.0463 96.4887 54.9068 96.3496L52.1866 93.6366C52.0471 93.4975 51.9774 93.2888 51.9774 93.1497C51.9774 92.941 52.0471 92.8019 52.1866 92.6628C54.7673 90.2281 57.2085 87.3064 57.8363 82.7849C57.906 82.4371 58.185 82.1588 58.5337 82.1588C58.8825 82.1588 59.2312 82.4371 59.2312 82.7849C59.7892 87.2369 62.2304 90.1585 64.8111 92.5932C64.9506 92.7323 65.0204 92.941 65.0204 93.0801C65.0204 93.2888 64.9506 93.4279 64.8111 93.5671L62.0909 96.28C61.8119 96.5583 61.3934 96.5583 61.0447 96.28L58.464 93.7062L55.8136 96.28C55.7438 96.4887 55.5346 96.5582 55.3951 96.5582ZM53.7211 93.1497L55.3951 94.8192L58.0455 92.2454C58.3245 91.9671 58.743 91.9671 59.022 92.2454L61.6027 94.8192L63.2766 93.1497C61.3237 91.2019 59.5102 89.0455 58.464 86.0543C57.4875 88.9759 55.6741 91.2019 53.7211 93.1497Z" fill="black"/>
<path d="M61.6027 104.349C61.3934 104.349 61.2539 104.28 61.1144 104.141L58.5337 101.497L55.8833 104.141C55.7438 104.28 55.5346 104.349 55.3951 104.349C55.1858 104.349 55.0463 104.28 54.9068 104.141L52.3261 101.497L49.7454 104.141C49.4664 104.419 48.9782 104.419 48.6992 104.141L45.979 101.428C45.8395 101.288 45.7698 101.01 45.7698 100.802C46.258 98.1582 48.4202 96.1409 50.7219 93.9844C51.6286 93.1497 52.5354 92.3149 53.3724 91.4106C53.6514 91.1324 54.0698 91.1324 54.3488 91.4106C54.6278 91.6889 54.6278 92.1062 54.3488 92.3845C53.4421 93.3584 52.5354 94.1931 51.6287 95.0279C49.5362 96.9756 47.7227 98.6451 47.1647 100.662L49.1177 102.61L51.6984 99.9668C51.9774 99.6886 52.4656 99.6886 52.7446 99.9668L55.3253 102.61L57.9758 99.9668C58.1153 99.8277 58.3245 99.7581 58.464 99.7581C58.6035 99.8277 58.8127 99.8277 58.9522 99.9668L61.5329 102.61L64.1136 99.9668C64.2531 99.8277 64.3926 99.6886 64.6019 99.7581C64.8111 99.7581 64.9506 99.8277 65.0901 99.9668L67.7406 102.61L69.6238 100.662C69.0658 98.6451 67.2523 96.9061 65.1599 95.0279C64.2531 94.1931 63.3464 93.3584 62.4397 92.3845C62.1607 92.1062 62.1607 91.6193 62.4397 91.4106C62.7187 91.1324 63.2069 91.1324 63.4161 91.4106C64.2531 92.3149 65.2296 93.1497 66.0666 93.9844C68.3683 96.1409 70.5305 98.0886 71.0187 100.802C71.0885 101.01 71.0187 101.288 70.8095 101.428L68.0893 104.141C67.9498 104.28 67.7405 104.349 67.6011 104.349C67.4616 104.349 67.2523 104.28 67.1128 104.141L64.4624 101.497L61.8817 104.141C62.0212 104.28 61.8119 104.349 61.6027 104.349Z" fill="black"/>
<path d="M67.3221 109.636H49.6757C49.4665 109.636 49.2572 109.566 49.1177 109.358C48.769 108.94 48.49 108.523 48.211 108.175C48.1413 108.036 48.0715 107.897 48.0715 107.758C48.0018 106.158 47.374 104.767 45.9093 103.097C45.8396 102.958 45.7698 102.888 45.7698 102.749C45.2816 98.9929 48.0018 96.5583 50.7917 93.9844C53.7909 91.2019 57.2086 88.1412 57.906 82.7849C57.9758 82.4371 58.2548 82.1588 58.6035 82.1588C58.9523 82.1588 59.301 82.4371 59.301 82.7849C59.9985 88.1412 63.4162 91.2715 66.4154 93.9844C70.6003 97.8104 74.5062 101.428 68.0196 109.358C67.7406 109.566 67.6011 109.636 67.3221 109.636ZM50.0245 108.245H67.0431C72.4137 101.497 69.6238 98.9234 65.3691 95.0279C62.7884 92.6628 59.9287 90.0194 58.5338 85.9848C57.1388 90.0194 54.2791 92.6628 51.6984 95.0279C48.9782 97.5321 46.8858 99.4799 47.095 102.332C48.5597 104.071 49.327 105.74 49.4665 107.48C49.606 107.758 49.8152 108.036 50.0245 108.245Z" fill="black"/>
<path d="M44.2353 119.166C44.0261 119.166 43.8168 119.097 43.6773 118.888C43.0496 118.123 42.4916 117.288 42.1429 116.384C42.0731 116.175 42.0731 115.897 42.2126 115.688C42.3521 115.479 42.5614 115.34 42.7706 115.34H44.7933C45.0025 115.34 45.2118 115.41 45.3513 115.618C45.4908 115.758 45.5605 116.036 45.4908 116.244L44.9328 118.54C44.8631 118.818 44.6538 119.027 44.3748 119.097C44.3748 119.097 44.3051 119.166 44.2353 119.166Z" fill="black"/>
<path d="M36.284 123.618H26.4495C26.1007 123.618 25.8217 123.409 25.752 123.062L24.078 116.244C24.0083 116.036 24.078 115.827 24.2175 115.618C24.357 115.479 24.5663 115.34 24.7755 115.34H41.8639C42.0731 115.34 42.3521 115.479 42.4219 115.688C42.5614 115.897 42.5614 116.105 42.4916 116.384C41.6546 118.331 40.2597 119.723 39.0042 120.836C38.0975 121.67 37.3302 122.436 36.9117 123.201C36.842 123.479 36.563 123.618 36.284 123.618ZM27.0075 122.157H35.8655C36.3538 121.323 37.1907 120.557 38.0277 119.792C39.0042 118.888 39.9807 117.984 40.6782 116.801H25.6822L27.0075 122.157Z" fill="black"/>
<path d="M54.5581 131.479H46.6068C46.1883 131.479 45.9093 131.131 45.9093 130.783V127.861C45.9093 127.444 46.258 127.166 46.6068 127.166C48.6295 124.592 48.0018 123.479 47.2345 122.505C47.0253 122.227 47.0253 121.809 47.3043 121.531C48.211 120.696 49.327 120.21 50.5825 120.21C53.1631 120.21 55.2556 122.296 55.2556 124.87V130.853C55.2556 131.131 54.9069 131.479 54.5581 131.479ZM47.3043 130.018H53.8606V124.731C53.8606 122.992 52.3959 121.531 50.5825 121.531C49.9547 121.531 49.327 121.74 48.769 122.088C49.885 123.896 49.4665 125.844 47.5135 128.279C47.4438 128.348 47.374 128.418 47.3043 128.418V130.018Z" fill="black"/>
<path d="M37.7487 143.235H34.8193C34.4008 143.235 34.1218 142.887 34.1218 142.539V135.931C34.1218 133.774 35.5167 131.896 37.5394 131.131C37.7487 131.061 38.0277 131.061 38.1672 131.2C38.3764 131.34 38.4462 131.548 38.4462 131.757V142.47C38.4462 142.887 38.0974 143.235 37.7487 143.235ZM35.5167 141.774H36.9815V132.939C36.0747 133.635 35.5167 134.679 35.5167 135.861V141.774Z" fill="black"/>
<path d="M34.8193 136.626C34.4008 136.626 34.1218 136.278 34.1218 135.931C34.1218 133.913 32.4478 132.244 30.4949 132.244C29.3092 132.244 28.1234 132.87 27.4259 133.844C27.2167 134.122 26.9377 134.192 26.6587 134.122C26.3797 134.052 26.1705 133.774 26.1705 133.426V122.853C26.1705 122.436 26.5192 122.157 26.868 122.157H36.3538C36.6327 122.157 36.842 122.296 36.9815 122.505C37.121 122.714 37.121 122.992 37.0512 123.201C36.7025 123.966 36.4933 125.148 38.3765 127.374C38.4462 127.514 38.516 127.653 38.516 127.792V131.757C38.516 132.035 38.3067 132.313 38.0277 132.453C36.563 133.009 35.5865 134.4 35.5865 135.931C35.5168 136.348 35.168 136.626 34.8193 136.626ZM30.4251 130.853C32.3083 130.853 33.9126 131.896 34.8193 133.357C35.3075 132.522 36.0748 131.826 37.0512 131.34V128.07C35.726 126.401 35.168 124.94 35.3773 123.618H27.4957V131.757C28.3327 131.131 29.3789 130.853 30.4251 130.853Z" fill="black"/>
<path d="M93.687 105.671H69.9028C69.6935 105.671 69.4145 105.532 69.275 105.323C69.1355 105.114 69.1355 104.836 69.2053 104.627C71.1582 100.315 68.6473 98.0886 65.2994 94.9583C64.8809 94.6105 64.4624 94.1931 64.1136 93.8453C63.9741 93.7062 63.9044 93.4975 63.9044 93.3584V82.2284C63.9044 81.811 64.2531 81.5327 64.6019 81.5327H93.687C94.1055 81.5327 94.3845 81.8805 94.3845 82.2284V104.975C94.3845 105.393 94.0357 105.671 93.687 105.671ZM70.949 104.28H92.9198V82.9935H65.2994V93.0801C65.6481 93.3584 65.9271 93.7062 66.2758 93.9844C69.4843 96.906 72.4835 99.6885 70.949 104.28Z" fill="black"/>
<path d="M74.2969 98.4364C73.8784 98.4364 73.5994 98.0886 73.5994 97.7408C73.5994 95.4453 71.7162 93.6366 69.4843 93.6366C68.2986 93.6366 67.1826 94.1236 66.4153 95.0279C66.2759 95.167 66.1364 95.2366 65.9271 95.2366C65.7179 95.2366 65.5784 95.167 65.4389 95.0279C65.0204 94.6801 64.6019 94.2627 64.1834 93.8453C64.0439 93.7062 63.9742 93.4975 63.9742 93.3584V91.8976C63.9742 88.8368 66.4851 86.4021 69.554 86.4021C72.623 86.4021 75.1339 88.9064 75.1339 91.8976V97.7408C74.9944 98.1582 74.7154 98.4364 74.2969 98.4364ZM69.4843 92.1758C71.1582 92.1758 72.623 92.8714 73.5994 93.9844V91.8976C73.5994 89.6716 71.7162 87.7934 69.4843 87.7934C67.1826 87.7934 65.3691 89.602 65.3691 91.8976V93.0801C65.5784 93.2193 65.7179 93.4279 65.8574 93.5671C66.8338 92.6628 68.1591 92.1758 69.4843 92.1758Z" fill="black"/>
<path d="M74.2969 105.74H69.9027C69.6935 105.74 69.4145 105.601 69.275 105.393C69.1355 105.184 69.1355 104.906 69.2053 104.697C71.1582 100.384 68.717 98.1582 65.2993 95.0279C65.0204 94.7496 65.0204 94.3323 65.2296 94.054C66.2758 92.8714 67.8103 92.1758 69.3448 92.1758C72.4137 92.1758 74.9246 94.6801 74.9246 97.7408V105.045C74.9944 105.393 74.7154 105.74 74.2969 105.74ZM70.949 104.28H73.5994V97.7408C73.5994 95.4452 71.7162 93.6366 69.4843 93.6366C68.5775 93.6366 67.6708 93.9844 66.9036 94.5409C69.833 97.2539 72.4137 99.9668 70.949 104.28Z" fill="black"/>
<path d="M62.5094 125.496C62.0909 125.496 61.8119 125.148 61.8119 124.801C61.8119 123.062 60.3472 121.601 58.5337 121.601C56.79 121.601 55.2556 123.062 55.2556 124.801C55.2556 125.218 54.9068 125.496 54.5581 125.496C54.2093 125.496 53.8606 125.148 53.8606 124.801C53.8606 123.27 52.7446 121.949 51.2101 121.67C50.8614 121.601 50.6522 121.323 50.6522 120.975V115.897C50.6522 115.479 51.0009 115.201 51.3496 115.201H65.7178C66.1363 115.201 66.4153 115.549 66.4153 115.897V120.975C66.4153 121.323 66.2061 121.601 65.8573 121.67C64.3229 121.949 63.2766 123.27 63.2766 124.801C63.2069 125.148 62.9279 125.496 62.5094 125.496ZM52.0471 120.349C53.0934 120.696 54.0001 121.392 54.5581 122.296C55.3951 120.975 56.8598 120.14 58.5337 120.14C60.2077 120.14 61.6724 121.044 62.5094 122.296C63.0674 121.392 63.9741 120.696 65.0203 120.349V116.592H52.0471V120.349Z" fill="black"/>
<path d="M75.0641 150.191H68.438C68.0893 150.191 67.8103 149.982 67.7405 149.634L66.2758 143.583C66.2758 143.513 66.2758 143.443 66.2758 143.443C66.2758 140.8 68.438 138.644 71.0885 138.644C73.7389 138.644 75.9011 140.8 75.9011 143.443V149.495C75.8314 149.843 75.4826 150.191 75.0641 150.191ZM68.996 148.73H74.3666V143.374C74.3666 141.565 72.8322 140.035 71.0187 140.035C69.2053 140.035 67.6708 141.565 67.6708 143.374L68.996 148.73Z" fill="black"/>
<path d="M89.0138 127.166C88.8743 127.166 88.8046 127.166 88.6651 127.096L87.9676 126.748C87.8978 126.679 87.7583 126.609 87.6886 126.54C82.4575 119.931 85.8054 116.871 89.3626 113.671C91.8735 111.375 94.8029 108.732 95.3609 104.21C95.4307 103.862 95.7097 103.584 96.0584 103.584C96.4072 103.584 96.7559 103.862 96.7559 104.21C97.0349 106.436 97.8719 108.384 99.4063 110.332C99.5458 110.471 99.6156 110.749 99.5458 110.958C98.7089 114.645 96.2677 116.871 94.1055 118.818C91.6643 120.975 89.5718 122.922 89.7113 126.54C89.7113 126.818 89.5718 127.027 89.3626 127.166C89.2928 127.166 89.1533 127.166 89.0138 127.166ZM96.1282 107.271C94.8727 110.61 92.4315 112.836 90.4088 114.714C86.9911 117.844 84.7592 119.931 88.3861 125.009C88.8046 121.67 91.0365 119.653 93.1987 117.705C95.2214 115.897 97.3139 114.018 98.1509 110.958C97.2441 109.706 96.6164 108.523 96.1282 107.271Z" fill="black"/>
<path d="M94.6635 127.166H88.6651C88.4559 127.166 88.2466 127.096 88.1071 126.888C82.4575 120.001 85.8752 116.94 89.4323 113.671C92.013 111.375 94.8727 108.732 95.4307 104.21C95.5005 103.862 95.7795 103.584 96.1282 103.584C96.4769 103.584 96.8257 103.862 96.8257 104.21C97.3837 108.732 100.313 111.375 102.824 113.671C103.033 113.81 103.103 114.088 103.033 114.366C102.336 117.357 100.453 119.097 98.7089 120.627C96.8257 122.296 95.2215 123.757 95.361 126.47C95.361 126.679 95.2912 126.818 95.1517 126.957C95.0122 127.096 94.803 127.166 94.6635 127.166ZM88.9441 125.775H93.8962C94.0357 122.853 95.9189 121.183 97.7324 119.583C99.2669 118.192 100.871 116.801 101.499 114.505C99.5459 112.697 97.2442 110.54 96.0584 107.34C94.803 110.679 92.3618 112.905 90.3391 114.784C86.8516 117.984 84.4802 120.14 88.9441 125.775Z" fill="black"/>
<path d="M86.0844 122.992H69.4843C69.275 122.992 69.0658 122.922 68.9263 122.714C68.159 121.809 66.9036 121.392 65.8573 121.601C65.6481 121.67 65.4388 121.601 65.2994 121.462C65.1599 121.322 65.0204 121.114 65.0204 120.905V119.653C65.0204 119.236 65.3691 118.957 65.7178 118.957H85.8752C86.0844 118.957 86.2936 119.027 86.4331 119.236C86.5726 119.375 86.6424 119.583 86.5726 119.792C86.4331 120.488 86.5029 121.253 86.7819 122.088C86.8516 122.296 86.7819 122.575 86.7121 122.714C86.5029 122.922 86.2936 122.992 86.0844 122.992ZM69.7633 121.601H85.1079C85.0382 121.183 84.9684 120.766 84.9684 120.418H67.8103C68.6473 120.627 69.275 121.044 69.7633 121.601Z" fill="black"/>
<path d="M86.7121 134.4H64.8809C64.6716 134.4 64.5321 134.331 64.3926 134.192C64.2531 134.052 64.1834 133.844 64.1834 133.705L64.3229 130.783C64.3229 130.366 64.6716 130.087 65.0204 130.087H69.7633V124.801C69.7633 124.662 69.7633 124.522 69.6935 124.383C69.6238 124.035 69.833 123.688 70.1817 123.549C70.5305 123.409 70.8792 123.549 71.0187 123.827L74.4364 129.461L78.6213 122.644C78.7608 122.436 79.0398 122.296 79.249 122.296C79.528 122.296 79.7373 122.436 79.8768 122.644L83.9919 129.461L86.9911 124.592C87.1306 124.383 87.3399 124.244 87.6189 124.244C87.8281 124.244 88.1071 124.383 88.2466 124.592C88.5954 125.079 88.9441 125.566 89.3626 126.053C89.5718 126.261 89.5718 126.54 89.4323 126.818C89.4323 126.818 89.4323 126.818 89.4323 126.888V132.661C89.4323 133.079 89.0836 133.357 88.7348 133.357H87.6886V133.705C87.4096 134.052 87.1306 134.4 86.7121 134.4ZM65.5784 132.939H86.0147V132.592C86.0147 132.174 86.3634 131.896 86.7121 131.896H87.7584V126.609C87.6886 126.47 87.5491 126.331 87.4794 126.261L84.4802 131.2C84.3407 131.409 84.1314 131.548 83.8525 131.548C83.5735 131.548 83.3642 131.409 83.2247 131.2L79.1096 124.383L74.9246 131.2C74.6457 131.618 73.9482 131.618 73.6692 131.2L71.0187 126.888V130.783C71.0187 131.2 70.67 131.479 70.3212 131.479H65.5784V132.939Z" fill="black"/>
<path d="M85.9449 150.191H68.4381C68.0893 150.191 67.8103 149.982 67.7406 149.634L66.0666 142.887L65.2994 146.087C65.2296 146.435 64.8809 146.643 64.5321 146.643C64.1834 146.574 63.9044 146.295 63.9044 145.948V130.783C63.9044 130.366 64.2531 130.087 64.6019 130.087H69.6935V124.801C69.6935 123.062 68.2288 121.601 66.4153 121.601C66.2061 121.601 65.9969 121.601 65.7876 121.67C65.5784 121.74 65.3691 121.67 65.2296 121.531C65.0901 121.392 64.9506 121.183 64.9506 120.975V115.897C64.9506 115.618 65.1599 115.34 65.4389 115.201L66.5548 109.775H64.5321C64.1136 109.775 63.8347 109.427 63.8347 109.08C63.8347 108.732 64.1834 108.314 64.5321 108.314H66.9733C68.0196 107.062 68.717 105.88 69.2053 104.767C69.3448 104.488 69.554 104.349 69.833 104.349H93.6173C94.0358 104.349 94.3147 104.697 94.3147 105.045V110.332C94.3147 110.471 94.245 110.61 94.1752 110.749C92.9895 112.349 91.5946 113.671 90.2693 114.784C86.6424 118.053 84.271 120.279 89.0836 126.053C89.2929 126.261 89.2929 126.54 89.1534 126.818C89.1534 126.818 89.1534 126.818 89.1534 126.888V132.661C89.1534 133.079 88.8046 133.357 88.4559 133.357H87.4096V135.374H88.4559C88.8744 135.374 89.1534 135.722 89.1534 136.07V141.078C89.1534 141.426 88.9441 141.704 88.5954 141.774C87.4096 142.052 86.5727 143.165 86.5727 144.348V149.426C86.6424 149.843 86.2937 150.191 85.9449 150.191ZM68.996 148.73H85.2474V144.348C85.2474 142.678 86.2937 141.148 87.8281 140.522V136.765H86.7819C86.3634 136.765 86.0844 136.418 86.0844 136.07V132.592C86.0844 132.174 86.4332 131.896 86.7819 131.896H87.8281V126.609C82.5272 119.931 85.8752 116.871 89.4323 113.671C90.6878 112.558 91.9433 111.375 92.9895 109.984V105.671H70.391C69.9028 106.714 69.1355 107.827 68.2288 109.01C68.2288 109.08 68.2288 109.08 68.2288 109.149L66.7641 115.966C66.6943 116.175 66.6246 116.314 66.4153 116.453V120.07C68.996 120.07 71.0885 122.157 71.0885 124.731V130.713C71.0885 131.131 70.7398 131.409 70.391 131.409H65.2994V139.965L65.3691 139.687C65.5086 139.061 66.6246 139.061 66.7641 139.687L68.996 148.73Z" fill="black"/>
<path d="M103.731 150.191H92.7105C92.292 150.191 92.013 149.843 92.013 149.495V144.417C92.013 142.956 90.8273 141.704 89.2928 141.704C89.0836 141.704 88.9441 141.704 88.6651 141.774C88.4558 141.843 88.2466 141.774 88.0374 141.635C87.8979 141.496 87.7584 141.287 87.7584 141.078V136.07C87.7584 135.652 88.1071 135.374 88.4558 135.374H103.661C104.08 135.374 104.358 135.722 104.358 136.07V149.426C104.428 149.843 104.149 150.191 103.731 150.191ZM93.408 148.73H102.964V136.765H89.1533V140.244C91.455 140.244 93.3382 142.052 93.3382 144.348V148.73H93.408Z" fill="black"/>
<path d="M90.6878 141.983C90.6181 141.983 90.4786 141.983 90.4088 141.913C90.3391 141.913 90.3391 141.913 90.2693 141.843C90.1298 141.774 89.9903 141.774 89.8508 141.704C89.4323 141.635 89.2231 141.217 89.2928 140.87C89.3626 140.452 89.7811 140.244 90.1298 140.313C90.3391 140.383 90.5483 140.452 90.7576 140.522C90.8273 140.522 90.8971 140.591 90.8971 140.591C91.2458 140.73 91.4551 141.148 91.2458 141.565C91.1761 141.774 90.9668 141.983 90.6878 141.983Z" fill="black"/>
<path d="M89.9904 141.774C89.9206 141.774 89.9206 141.774 89.8509 141.774C89.6416 141.704 89.5021 141.704 89.2929 141.704C88.8744 141.704 88.5954 141.356 88.5954 141.009C88.5954 140.661 88.9441 140.313 89.2929 140.313C89.5719 140.313 89.8509 140.313 90.1299 140.383C90.5484 140.452 90.7576 140.87 90.6879 141.217C90.6181 141.496 90.3391 141.774 89.9904 141.774Z" fill="black"/>
<path d="M85.9449 150.191H83.155C82.7365 150.191 82.4575 149.843 82.4575 149.495V143.374C82.4575 140.73 84.6197 138.574 87.2702 138.574C87.7584 138.574 88.2466 138.644 88.7349 138.852C89.0139 138.922 89.2231 139.2 89.2231 139.548V141.009C89.2231 141.357 89.0139 141.635 88.6651 141.704C87.4794 141.983 86.6424 143.096 86.6424 144.278V149.356C86.6424 149.843 86.2937 150.191 85.9449 150.191ZM83.9222 148.73H85.2475V144.348C85.2475 142.678 86.2937 141.148 87.8282 140.522V140.104C87.6189 140.035 87.4794 140.035 87.2702 140.035C85.4567 140.035 83.9222 141.565 83.9222 143.374V148.73Z" fill="black"/>
<path d="M92.7105 145.043C92.292 145.043 92.013 144.696 92.013 144.348C92.013 142.887 90.8273 141.704 89.3626 141.635C89.1533 141.635 88.9441 141.565 88.8046 141.426C88.6651 141.287 88.5954 141.078 88.5954 140.87C88.8046 138.783 90.5483 137.183 92.7105 137.183C94.8727 137.183 96.5467 138.783 96.8257 140.87C96.8257 141.078 96.7559 141.287 96.6164 141.426C96.4769 141.565 96.2677 141.635 96.0585 141.635C94.5937 141.635 93.408 142.887 93.408 144.348C93.408 144.765 93.129 145.043 92.7105 145.043ZM90.1996 140.313C91.2458 140.522 92.1525 141.148 92.7105 141.983C93.2685 141.148 94.1752 140.522 95.2215 140.313C94.803 139.27 93.8265 138.574 92.7105 138.574C91.5945 138.574 90.6181 139.339 90.1996 140.313Z" fill="black"/>
<path d="M99.5459 145.043C99.1274 145.043 98.8484 144.696 98.8484 144.348C98.8484 142.887 97.6627 141.704 96.198 141.635C95.9887 141.635 95.7795 141.565 95.64 141.426C95.5005 141.287 95.4307 141.078 95.4307 140.87C95.64 138.783 97.3837 137.183 99.5459 137.183C101.638 137.183 103.382 138.783 103.661 140.87C103.661 141.078 103.591 141.287 103.452 141.426C103.312 141.565 103.103 141.635 102.894 141.635C101.429 141.635 100.243 142.887 100.243 144.348C100.243 144.765 99.8946 145.043 99.5459 145.043ZM97.0349 140.313C98.0812 140.522 98.9879 141.148 99.5459 141.983C100.104 141.148 101.011 140.522 102.057 140.313C101.638 139.27 100.662 138.574 99.5459 138.574C98.3602 138.644 97.3837 139.339 97.0349 140.313Z" fill="black"/>
<path d="M115.728 121.462C115.309 121.462 115.03 121.183 114.96 120.766C114.891 119.027 113.426 117.566 111.682 117.566C110.566 117.566 109.52 118.123 108.892 119.097C108.753 119.375 108.404 119.514 108.055 119.375C107.776 119.305 107.567 119.027 107.567 118.679V107.967C107.567 107.549 107.916 107.271 108.264 107.271H122.981C123.4 107.271 123.679 107.619 123.679 107.967V118.749C123.679 119.097 123.47 119.375 123.191 119.444C122.912 119.514 122.563 119.444 122.354 119.166C121.726 118.192 120.68 117.636 119.564 117.636C117.82 117.636 116.355 119.097 116.286 120.836C116.425 121.183 116.146 121.462 115.728 121.462ZM111.752 116.175C113.426 116.175 114.891 117.079 115.728 118.47C116.565 117.149 118.099 116.175 119.773 116.175C120.749 116.175 121.656 116.453 122.423 117.01V108.732H109.101V117.01C109.869 116.453 110.775 116.175 111.752 116.175Z" fill="black"/>
<path d="M103.661 127.166H88.5953C88.3861 127.166 88.1769 127.096 88.0374 126.888C82.3877 120.001 85.8054 116.94 89.3626 113.671C91.9433 111.375 94.803 108.732 95.3609 104.21C95.4307 103.862 95.7097 103.584 96.0584 103.584C96.4072 103.584 96.7559 103.862 96.7559 104.21C97.3139 108.732 100.243 111.375 102.754 113.74C105.056 115.827 107.218 117.844 107.079 120.836C107.079 121.114 106.869 121.392 106.59 121.462C105.265 121.949 104.289 123.131 104.289 124.522V126.47C104.289 126.609 104.219 126.818 104.149 126.888C104.149 127.027 103.87 127.166 103.661 127.166ZM88.9441 125.775H103.033V124.453C103.033 122.644 104.149 120.975 105.753 120.21C105.614 118.123 103.94 116.592 101.848 114.714C99.8249 112.836 97.3139 110.61 96.0584 107.271C94.803 110.61 92.3618 112.836 90.3391 114.714C86.8516 117.984 84.4802 120.14 88.9441 125.775Z" fill="black"/>
<path d="M111.752 125.218C111.333 125.218 111.054 124.87 111.054 124.522C111.054 122.714 109.59 121.323 107.776 121.253C107.567 121.253 107.358 121.183 107.218 121.044C107.079 120.905 107.009 120.696 107.009 120.488C107.218 118.053 109.241 116.244 111.682 116.244C114.054 116.244 116.076 118.123 116.355 120.488C116.355 120.696 116.286 120.905 116.146 121.044C116.007 121.183 115.797 121.253 115.588 121.253C113.775 121.253 112.38 122.714 112.38 124.522C112.449 124.87 112.17 125.218 111.752 125.218ZM108.613 119.862C109.938 120.14 111.054 120.905 111.752 122.018C112.449 120.905 113.565 120.14 114.821 119.862C114.402 118.54 113.147 117.566 111.752 117.566C110.357 117.566 109.101 118.54 108.613 119.862Z" fill="black"/>
<path d="M119.773 125.218C119.354 125.218 119.075 124.87 119.075 124.522C119.075 122.714 117.611 121.323 115.797 121.253C115.588 121.253 115.379 121.183 115.239 121.044C115.1 120.905 115.03 120.696 115.03 120.488C115.309 118.123 117.332 116.244 119.703 116.244C122.075 116.244 124.167 118.123 124.376 120.488C124.376 120.696 124.307 120.905 124.167 121.044C124.028 121.183 123.818 121.253 123.609 121.253C121.796 121.253 120.331 122.714 120.331 124.522C120.47 124.87 120.191 125.218 119.773 125.218ZM116.634 119.862C117.959 120.14 119.075 120.905 119.773 122.018C120.47 120.905 121.586 120.14 122.912 119.862C122.493 118.54 121.238 117.566 119.773 117.566C118.378 117.566 117.122 118.54 116.634 119.862Z" fill="black"/>
<path d="M103.731 136.765H86.7121C86.2936 136.765 86.0146 136.418 86.0146 136.07V132.592C86.0146 132.174 86.3634 131.896 86.7121 131.896H103.731C104.149 131.896 104.428 132.244 104.428 132.592V136.07C104.428 136.487 104.149 136.765 103.731 136.765ZM87.4096 135.374H102.964V133.357H87.4096V135.374Z" fill="black"/>
<path d="M103.731 150.191H99.5459C99.1274 150.191 98.8484 149.843 98.8484 149.495V144.417C98.8484 142.122 100.732 140.313 102.964 140.313C103.243 140.313 103.591 140.383 103.94 140.452C104.289 140.522 104.498 140.8 104.498 141.148V149.565C104.428 149.843 104.149 150.191 103.731 150.191ZM100.243 148.73H103.033V141.635C101.499 141.565 100.243 142.817 100.243 144.348V148.73Z" fill="black"/>
</svg>
