<svg width="150" height="188" viewBox="0 0 150 188" fill="none" xmlns="http://www.w3.org/2000/svg">
<path d="M91.716 52.9433H57.2448L74.4807 20.5951L91.716 52.9433ZM60.9834 50.6992H87.9773L74.4807 25.3681L60.9834 50.6992Z" fill="black"/>
<path d="M86.8498 61.9315H62.5438V50.6992H86.8498V61.9315ZM64.7879 59.6874H84.6057V52.9432H64.7879V59.6874Z" fill="black"/>
<path d="M103 91.0593H46.3938V82.9114L46.6387 82.6035C48.227 80.6126 50.0311 78.5843 51.776 76.622C56.4724 71.3416 61.3281 65.8816 62.5733 60.5541L62.7756 59.6874H86.6285L86.8229 60.5662C88.0074 65.9079 92.9405 71.4315 97.7112 76.7721C99.4165 78.6819 101.181 80.6554 102.75 82.5981L103 82.9071V91.0593ZM48.6379 88.8152H100.756V83.7025C99.2821 81.9001 97.6345 80.0548 96.0375 78.2666C91.3209 72.9874 86.4521 67.5361 84.8551 61.9315H64.5292C62.8873 67.5044 58.0952 72.8932 53.4531 78.1132C51.8177 79.9519 50.1303 81.8496 48.6379 83.6981V88.8152Z" fill="black"/>
<path d="M103 143.69H46.3938V98.0435H103V143.69ZM48.6379 141.447H100.756V100.288H48.6379V141.447Z" fill="black"/>
<path d="M98.2416 100.288H83.7407V88.8152H98.2416V100.288ZM85.9847 98.0435H95.9975V91.0593H85.9847V98.0435Z" fill="black"/>
<path d="M64.7879 100.288H50.287V88.8152H64.7879V100.288ZM52.531 98.0435H62.5438V91.0593H52.531V98.0435Z" fill="black"/>
<path d="M74.6965 138.284C65.093 138.284 57.2805 130.47 57.2805 120.867C57.2805 111.263 65.093 103.451 74.6965 103.451C84.3 103.451 92.1131 111.263 92.1131 120.867C92.1131 130.47 84.3001 138.284 74.6965 138.284ZM74.6965 105.695C66.3306 105.695 59.5245 112.502 59.5245 120.867C59.5245 129.233 66.3306 136.039 74.6965 136.039C83.063 136.039 89.8691 129.233 89.8691 120.867C89.8691 112.502 83.063 105.695 74.6965 105.695Z" fill="black"/>
<path d="M80.8732 123.142H72.4213V110.413H74.6653V120.899H80.8732V123.142Z" fill="black"/>
<path d="M76.1983 142.569H73.9542V159.681H76.1983V142.569Z" fill="black"/>
<path d="M64.6624 142.569H62.4184V163.14H64.6624V142.569Z" fill="black"/>
<path d="M53.1265 142.569H50.8825V166.601H53.1265V142.569Z" fill="black"/>
<path d="M87.7341 142.569H85.49V163.14H87.7341V142.569Z" fill="black"/>
<path d="M99.2697 142.569H97.0253V166.601H99.2697V142.569Z" fill="black"/>
</svg>
