<svg xmlns="http://www.w3.org/2000/svg" xmlns:xlink="http://www.w3.org/1999/xlink" version="1.1" x="0px" y="0px" viewBox="0 0 150 187.5" enable-background="new 0 0 150 150" xml:space="preserve"><g><g><g><path d="M128.6649323,112.4695435H19.5013065l54.2383499-63.1639633L128.6649323,112.4695435z M24.6266251,110.114975h98.8704529     L73.751152,52.9064102L24.6266251,110.114975z"/></g><g><rect x="33.4692955" y="80.3489075" transform="matrix(0.2734311 -0.9618916 0.9618916 0.2734311 -31.1230717 121.8491516)" width="63.2522545" height="2.35462"/></g><g><rect x="69.1357193" y="66.1404877" width="8.9710302" height="2.3545649"/></g><g><rect x="59.5404091" y="98.4145813" width="15.077033" height="2.3545649"/></g><g><rect x="83.9638443" y="94.9252777" width="8.9716053" height="2.3545649"/></g><g><rect x="73.4970703" y="77.4798813" width="17.6937275" height="2.3545649"/></g><g><rect x="78.7304535" y="103.6479721" width="20.310421" height="2.3545649"/></g><g><rect x="63.9017563" y="86.2025757" width="24.6723442" height="2.3545649"/></g><g><rect x="47.9845314" y="103.4178696" transform="matrix(0.8973373 -0.4413454 0.4413454 0.8973373 -40.6251297 34.5438232)" width="11.909173" height="2.3548894"/></g><g><rect x="35.0682335" y="97.0503387" transform="matrix(0.8954015 -0.4452596 0.4452596 0.8954015 -38.5737648 32.2529602)" width="28.5856361" height="2.3548443"/></g><g><rect x="41.9871635" y="85.9097977" transform="matrix(0.8904874 -0.4550078 0.4550078 0.8904874 -33.688694 34.2031975)" width="24.4459896" height="2.3549287"/></g><g><rect x="53.6616898" y="73.7023392" transform="matrix(0.9002087 -0.4354588 0.4354588 0.9002087 -26.503624 34.106041)" width="15.0012836" height="2.3550408"/></g><g><rect x="65.0594406" y="61.6058807" transform="matrix(0.8977238 -0.4405587 0.4405587 0.8977238 -20.6958771 36.4173431)" width="6.0543752" height="2.3538754"/></g></g><g><g><polygon points="152.9193726,95.6921158 111.5782471,95.6921158 111.5782471,93.3375549 147.7515106,93.3375549      114.7214966,55.352951 96.5730667,76.4877014 94.7864532,74.95401 114.7099991,51.752121    "/></g><g><rect x="92.5061035" y="69.1497726" transform="matrix(0.2734311 -0.9618916 0.9618916 0.2734311 12.236083 156.853302)" width="34.8791656" height="2.35462"/></g><g><rect x="111.5782471" y="63.4088249" width="6.1060028" height="2.3545649"/></g><g><rect x="105.0480042" y="85.3736496" width="10.2615576" height="2.3545649"/></g><g><rect x="121.6707993" y="82.9995422" width="6.1054282" height="2.3545649"/></g><g><rect x="114.5467453" y="71.1255417" width="12.0424271" height="2.3545649"/></g><g><rect x="118.1084824" y="88.9365387" width="13.8238716" height="2.3545649"/></g><g><rect x="108.01651" y="77.0625458" width="16.7917957" height="2.3545649"/></g><g><rect x="102.0200119" y="81.2418442" transform="matrix(0.8952068 -0.4456509 0.4456509 0.8952068 -25.7734375 55.2330971)" width="5.0747371" height="2.3553567"/></g><g><rect x="98.1165543" y="75.6562881" transform="matrix(0.8904874 -0.4550078 0.4550078 0.8904874 -23.5944424 55.6362381)" width="11.3324404" height="2.3549287"/></g><g><rect x="101.04673" y="68.5546036" transform="matrix(0.9002087 -0.4354588 0.4354588 0.9002087 -19.7724457 53.1833649)" width="10.2099619" height="2.3550408"/></g><g><rect x="108.8045425" y="60.3222542" transform="matrix(0.8977238 -0.4405587 0.4405587 0.8977238 -15.7551966 55.1322556)" width="4.1200609" height="2.3538754"/></g></g><g><g><polygon points="41.2229729,89.4906921 -2.9193702,89.4906921 41.6989441,37.5304565 63.7252769,62.8615723      61.9490089,64.4067535 41.7104416,41.1312866 2.2059474,87.1361237 41.2229729,87.1361237    "/></g><g><rect x="8.9259872" y="62.910984" transform="matrix(0.2734311 -0.9618916 0.9618916 0.2734311 -36.4595871 79.9083939)" width="51.4777336" height="2.35462"/></g><g><rect x="37.9526787" y="51.3474312" width="7.3011055" height="2.3545649"/></g><g><rect x="30.1439857" y="77.6132431" width="12.2700653" height="2.3545649"/></g><g><rect x="41.502346" y="60.5759888" width="14.3998661" height="2.3545649"/></g><g><rect x="33.6936531" y="67.6741791" width="20.0787582" height="2.3545649"/></g><g><rect x="20.7391376" y="81.684967" transform="matrix(0.8975306 -0.4409522 0.4409522 0.8975306 -33.9165497 19.7726765)" width="9.6920805" height="2.3543823"/></g><g><rect x="10.2272701" y="76.5030823" transform="matrix(0.8954015 -0.4452596 0.4452596 0.8954015 -32.3015404 17.8583374)" width="23.264101" height="2.3548443"/></g><g><rect x="15.8581505" y="67.4365845" transform="matrix(0.8904874 -0.4550078 0.4550078 0.8904874 -28.393856 19.2559948)" width="19.8955364" height="2.3549287"/></g><g><rect x="25.359499" y="57.5009079" transform="matrix(0.9002087 -0.4354588 0.4354588 0.9002087 -22.4122219 19.5568027)" width="12.208662" height="2.3550408"/></g><g><rect x="34.6359253" y="47.6566963" transform="matrix(0.8977238 -0.4405587 0.4405587 0.8977238 -17.7197037 21.3389473)" width="4.9267969" height="2.3538754"/></g></g></g><text x="0" y="165" fill="#000000" font-size="5px" font-weight="bold" font-family="'Helvetica Neue', Helvetica, Arial-Unicode, Arial, Sans-serif">Created by DinosoftLabs</text><text x="0" y="170" fill="#000000" font-size="5px" font-weight="bold" font-family="'Helvetica Neue', Helvetica, Arial-Unicode, Arial, Sans-serif">from the Noun Project</text></svg>