<svg width="150" height="188" viewBox="0 0 150 188" fill="none" xmlns="http://www.w3.org/2000/svg">
<path d="M16.0266 60.564V36.0009L17.098 36.2092C55.2438 43.6188 93.8725 43.6179 131.907 36.2092L132.979 36V60.564L131.922 60.376C93.8198 53.6088 55.1832 53.6088 17.0839 60.376L16.0266 60.564ZM74.5031 53.5006C93.4372 53.5006 112.373 55.1406 131.18 58.4179V38.1822C93.6147 45.3607 55.4935 45.3598 17.8265 38.1822V58.4179C36.6332 55.1406 55.569 53.5006 74.5031 53.5006Z" fill="black"/>
<path d="M132.979 73.6177H16.0266V63.3781H132.979V73.6177ZM17.8265 71.8178H131.18V65.178H17.8265V71.8178Z" fill="black"/>
<path d="M133.02 152.82H16.0671V144.528H133.02V152.82ZM17.867 151.021H131.22V146.328H17.867V151.021Z" fill="black"/>
<path d="M46.189 56.3253H44.3891V64.2781H46.189V56.3253Z" fill="black"/>
<path d="M104.617 56.3253H102.817V64.2781H104.617V56.3253Z" fill="black"/>
<path d="M44.2819 80.1098H26.9008V71.8178H44.2819V80.1098ZM28.7006 78.3099H42.482V73.6177H28.7006V78.3099Z" fill="black"/>
<path d="M39.5747 146.328H31.6079V78.3099H39.5747V146.328ZM33.4078 144.528H37.7748V80.1098H33.4078V144.528Z" fill="black"/>
<path d="M83.2337 80.1098H65.8534V71.8178H83.2337V80.1098ZM67.6533 78.3099H81.4338V73.6177H67.6533V78.3099Z" fill="black"/>
<path d="M78.5274 146.328H70.5597V78.3099H78.5274V146.328ZM72.3596 144.528H76.7275V80.1098H72.3596V144.528Z" fill="black"/>
<path d="M122.186 80.1098H104.805V71.8178H122.186V80.1098ZM106.605 78.3099H120.387V73.6177H106.605V78.3099Z" fill="black"/>
<path d="M117.479 146.328H109.512V78.3099H117.479V146.328ZM111.312 144.528H115.679V80.1098H111.312V144.528Z" fill="black"/>
</svg>
