<svg xmlns="http://www.w3.org/2000/svg" xmlns:xlink="http://www.w3.org/1999/xlink" version="1.1" x="0px" y="0px" viewBox="0 0 150 187.5" enable-background="new 0 0 150 150" xml:space="preserve"><g><g><path d="M139.6611328,111.1147461h-130V76.1762695h130V111.1147461z M11.6611328,109.1147461h126V78.1762695h-126V109.1147461z"/></g><g><path d="M81.5917969,111.1147461H67.7304688V96.6210938c0-3.7446289,3.046875-6.7915039,6.7919922-6.7915039h0.2783203    c3.7441406,0,6.7910156,3.046875,6.7910156,6.7915039V111.1147461z M69.7304688,109.1147461h9.8613281V96.6210938    c0-2.6420898-2.1494141-4.7915039-4.7910156-4.7915039h-0.2783203c-2.6425781,0-4.7919922,2.1494141-4.7919922,4.7915039    V109.1147461z"/></g><g><path d="M43.7041016,111.1147461H31.890625v-11.675293c0-3.1933594,2.5986328-5.7915039,5.7919922-5.7915039h0.2294922    c3.1933594,0,5.7919922,2.5981445,5.7919922,5.7915039V111.1147461z M33.890625,109.1147461h7.8134766v-9.675293    c0-2.0908203-1.7011719-3.7915039-3.7919922-3.7915039h-0.2294922c-2.0908203,0-3.7919922,1.7006836-3.7919922,3.7915039    V109.1147461z"/></g><g><path d="M116.4082031,111.1147461h-11.8134766v-11.675293c0-3.1933594,2.5986328-5.7915039,5.7919922-5.7915039h0.2294922    c3.1933594,0,5.7919922,2.5981445,5.7919922,5.7915039V111.1147461z M106.5947266,109.1147461h7.8134766v-9.675293    c0-2.0908203-1.7011719-3.7915039-3.7919922-3.7915039h-0.2294922c-2.0908203,0-3.7919922,1.7006836-3.7919922,3.7915039    V109.1147461z"/></g><g><path d="M130.6796875,66.6132813H19.8476353l-0.1845493-0.0771484c-3.4433594-1.4350586-6.2001953-5.4755859-8.6660156-9.6279297    l-0.8974609-1.5107422h130.2392578l-0.7978516,1.4755859c-2.0507813,3.7939453-4.6845703,7.9077148-8.6699219,9.6557617    L130.6796875,66.6132813z M20.2558594,64.6132813h109.9980469c2.8564453-1.3359375,4.9853516-4.2490234,6.7041016-7.2158203    H13.6328125C15.6289063,60.605957,17.8046875,63.5,20.2558594,64.6132813z"/></g><g><path d="M121.859375,57.3974609H28.6689453l-0.2099609-0.1040039c-2.6621094-1.3208008-5.1279297-4.2285156-7.328125-8.6416016    l-0.8271484-1.6572266l1.8388672,0.2177734c5.6982422,0.6748047,11.4970703,1.0170898,17.2363281,1.0170898h71.6347656    c5.0898438,0,10.2373047-0.2695313,15.2978516-0.8007813L130.125,47.0288086l-0.7226563,1.590332    c-1.8828125,4.1474609-4.4160156,7.144043-7.3251953,8.6645508L121.859375,57.3974609z M29.1464844,55.3974609h92.2158203    c2.4453125-1.3598633,4.2216797-3.7861328,5.4257813-6.0078125l-0.2675781,0.0283203    c-5.1298828,0.5385742-10.3476563,0.8115234-15.5068359,0.8115234H39.3789063    c-5.1826172,0-10.4140625-0.2753906-15.5791016-0.8193359C25.4824219,52.3583984,27.3085938,54.4077148,29.1464844,55.3974609z"/></g><g><path d="M120.4716797,49.9013672c-4.1455078-0.9575195-7.3066406-5.472168-9.390625-9.0161133H36.8925781    c-1.9853516,3.4853516-5.2099609,7.6386719-9.7060547,8.7866211l-0.4941406-1.9375    c4.0244141-1.027832,6.9707031-5.0961914,8.734375-8.328125l0.2841797-0.5209961h76.5234375l0.2880859,0.5009766    c1.8896484,3.28125,4.8164063,7.7392578,8.3984375,8.5668945L120.4716797,49.9013672z"/></g><g><path d="M90.3388672,77.4506836H58.984375V64.6132813h31.3544922V77.4506836z M60.984375,75.4506836h27.3544922v-8.8374023    H60.984375V75.4506836z"/></g><g><path d="M115.9384766,78.1762695H33.3837891V64.6132813h82.5546875V78.1762695z M35.3837891,76.1762695h78.5546875v-9.5629883    H35.3837891V76.1762695z"/></g></g><text x="0" y="165" fill="#000000" font-size="5px" font-weight="bold" font-family="'Helvetica Neue', Helvetica, Arial-Unicode, Arial, Sans-serif">Created by DinosoftLabs</text><text x="0" y="170" fill="#000000" font-size="5px" font-weight="bold" font-family="'Helvetica Neue', Helvetica, Arial-Unicode, Arial, Sans-serif">from the Noun Project</text></svg>