<svg width="150" height="188" viewBox="0 0 150 188" fill="none" xmlns="http://www.w3.org/2000/svg">
<path d="M111.476 162.141L95.6107 152.027L112.146 126.085L128.012 136.197L121.994 145.64L120.189 144.492L125.06 136.85L112.8 129.037L98.5635 151.373L110.823 159.187L116.149 150.83L117.953 151.979L111.476 162.141Z" fill="black"/>
<path d="M120.99 156.313L112.474 148.718L116.882 141.447L126.225 146.915L120.99 156.313ZM115.225 148.307L120.42 152.941L123.339 147.702L117.619 144.356L115.225 148.307Z" fill="black"/>
<path d="M45.6229 163.482H43.4845V148.524L46.3673 142.443L48.2989 143.359L45.6229 149.005V163.482Z" fill="black"/>
<path d="M43.8719 149.588L36.1401 143.191L45.8129 123.082L47.7404 124.01L38.7921 142.611L45.2355 147.94L43.8719 149.588Z" fill="black"/>
<path d="M97.3168 127.202L95.1784 127.208L95.2713 160.667L97.4101 160.661L97.3168 127.202Z" fill="black"/>
<path d="M70.209 159.526L68.3693 158.436L90.6939 120.786L91.5386 121.113C96.2205 122.928 99.4299 130.618 102.827 138.759C103.253 139.78 103.681 140.802 104.109 141.809L102.142 142.646C101.71 141.635 101.283 140.609 100.854 139.583C97.9959 132.732 95.0458 125.663 91.5657 123.51L70.209 159.526Z" fill="black"/>
<path d="M45.3034 159.003L43.804 157.478L83.9488 117.987L84.3821 117.984C84.4259 117.984 84.4698 117.984 84.5126 117.984C88.5972 117.984 91.1659 119.239 92.1463 121.717L90.1582 122.504C89.5537 120.976 87.7599 120.177 84.8248 120.124L45.3034 159.003Z" fill="black"/>
<path d="M40.7676 134.308L30.3931 105.476L49.2836 86.8878L63.0066 113.383C63.0996 113.561 63.2394 113.709 63.4128 113.811L69.996 117.682C70.3302 117.879 70.7112 117.983 71.0987 117.983L84.3894 117.984V120.123L71.0987 120.122C70.3291 120.122 69.5732 119.916 68.9112 119.525L62.329 115.655C61.8079 115.349 61.3861 114.903 61.1084 114.366L48.7177 90.4442L32.8678 106.04L42.7807 133.584L40.7676 134.308Z" fill="black"/>
<path d="M52.8447 96.7543L46.0358 103.323L47.5205 104.862L54.3294 98.2933L52.8447 96.7543Z" fill="black"/>
<path d="M87.8194 120.122H70.3521L70.6893 118.789C72.1198 113.147 70.6935 107.466 69.2453 103.694L71.2417 102.928C72.6888 106.697 74.1109 112.256 73.0533 117.983H84.6556C82.9193 112.892 83.3066 107.819 85.8011 103.226L87.6805 104.248C85.23 108.758 85.0649 113.6 87.1918 118.637L87.8194 120.122Z" fill="black"/>
<path d="M78.6456 109.375C71.415 109.375 65.5334 100.999 65.5334 90.7041C65.5334 80.409 71.415 72.033 78.6456 72.033C85.8762 72.033 91.7589 80.409 91.7589 90.7041C91.7589 100.999 85.8762 109.375 78.6456 109.375ZM78.6456 74.1713C72.5949 74.1713 67.6718 81.5878 67.6718 90.7041C67.6718 99.8205 72.5949 107.237 78.6456 107.237C84.6974 107.237 89.6205 99.8205 89.6205 90.7041C89.6205 81.5878 84.6974 74.1713 78.6456 74.1713Z" fill="black"/>
<path d="M99.8504 82.9097L90.4021 85.5544L90.9784 87.6134L100.427 84.9687L99.8504 82.9097Z" fill="black"/>
<path d="M93.7729 67.9534L85.9338 76.9708L87.548 78.374L95.3871 69.3567L93.7729 67.9534Z" fill="black"/>
<path d="M79.1989 61.7847L78.5455 73.1022L80.6798 73.2254L81.3331 61.908L79.1989 61.7847Z" fill="black"/>
<path d="M61.1375 67.7718L59.9307 69.5385L71.1227 77.1836L72.3296 75.417L61.1375 67.7718Z" fill="black"/>
<path d="M56.5777 82.9315L55.8744 84.951L66.251 88.5648L66.9543 86.5452L56.5777 82.9315Z" fill="black"/>
<path d="M67.5162 87.0684L66.5181 85.1765C72.7588 81.8822 76.4885 77.7391 77.6036 72.864L79.6877 73.3402C78.4274 78.8501 74.3324 83.4693 67.5162 87.0684Z" fill="black"/>
<path d="M90.0173 87.1603C84.0135 85.6714 79.9591 81.1743 77.6214 73.4101L79.6699 72.7941C81.7708 79.7731 85.3239 83.793 90.531 85.0846L90.0173 87.1603Z" fill="black"/>
<path d="M32.6819 60.6808L30.5791 61.0678L37.5737 99.069L39.6764 98.682L32.6819 60.6808Z" fill="black"/>
<path d="M34.813 48.6561L32.7998 49.3761L47.2453 89.7631L49.2586 89.0431L34.813 48.6561Z" fill="black"/>
<path d="M34.8756 61.9435H26.2532V43.0363H34.8756V61.9435ZM28.3916 59.8051H32.7373V45.1747H28.3916V59.8051Z" fill="black"/>
<path d="M39.2307 45.1747H21.3896V36.2505H39.2307V45.1747ZM23.528 43.0363H37.0923V38.3889H23.528V43.0363Z" fill="black"/>
<path d="M33.227 38.3889H28.2412L26.4234 34.8159C24.5878 30.2687 29.8899 25.971 30.1164 25.7904L31.1073 25L31.7192 26.1089C36.9378 35.5541 34.1009 37.871 33.4785 38.2396L33.227 38.3889ZM29.5516 36.2505H32.4657C32.7028 35.7253 33.228 33.7039 30.4934 28.3558C29.3072 29.5827 27.5375 31.8683 28.3686 33.9315L29.5516 36.2505Z" fill="black"/>
</svg>
