<svg xmlns="http://www.w3.org/2000/svg" xmlns:xlink="http://www.w3.org/1999/xlink" version="1.1" x="0px" y="0px" viewBox="0 0 150 187.5" enable-background="new 0 0 150 150" xml:space="preserve"><g><g><path d="M121.9550781,135.8952637H28.0361328l19.6025391-26.5649414h54.7128906L121.9550781,135.8952637z M31.9970703,133.8952637    h85.9970703l-16.6523438-22.5649414H48.6484375L31.9970703,133.8952637z"/></g><g><rect x="51.8867188" y="117.4460449" width="2" height="11.0117188"/></g><g><rect x="63.0683594" y="117.4460449" width="2" height="11.0117188"/></g><g><rect x="74.2490234" y="117.4460449" width="2" height="11.0117188"/></g><g><rect x="85.4306641" y="117.4460449" width="2" height="11.0117188"/></g><g><rect x="85.4306641" y="117.4460449" width="2" height="11.0117188"/></g><g><rect x="63.0683594" y="94.0671387" width="2" height="11.0117188"/></g><g><rect x="74.2490234" y="94.0671387" width="2" height="11.0117188"/></g><g><rect x="85.4306641" y="94.0671387" width="2" height="11.0117188"/></g><g><rect x="96.6113281" y="117.4460449" width="2" height="11.0117188"/></g><g><path d="M102.9316406,111.3303223H47.5673828v-6.9101563l8.9355469-17.9604492h38.0195313l8.4091797,18.0595703V111.3303223z     M49.5673828,109.3303223h51.3642578v-4.3686523l-7.6845703-16.5019531H57.7412109l-8.1738281,16.4301758V109.3303223z"/></g><g><polygon points="87.5996094,88.4597168 63.5761719,88.4597168 63.5761719,49.6809082 65.5761719,49.6809082     65.5761719,86.4597168 85.5996094,86.4597168 85.5996094,49.6809082 87.5996094,49.6809082   "/></g><g><path d="M80.5908203,67.0881348h-2V29.2883301c0-1.6557617-1.3466797-3.0024414-3.0029297-3.0024414    c-1.6552734,0-3.0019531,1.3466797-3.0019531,3.0024414v37.7998047h-2V29.2883301    c0-2.7583008,2.2441406-5.0024414,5.0019531-5.0024414c2.7587891,0,5.0029297,2.2441406,5.0029297,5.0024414V67.0881348z"/></g><g><path d="M85.65625,77.0930176c-0.0537109-5.4233398-4.5517578-9.5131836-10.4628906-9.5131836    c-5.4824219,0-9.6171875,4.0854492-9.6171875,9.503418h-2c0-6.5581055,4.9941406-11.503418,11.6171875-11.503418    c6.9248047,0,12.3994141,5.0488281,12.4628906,11.4936523L85.65625,77.0930176z"/></g><g><rect x="64.5761719" y="76.083252" width="22.0800781" height="2"/></g><g><g><path d="M30.5664063,135.8952637H10v-6.6147461c0-0.8588867,0.1083984-1.7167969,0.3212891-2.550293l5.5654297-21.7495117     h12.5126953l5.5664063,21.7490234c0.2353516,0.921875,0.3212891,2.3496094,0.3212891,3.0839844h-2     c0-0.7578125-0.0986328-1.9628906-0.2587891-2.5883789l-5.1816406-20.2446289h-9.4072266l-5.1806641,20.2451172     C12.0869141,127.8972168,12,128.588623,12,129.2805176v4.6147461h18.5664063V135.8952637z"/></g><g><path d="M28.5976563,106.9807129H15.6630859V96.2526855c0-1.3867188,0.1044922-2.7875977,0.3105469-4.1640625     l0.1484375-0.9521484h12.0175781l0.1308594,0.8476563c0.2167969,1.4077148,0.3271484,2.84375,0.3271484,4.2675781V106.9807129z      M17.6630859,104.9807129h8.9345703V96.251709c0-1.0375977-0.0625-2.0820313-0.1875-3.1152344h-8.5595703     c-0.1240234,1.0327148-0.1875,2.0791016-0.1875,3.1162109V104.9807129z"/></g><g><path d="M27.5742188,92.4509277h-2V77.3747559c0-1.8920898-1.5390625-3.4311523-3.4306641-3.4311523     c-1.8925781,0-3.4316406,1.5390625-3.4316406,3.4311523v15.0761719h-2V77.3747559     c0-2.9946289,2.4365234-5.4311523,5.4316406-5.4311523c2.9941406,0,5.4306641,2.4365234,5.4306641,5.4311523V92.4509277z"/></g><g><rect x="21.1435547" y="65.182373" width="2" height="7.7612305"/></g></g><g><g><path d="M140,135.8952637h-20.5664063v-2H138v-4.6147461c0-0.6918945-0.0869141-1.3833008-0.2587891-2.0551758     l-5.1806641-20.2446289h-9.4072266l-5.1816406,20.2451172c-0.1601563,0.625-0.2587891,1.8300781-0.2587891,2.5878906h-2     c0-0.734375,0.0859375-2.1621094,0.3212891-3.0834961l5.5664063-21.7495117h12.5126953l5.5654297,21.7490234     C139.8916016,127.5637207,140,128.4216309,140,129.2805176V135.8952637z"/></g><g><path d="M134.3369141,106.9807129h-12.9345703V96.251709c0-1.4238281,0.1103516-2.8598633,0.3271484-4.2675781     l0.1308594-0.8476563h12.0175781l0.1474457,0.9458008c0.2070465,1.3828125,0.3115387,2.7836914,0.3115387,4.1704102V106.9807129z      M123.4023438,104.9807129h8.9345703v-8.7280273c0-1.0361328-0.0625-2.0810547-0.1875-3.1162109h-8.5595703     c-0.125,1.0332031-0.1875,2.0776367-0.1875,3.1152344V104.9807129z"/></g><g><path d="M133.2880859,92.4509277h-2V77.3747559c0-1.8920898-1.5390625-3.4311523-3.4316406-3.4311523     s-3.4316406,1.5390625-3.4316406,3.4311523v15.0761719h-2V77.3747559c0-2.9946289,2.4365234-5.4311523,5.4316406-5.4311523     s5.4316406,2.4365234,5.4316406,5.4311523V92.4509277z"/></g><g><rect x="126.8564453" y="65.182373" width="2" height="7.7612305"/></g></g><g><rect x="74.5878906" y="14.1047363" width="2" height="11.1811523"/></g></g><text x="0" y="165" fill="#000000" font-size="5px" font-weight="bold" font-family="'Helvetica Neue', Helvetica, Arial-Unicode, Arial, Sans-serif">Created by DinosoftLabs</text><text x="0" y="170" fill="#000000" font-size="5px" font-weight="bold" font-family="'Helvetica Neue', Helvetica, Arial-Unicode, Arial, Sans-serif">from the Noun Project</text></svg>