<svg width="150" height="188" viewBox="0 0 150 188" fill="none" xmlns="http://www.w3.org/2000/svg">
<g clip-path="url(#clip0_1_425)">
<path d="M-1.52336 30.7237V-1.40898L-0.121889 -1.1365C49.7792 8.55654 100.312 8.55539 150.068 -1.1365L151.47 -1.41013V30.7237L150.087 30.4777C100.243 21.6251 49.6999 21.6251 -0.140291 30.4777L-1.52336 30.7237ZM74.9736 21.4836C99.7425 21.4836 124.514 23.629 149.116 27.9162V1.44455C99.9747 10.8352 50.1058 10.8341 0.831205 1.44455V27.9162C25.4334 23.629 50.2046 21.4836 74.9736 21.4836Z" fill="black"/>
<path d="M151.47 47.8001H-1.52336V34.405H151.47V47.8001ZM0.831204 45.4455H149.116V36.7596H0.831204V45.4455Z" fill="black"/>
<path d="M151.523 151.41H-1.47047V140.563H151.523V151.41ZM0.884091 149.056H149.169V142.917H0.884091V149.056Z" fill="black"/>
<path d="M37.934 25.1787H35.5794V35.5823H37.934V25.1787Z" fill="black"/>
<path d="M114.368 25.1787H112.013V35.5823H114.368V25.1787Z" fill="black"/>
<path d="M35.4392 56.2928H12.7018V45.4455H35.4392V56.2928ZM15.0563 53.9383H33.0846V47.8001H15.0563V53.9383Z" fill="black"/>
<path d="M29.2814 142.917H18.8595V53.9382H29.2814V142.917ZM21.2141 140.563H26.9269V56.2928H21.2141V140.563Z" fill="black"/>
<path d="M86.3946 56.2928H63.6583V45.4455H86.3946V56.2928ZM66.0129 53.9383H84.04V47.8001H66.0129V53.9383Z" fill="black"/>
<path d="M80.238 142.917H69.8149V53.9382H80.238V142.917ZM72.1695 140.563H77.8834V56.2928H72.1695V140.563Z" fill="black"/>
<path d="M137.351 56.2928H114.614V45.4455H137.351V56.2928ZM116.968 53.9383H134.997V47.8001H116.968V53.9383Z" fill="black"/>
<path d="M131.193 142.917H120.771V53.9382H131.193V142.917ZM123.126 140.563H128.839V56.2928H123.126V140.563Z" fill="black"/>
</g>
<defs>
<clipPath id="clip0_1_425">
<rect width="150" height="187.5" fill="white"/>
</clipPath>
</defs>
</svg>
