<svg xmlns="http://www.w3.org/2000/svg" xmlns:xlink="http://www.w3.org/1999/xlink" version="1.1" x="0px" y="0px" viewBox="0 0 150 187.5" enable-background="new 0 0 150 150" xml:space="preserve"><g><g><polygon points="115.4932251,149.7637634 98.0236893,138.6278687 116.2313309,110.0626678 133.7008667,121.1974106     127.0740509,131.5952148 125.0873871,130.3305511 130.4495392,121.9171219 116.9510345,113.3139877 101.2750092,137.9081573     114.7735214,146.5124359 120.638092,137.310318 122.6247559,138.5749817   "/></g><g><path d="M125.9692001,143.3473358l-9.3768692-8.3628387l4.8528442-8.0064392l10.2874298,6.0209198L125.9692001,143.3473358z     M119.6206131,134.5315247l5.7208557,5.1023102l3.2133865-5.7679901l-6.2980042-3.6847534L119.6206131,134.5315247z"/></g><g><polygon points="42.9822845,151.2411041 40.6277199,151.2411041 40.6277199,134.7706604 43.8020134,128.0748596     45.9289398,129.0842896 42.9822845,135.2995148   "/></g><g><polygon points="41.0542564,135.9421844 32.540802,128.8991852 43.1915283,106.757309 45.313858,107.7782364     35.4610138,128.259964 42.5557518,134.1279755   "/></g><g><rect x="97.598877" y="111.2962112" transform="matrix(0.9999961 -0.0027773 0.0027773 0.9999961 -0.359887 0.2748347)" width="2.3545749" height="36.8419533"/></g><g><path d="M70.0540314,146.8849335l-2.0257492-1.2002716l24.5815201-41.4555206l0.9300995,0.3598557    c5.1552048,1.9981613,8.6893539,10.4656219,12.4304428,19.4297562c0.4690781,1.1243973,0.9393005,2.2487946,1.410675,3.3582458    l-2.1660233,0.9220428c-0.4748154-1.1140442-0.9461899-2.2441864-1.4175644-3.3731842    c-3.14785-7.5442657-6.3957214-15.3265152-10.2276382-17.6983261L70.0540314,146.8849335z"/></g><g><path d="M42.6304817,146.3089447l-1.6509552-1.6785583l44.2032738-43.4835663l0.4771271-0.0034485    c0.0482864,0,0.0965729,0,0.1437073,0c4.4975891,0,7.3258286,1.3819275,8.4053879,4.1101456l-2.1890106,0.8668671    c-0.6656723-1.6819992-2.6408386-2.5626602-5.8726196-2.6201477L42.6304817,146.3089447z"/></g><g><path d="M37.6362267,119.1176224l-11.423317-31.7463837l20.80019-20.467926l15.1103745,29.173378    c0.1023216,0.1965942,0.2563782,0.3598557,0.4472275,0.4713745l7.2487946,4.2630463    c0.3679047,0.2172928,0.7875366,0.3311157,1.2140732,0.3311157l14.6343994,0.0011444v2.3545685l-14.6343994-0.001152    c-0.8473206,0-1.6796951-0.2264862-2.4085999-0.6564713l-7.2476463-4.2619019    c-0.5736923-0.3368607-1.0381699-0.827774-1.3439865-1.4187164L46.3899689,70.8191528L28.9376736,87.9920731    l10.9151554,30.3276672L37.6362267,119.1176224z"/></g><g><rect x="42.7943192" y="81.053627" transform="matrix(0.7196875 -0.6942982 0.6942982 0.7196875 -43.6369781 56.3787575)" width="10.4173269" height="2.3546929"/></g><g><path d="M89.4447021,103.496788H70.2115402l0.3713531-1.4670029c1.5750732-6.2129288,0.0046005-12.4683914-1.5900269-16.6210709    l2.1982117-0.8438721c1.5934677,4.150383,3.1593475,10.2713318,1.9947128,16.5773849h12.7753525    c-1.9119339-5.6058884-1.4853973-11.1910858,1.2612076-16.2485733l2.0694427,1.1243973    c-2.6983185,4.9666595-2.8799744,10.2977753-0.5380554,15.8438797L89.4447021,103.496788z"/></g><g><path d="M79.3435287,91.6641769c-7.9616013,0-14.4378052-9.2228088-14.4378052-20.558754    s6.4762039-20.558754,14.4378052-20.558754S93.782486,59.7694817,93.782486,71.105423S87.30513,91.6641769,79.3435287,91.6641769z     M79.3435287,52.9012375c-6.6624527,0-12.0832443,8.1662445-12.0832443,18.2041855s5.4207916,18.2041931,12.0832443,18.2041931    c6.6636047,0,12.0843887-8.1662445,12.0843887-18.2041931S86.0071335,52.9012375,79.3435287,52.9012375z"/></g><g><rect x="92.4058914" y="63.9354973" transform="matrix(0.9629843 -0.2695575 0.2695575 0.9629843 -13.9311914 28.7749462)" width="10.8033133" height="2.3543358"/></g><g><rect x="85.9948502" y="50.6142006" transform="matrix(0.656082 -0.7546896 0.7546896 0.656082 -7.2491989 87.6760101)" width="13.1563187" height="2.3551676"/></g><g><rect x="74.5268021" y="44.3841019" transform="matrix(0.057634 -0.9983378 0.9983378 0.057634 30.6277046 123.5689163)" width="12.4823875" height="2.3538787"/></g><g><rect x="64.3848038" y="43.5743256" transform="matrix(0.5640513 -0.8257397 0.8257397 0.5640513 -13.560813 76.3870544)" width="2.3559387" height="14.9242258"/></g><g><rect x="59.1928673" y="59.5990868" transform="matrix(0.3288855 -0.9443698 0.9443698 0.3288855 -21.4810734 101.069397)" width="2.3546569" height="12.0986691"/></g><g><path d="M67.0889816,67.1022034l-1.0990982-2.0832367c6.8716965-3.6272697,10.9783859-8.1892395,12.2062531-13.5571442    l2.2947845,0.5242615C79.103241,58.0529976,74.594162,63.139225,67.0889816,67.1022034z"/></g><g><path d="M91.8647995,67.2033768c-6.6107178-1.6394577-11.0749588-6.5911713-13.6491165-15.1402664l2.2556915-0.6783142    c2.313179,7.6845245,6.2255707,12.1108322,11.9590759,13.5329971L91.8647995,67.2033768z"/></g><g><rect x="30.2490654" y="37.9084816" transform="matrix(0.9834789 -0.1810228 0.1810228 0.9834789 -10.1939917 6.6665974)" width="2.3542259" height="42.5458679"/></g><g><rect x="36.7470856" y="23.8233967" transform="matrix(0.9415821 -0.3367836 0.3367836 0.9415821 -13.7608538 15.543479)" width="2.3542786" height="47.2290268"/></g><g><path d="M31.1485271,39.4372177h-9.4941387V18.6186333h9.4941387V39.4372177z M24.0089531,37.082653h4.7850094V20.9731979    h-4.7850094V37.082653z"/></g><g><path d="M35.9438858,20.9731979H16.2991333v-9.8263998h19.6447525V20.9731979z M18.653698,18.6186333h14.9356232v-5.1172705    H18.653698V18.6186333z"/></g><g><path d="M29.333168,13.5013628h-5.489769l-2.0016098-3.9342384c-2.0211563-5.0068998,3.8169689-9.7390232,4.066452-9.9379196    l1.0910568-0.8703153l0.6737175,1.2209706c5.746151,10.400095,2.6224422,12.9512568,1.9372272,13.3570967L29.333168,13.5013628z     M25.2862587,11.1467981h3.208786c0.2609787-0.5782938,0.8392735-2.8040934-2.1717644-8.6928053    c-1.3060493,1.3508856-3.2547722,3.867557-2.3396206,6.1393442L25.2862587,11.1467981z"/></g></g><text x="0" y="165" fill="#000000" font-size="5px" font-weight="bold" font-family="'Helvetica Neue', Helvetica, Arial-Unicode, Arial, Sans-serif">Created by DinosoftLabs</text><text x="0" y="170" fill="#000000" font-size="5px" font-weight="bold" font-family="'Helvetica Neue', Helvetica, Arial-Unicode, Arial, Sans-serif">from the Noun Project</text></svg>