<svg xmlns="http://www.w3.org/2000/svg" xmlns:xlink="http://www.w3.org/1999/xlink" version="1.1" x="0px" y="0px" viewBox="0 0 150 187.5" enable-background="new 0 0 150 150" xml:space="preserve"><g><g><path d="M92.8572617,32.3430557H56.6886024l18.0846214-33.941143L92.8572617,32.3430557z M60.6113434,29.9884911h28.3231888    L74.7732239,3.40996L60.6113434,29.9884911z"/></g><g><path d="M87.7514954,41.7739639H62.2485008V29.9884911h25.5029945V41.7739639z M64.6030655,39.4193954h20.793869v-7.0763397    h-20.793869V39.4193954z"/></g><g><path d="M104.6967773,72.3361664H45.3032227V63.787075l0.2569542-0.3230629    c1.6664772-2.0889854,3.5594406-4.2170639,5.3903236-6.2761574c4.9275703-5.5403557,10.022419-11.2692604,11.3290443-16.8590546    l0.2121162-0.9094048h25.0276031l0.2040634,0.9220543c1.2428207,5.6047363,6.4187241,11.400322,11.424469,17.0039139    c1.7894974,2.0039063,3.6399231,4.074501,5.2874298,6.1128998l0.2615509,0.3242111V72.3361664z M47.6577873,69.9816055h54.6844215    v-5.3644562c-1.5457535-1.8912392-3.2748871-3.8273163-4.9505615-5.7036095    c-4.9488373-5.5392075-10.0574875-11.2589149-11.7331619-17.139576H64.3317413    c-1.7228127,5.8473206-6.7509804,11.5014954-11.6216431,16.9786186c-1.7159119,1.9291801-3.4864349,3.9204407-5.0523109,5.8599663    V69.9816055z"/></g><g><path d="M104.6967773,127.5592194H45.3032227v-47.894928h59.3935547V127.5592194z M47.6577873,125.2046585h54.6844215V82.0188599    H47.6577873V125.2046585z"/></g><g><path d="M99.7042465,82.0188599H84.4892502V69.9816055h15.2149963V82.0188599z M86.8438187,79.6642914h10.505867v-7.328125    h-10.505867V79.6642914z"/></g><g><path d="M64.6030655,82.0188599H49.3880692V69.9816055h15.2149963V82.0188599z M51.7426338,79.6642914h10.505867v-7.328125    h-10.505867V79.6642914z"/></g><g><path d="M74.9997101,121.8855057c-10.0764542,0-18.2737427-8.1972885-18.2737427-18.2731705    c0-10.077034,8.1972885-18.2743225,18.2737427-18.2743225s18.2743225,8.1972885,18.2743225,18.2743225    C93.2740326,113.6882172,85.0761719,121.8855057,74.9997101,121.8855057z M74.9997101,87.6925735    c-8.7778778,0-15.919178,7.1418762-15.919178,15.9197617s7.1413002,15.918602,15.919178,15.918602    c8.7784576,0,15.9197617-7.1407242,15.9197617-15.918602S83.7781677,87.6925735,74.9997101,87.6925735z"/></g><g><polygon points="81.4805145,105.9990921 72.612381,105.9990921 72.612381,92.6431427 74.9669495,92.6431427     74.9669495,103.6445236 81.4805145,103.6445236   "/></g><g><rect x="74.2207947" y="126.3819427" width="2.3545649" height="17.9547062"/></g><g><rect x="62.1168633" y="126.3819427" width="2.3545649" height="21.5854282"/></g><g><rect x="50.012928" y="126.3819427" width="2.3545649" height="25.2161484"/></g><g><rect x="86.3247299" y="126.3819427" width="2.3545649" height="21.5854282"/></g><g><rect x="98.428093" y="126.3819427" width="2.3545649" height="25.2161484"/></g></g><text x="0" y="165" fill="#000000" font-size="5px" font-weight="bold" font-family="'Helvetica Neue', Helvetica, Arial-Unicode, Arial, Sans-serif">Created by DinosoftLabs</text><text x="0" y="170" fill="#000000" font-size="5px" font-weight="bold" font-family="'Helvetica Neue', Helvetica, Arial-Unicode, Arial, Sans-serif">from the Noun Project</text></svg>