<svg xmlns="http://www.w3.org/2000/svg" xmlns:xlink="http://www.w3.org/1999/xlink" version="1.1" x="0px" y="0px" viewBox="0 0 150 187.5" enable-background="new 0 0 150 150" xml:space="preserve"><g><g><path d="M139.4737396,152.8397522H10.5262527v-29.5838165H44.538105V101.471611h16.7998428V48.1420937h28.4030876v53.3295174    h15.7214355v21.7935181l34.0112686-0.0091934V152.8397522z M12.8808184,150.4851837h124.2383652v-24.8746872l-34.0112839,0.009201    v-21.7935257H87.3864746V50.4966583H63.6925125v53.3295135H46.8926697v21.7843246H12.8808184V150.4851837z"/></g><g><polygon points="87.5652466,49.9425087 75.4187775,30.4932041 63.5194855,49.9344597 61.5109749,48.7042923     75.3980789,26.0163116 89.5622559,48.6962433   "/></g><g><path d="M88.0078812,35.9381371l-12.5994568-9.1538315l-12.6000252,9.1538315l4.812603-14.8114567l-12.598877-9.1538296h15.5737    l4.8125992-14.8126049l4.8126068,14.8126049h15.5737l-12.5994568,9.1538296L88.0078812,35.9381371z M62.2686234,14.3274155    l8.1208344,5.9002075L67.28759,29.7734985l8.1208344-5.9002075l8.1202621,5.9002075l-3.10186-9.5458755l8.1214066-5.9002075    h-10.037941l-3.1018677-9.5470257l-3.10186,9.5470257H62.2686234z"/></g><g><rect x="58.2015953" y="116.0071411" width="2.3545649" height="26.3049049"/></g><g><rect x="90.2606964" y="116.0071411" width="2.3545649" height="26.3049049"/></g><g><rect x="74.2311478" y="116.0071411" width="2.3545649" height="26.3049049"/></g></g><text x="0" y="165" fill="#000000" font-size="5px" font-weight="bold" font-family="'Helvetica Neue', Helvetica, Arial-Unicode, Arial, Sans-serif">Created by DinosoftLabs</text><text x="0" y="170" fill="#000000" font-size="5px" font-weight="bold" font-family="'Helvetica Neue', Helvetica, Arial-Unicode, Arial, Sans-serif">from the Noun Project</text></svg>