<svg xmlns="http://www.w3.org/2000/svg" xmlns:xlink="http://www.w3.org/1999/xlink" version="1.1" x="0px" y="0px" viewBox="0 0 150 187.5" enable-background="new 0 0 150 150" xml:space="preserve"><g><g><path d="M-1.5233593,30.7237167V-1.4089651l1.401472,0.2724764c49.9011383,9.6930361,100.4334564,9.6918859,150.189743,0    l1.4026184-0.2736262v32.133831l-1.3830719-0.2460327c-49.8448105-8.8526115-100.3874817-8.8526115-150.2276917,0    L-1.5233593,30.7237167z M74.9735565,21.4836597c24.7689209,0,49.5401382,2.1453209,74.1423492,6.4325161V1.4445652    c-49.1411896,9.390667-99.0101395,9.3895178-148.2846985,0v26.471611    C25.4334202,23.6289806,50.2046394,21.4836597,74.9735565,21.4836597z"/></g><g><path d="M151.4704742,47.8000603H-1.5233593V34.4050255h152.9938354V47.8000603z M0.8312056,45.4454956h148.2846985v-8.6859055    H0.8312056V45.4454956z"/></g><g><path d="M151.5233612,151.4101105H-1.4704735v-10.8473206h152.9938354V151.4101105z M0.8840913,149.0555573h148.2846985    v-6.1381989H0.8840913V149.0555573z"/></g><g><rect x="35.5794334" y="25.1787624" width="2.3545649" height="10.4035435"/></g><g><rect x="112.0131149" y="25.1787624" width="2.3545649" height="10.4035435"/></g><g><path d="M35.4391708,56.29282H12.7017536V45.4454956h22.7374172V56.29282z M15.0563183,53.9382553h18.0282879v-6.138195    H15.0563183V53.9382553z"/></g><g><path d="M29.2814312,142.9173584H18.8594933V53.9382553h10.4219379V142.9173584z M21.2140579,140.5627899h5.7128086V56.29282    h-5.7128086V140.5627899z"/></g><g><path d="M86.394577,56.29282H63.6583099V45.4454956H86.394577V56.29282z M66.0128708,53.9382553h18.0271378v-6.138195H66.0128708    V53.9382553z"/></g><g><path d="M80.2379837,142.9173584H69.8148956V53.9382553h10.4230881V142.9173584z M72.1694641,140.5627899h5.7139587V56.29282    h-5.7139587V140.5627899z"/></g><g><path d="M137.3511353,56.29282h-22.7374191V45.4454956h22.7374191V56.29282z M116.968277,53.9382553h18.0282898v-6.138195    H116.968277V53.9382553z"/></g><g><path d="M131.1933899,142.9173584h-10.421936V53.9382553h10.421936V142.9173584z M123.1260223,140.5627899h5.7127991V56.29282    h-5.7127991V140.5627899z"/></g></g><text x="0" y="165" fill="#000000" font-size="5px" font-weight="bold" font-family="'Helvetica Neue', Helvetica, Arial-Unicode, Arial, Sans-serif">Created by DinosoftLabs</text><text x="0" y="170" fill="#000000" font-size="5px" font-weight="bold" font-family="'Helvetica Neue', Helvetica, Arial-Unicode, Arial, Sans-serif">from the Noun Project</text></svg>