<svg xmlns="http://www.w3.org/2000/svg" xmlns:xlink="http://www.w3.org/1999/xlink" version="1.1" x="0px" y="0px" viewBox="0 0 150 187.5" enable-background="new 0 0 150 150" xml:space="preserve"><g><g><rect x="15.2891312" y="90.9237366" width="119.8724136" height="2.3545649"/></g><g><path d="M143.6933899,102.872467c-4.2710876,0-7.9788361-2.4545898-9.7895966-6.025528    c-1.8096161,3.5709381-5.5185242,6.025528-9.7884674,6.025528c-4.2710953,0-7.9799957-2.4534378-9.7896118-6.0266724    c-1.8096085,3.5732346-5.5185089,6.0266724-9.7896042,6.0266724c-4.2699509,0-7.9788513-2.4545898-9.7884598-6.025528    c-1.8107605,3.5709381-5.5185165,6.025528-9.7896118,6.025528c-4.2699509,0-7.9788437-2.4545898-9.7884598-6.025528    c-1.8107605,3.5709381-5.5185089,6.025528-9.7896118,6.025528c-4.2699738,0-7.9788437-2.4545898-9.788456-6.025528    c-1.8107605,3.5709381-5.5185394,6.025528-9.7896118,6.025528c-4.2699471,0-7.9788475-2.4545898-9.7884598-6.025528    c-1.8107605,3.5709381-5.5185089,6.025528-9.789608,6.025528c-4.269949,0-7.9788475-2.4545898-9.7884598-6.025528    c-1.8107615,3.5709381-5.5185108,6.025528-9.789609,6.025528c-2.9593019,0-5.7335038-1.1611862-7.8121433-3.269722    l1.6762478-1.6532516c1.6337094,1.6567078,3.8123717,2.5684052,6.1358953,2.5684052    c4.7493687,0,8.6123266-3.8629532,8.6123266-8.6123199h2.3545647c0,4.7493668,3.8629589,8.6123199,8.6111774,8.6123199    c4.7493687,0,8.6123276-3.8629532,8.6123276-8.6123199h2.3545647c0,4.7493668,3.862957,8.6123199,8.6111755,8.6123199    c4.7493706,0,8.6123276-3.8629532,8.6123276-8.6123199h2.3545647c0,4.7493668,3.8629608,8.6123199,8.6111755,8.6123199    c4.7493744,0,8.6123276-3.8629532,8.6123276-8.6123199h2.3545685c0,4.7493668,3.8629532,8.6123199,8.6111755,8.6123199    c4.7493668,0,8.6123276-3.8629532,8.6123276-8.6123199h2.3545685c0,4.7493668,3.8629532,8.6123199,8.6111755,8.6123199    c4.7493668,0,8.6123276-3.8629532,8.6123276-8.6123199h2.3545609c0,4.7493668,3.8629608,8.6123199,8.6123276,8.6123199    c4.7482147,0,8.6111755-3.8629532,8.6111755-8.6123199h2.3545685c0,4.7493668,3.8629608,8.6123199,8.6123199,8.6123199    c2.1855621,0,4.2699585-0.819725,5.8680267-2.3097229l1.6049652,1.7222366    C149.131424,101.8274002,146.477951,102.872467,143.6933899,102.872467z"/></g><g><path d="M17.5333252,91.8538361c-1.6969423-8.8342133-5.3253632-15.7024612-10.784091-20.4150391l-1.913084-1.6509552    l2.4948273-0.4023895c10.7760439-1.7406311,20.581749-0.8185806,26.2313232,2.4637833l-1.181881,2.0349503    c-4.7873077-2.778801-12.9949455-3.6928024-22.2717934-2.5189667c4.8597393,4.952858,8.1306067,11.6819916,9.737874,20.044838    L17.5333252,91.8538361z"/></g><g><path d="M37.0792046,91.8273926c-2.0131073-11.9326248-6.2773075-22.9972458-12.675333-32.8845749l-1.1738319-1.815361    l2.161417-0.001152c0.0045986,0,0.0103474,0,0.0137959,0c14.0848522,0,28.4640217,14.3389359,29.06991,14.9494171    l-1.6716499,1.6578522c-0.1333656-0.1345139-12.7661552-12.7213173-25.2000542-14.126236    c5.8956108,9.6562424,9.8620415,20.3529587,11.7981186,31.8291626L37.0792046,91.8273926z"/></g><g><path d="M58.7002716,91.9320145c-3.6548653-13.8939972-9.4665451-27.9351616-17.7661591-42.9259682l-0.8841095-1.59692    l1.8199577-0.1471596c16.5026474-1.3198433,30.6024437,7.0671425,43.0926781,25.6760216l-1.9544754,1.3129501    C71.5089645,57.1159592,58.7209663,48.9968491,43.8934135,49.5038605    C51.8113289,64.056633,57.4057198,77.75634,60.9766579,91.3318787L58.7002716,91.9320145z"/></g><g><path d="M102.9012527,91.7710648l-2.3384705-0.2782288c0.9277954-7.778801,4.0446091-14.7585678,9.2630463-20.7450027    l1.7751236,1.5474777C106.6296921,77.9977798,103.7842102,84.3682098,102.9012527,91.7710648z"/></g><g><path d="M66.9573441,92.2918701l-1.9498749-1.3198471c12.4430923-18.3961868,30.8496323-28.0294342,54.7091446-28.6318741    l3.9008942-0.0977211l-3.1949844,2.2395973c-2.6419907,1.8509979-5.0183945,3.8422623-7.0659943,5.9197464l-1.6762466-1.6532516    c1.3117981-1.331337,2.7512054-2.6281891,4.3021393-3.8767548C94.7637405,66.3330231,78.2840881,75.5454865,66.9573441,92.2918701    z"/></g><g><path d="M130.6720123,92.0929718c-4.4585037-10.489769-10.4725266-17.3235245-18.3030701-20.7553482    c3.72155,4.9195251,5.7967377,11.5877228,6.3175507,20.2230453l-2.349968,0.1425629    c-0.6185303-10.2586823-3.5019531-17.4971313-8.8146744-22.1315308l-3.7813263-3.2984619l4.8539886,1.271553    c10.7553482,2.8201904,18.6859131,10.5484085,24.243515,23.6261292L130.6720123,92.0929718z"/></g></g><text x="0" y="165" fill="#000000" font-size="5px" font-weight="bold" font-family="'Helvetica Neue', Helvetica, Arial-Unicode, Arial, Sans-serif">Created by DinosoftLabs</text><text x="0" y="170" fill="#000000" font-size="5px" font-weight="bold" font-family="'Helvetica Neue', Helvetica, Arial-Unicode, Arial, Sans-serif">from the Noun Project</text></svg>