<svg width="150" height="188" viewBox="0 0 150 188" fill="none" xmlns="http://www.w3.org/2000/svg">
<path d="M133.17 109.225H17.5978V111.495H133.17V109.225Z" fill="black"/>
<path d="M141.395 120.744C137.277 120.744 133.703 118.378 131.957 114.936C130.212 118.378 126.636 120.744 122.519 120.744C118.401 120.744 114.826 118.379 113.081 114.934C111.336 118.379 107.76 120.744 103.643 120.744C99.5259 120.744 95.9502 118.378 94.2056 114.936C92.4597 118.378 88.885 120.744 84.7671 120.744C80.6504 120.744 77.0746 118.378 75.3299 114.936C73.5841 118.378 70.0094 120.744 65.8915 120.744C61.7747 120.744 58.1989 118.378 56.4542 114.936C54.7085 118.378 51.1337 120.744 47.0158 120.744C42.8991 120.744 39.3233 118.378 37.5785 114.936C35.8328 118.378 32.258 120.744 28.1402 120.744C24.0235 120.744 20.4476 118.378 18.703 114.936C16.9571 118.378 13.3824 120.744 9.26454 120.744C6.41142 120.744 3.73675 119.625 1.73269 117.592L3.34879 115.999C4.92389 117.596 7.02439 118.475 9.26454 118.475C13.8435 118.475 17.5679 114.75 17.5679 110.171H19.838C19.838 114.75 23.5623 118.475 28.1402 118.475C32.7192 118.475 36.4436 114.75 36.4436 110.171H38.7136C38.7136 114.75 42.438 118.475 47.0158 118.475C51.5948 118.475 55.3192 114.75 55.3192 110.171H57.5893C57.5893 114.75 61.3137 118.475 65.8915 118.475C70.4704 118.475 74.1948 114.75 74.1948 110.171H76.4649C76.4649 114.75 80.1893 118.475 84.7671 118.475C89.3461 118.475 93.0705 114.75 93.0705 110.171H95.3405C95.3405 114.75 99.0649 118.475 103.643 118.475C108.221 118.475 111.946 114.75 111.946 110.171H114.216C114.216 114.75 117.941 118.475 122.519 118.475C127.098 118.475 130.822 114.75 130.822 110.171H133.092C133.092 114.75 136.816 118.475 141.395 118.475C143.502 118.475 145.512 117.685 147.052 116.248L148.6 117.908C146.638 119.737 144.08 120.744 141.395 120.744Z" fill="black"/>
<path d="M19.7615 110.122C18.1254 101.604 14.6272 94.9825 9.36431 90.439L7.51986 88.8473L9.92518 88.4593C20.3146 86.7811 29.7685 87.6701 35.2154 90.8347L34.0759 92.7967C29.4603 90.1176 21.5472 89.2364 12.6031 90.368C17.2886 95.1432 20.442 101.631 21.9917 109.694L19.7615 110.122Z" fill="black"/>
<path d="M38.6061 110.096C36.6652 98.5916 32.554 87.924 26.3856 78.3913L25.2538 76.6412L27.3377 76.64C27.3422 76.64 27.3477 76.64 27.351 76.64C40.9305 76.64 54.7938 90.4645 55.378 91.0531L53.7662 92.6515C53.6376 92.5218 41.4582 80.3866 29.4704 79.032C35.1544 88.3419 38.9785 98.6548 40.8452 109.719L38.6061 110.096Z" fill="black"/>
<path d="M59.4515 110.197C55.9277 96.8014 50.3245 83.2641 42.3227 68.811L41.4703 67.2714L43.2249 67.1296C59.1355 65.8571 72.7295 73.9432 84.7715 91.8844L82.8872 93.1502C71.8005 76.6301 59.4714 68.8022 45.1758 69.2911C52.8096 83.3217 58.2033 96.5298 61.6461 109.618L59.4515 110.197Z" fill="black"/>
<path d="M102.066 110.042L99.8122 109.774C100.707 102.274 103.711 95.5445 108.743 89.7728L110.454 91.2648C105.662 96.7627 102.918 102.905 102.066 110.042Z" fill="black"/>
<path d="M67.4123 110.544L65.5324 109.271C77.529 91.5352 95.2752 82.2476 118.279 81.6668L122.04 81.5725L118.96 83.7318C116.412 85.5164 114.121 87.4362 112.147 89.4392L110.53 87.8452C111.795 86.5617 113.183 85.3113 114.678 84.1076C94.221 85.5164 78.3326 94.3984 67.4123 110.544Z" fill="black"/>
<path d="M128.841 110.352C124.543 100.239 118.745 93.6501 111.195 90.3414C114.783 95.0844 116.784 101.513 117.286 109.839L115.02 109.976C114.423 100.086 111.644 93.107 106.522 88.6389L102.876 85.4587L107.556 86.6847C117.925 89.4037 125.571 96.8547 130.929 109.463L128.841 110.352Z" fill="black"/>
</svg>
