<svg xmlns="http://www.w3.org/2000/svg" xmlns:xlink="http://www.w3.org/1999/xlink" version="1.1" x="0px" y="0px" viewBox="0 0 150 187.5" enable-background="new 0 0 150 150" xml:space="preserve"><g><g><g><path d="M154.6179504,91.9804764h-47.020134V79.80793h36.0253067L154.6179504,91.9804764z M110.0013428,89.5769501h39.2063293     l-6.6525269-7.3654938h-32.5538025V89.5769501z"/></g><g><path d="M126.7039642,141.0473633h-9.6522446V89.5769501h9.6522446V141.0473633z M119.455246,138.6438446h4.845192V91.9804764     h-4.845192V138.6438446z"/></g><g><path d="M145.6123657,141.0473633h-9.6516571V89.5769501h9.6516571V141.0473633z M138.3642273,138.6438446h4.8446198V91.9804764     h-4.8446198V138.6438446z"/></g></g><g><g><path d="M42.402771,91.9804764H-4.6179576L6.3774676,79.80793H42.402771V91.9804764z M0.7923222,89.5769501h39.2069206     v-7.3654938H7.4454408L0.7923222,89.5769501z"/></g><g><path d="M32.9482765,141.0473633h-9.6516552V89.5769501h9.6516552V141.0473633z M25.7001476,138.6438446h4.8446045V91.9804764     h-4.8446045V138.6438446z"/></g><g><path d="M14.0398788,141.0473633H4.3882217V89.5769501h9.6516571V141.0473633z M6.7917471,138.6438446h4.8446064V91.9804764     H6.7917471V138.6438446z"/></g></g><g><path d="M110.0013428,141.0473633h-10.754837V53.9659233h10.754837V141.0473633z M101.650032,138.6438446h5.9477844V56.3694496    h-5.9477844V138.6438446z"/></g><g><path d="M50.7540855,141.0473633H39.9992447V53.9659233h10.7548409V141.0473633z M42.402771,138.6438446h5.9477882V56.3694496    H42.402771V138.6438446z"/></g><g><path d="M80.3774185,141.0473633h-10.754837V53.9659233h10.754837V141.0473633z M72.0261078,138.6438446h5.9477844V56.3694496    h-5.9477844V138.6438446z"/></g><g><path d="M114.5795441,56.3694496h-79.158493l-7.9962997-15.7443848h95.1505127L114.5795441,56.3694496z M36.8962555,53.9659233    h76.2080765l5.5546188-10.9373322H31.3410378L36.8962555,53.9659233z"/></g><g><path d="M88.2563553,42.5820389H61.7442284V27.2049904h26.5121269V42.5820389z M64.1477509,40.1785126h21.7050858V29.6085167    H64.1477509V40.1785126z"/></g><g><path d="M79.5371246,28.3803482h-2.4035263V16.0112286c0-3.8282728-0.3790741-4.6550713-2.1335983-4.6550713    s-2.1335983,0.8267984-2.1335983,4.6550713v12.3691196h-2.4035263V16.0112286c0-2.8107643,0-7.0585966,4.5371246-7.0585966    s4.5371246,4.2478323,4.5371246,7.0585966V28.3803482z"/></g></g><text x="0" y="165" fill="#000000" font-size="5px" font-weight="bold" font-family="'Helvetica Neue', Helvetica, Arial-Unicode, Arial, Sans-serif">Created by DinosoftLabs</text><text x="0" y="170" fill="#000000" font-size="5px" font-weight="bold" font-family="'Helvetica Neue', Helvetica, Arial-Unicode, Arial, Sans-serif">from the Noun Project</text></svg>