<svg xmlns="http://www.w3.org/2000/svg" xmlns:xlink="http://www.w3.org/1999/xlink" version="1.1" x="0px" y="0px" viewBox="0 0 150 187.5" enable-background="new 0 0 150 150" xml:space="preserve"><g><g><path d="M153.1145782,124.5410309H-3.1145804v-11.2500992h156.2291565V124.5410309z M-0.7110549,122.1375046h151.4221191    v-6.4430466H-0.7110549V122.1375046z"/></g><g><g><path d="M21.3736839,115.279007l-1.5033779-1.7451401c-5.2295456-6.0827484-11.0822716-12.8884354-17.5969048-17.7060471     c1.055063,6.0475388,1.5057242,13.3473053,1.5667512,18.6519623l-2.4035256,0.0281677     c-0.066895-5.7999115-0.6548669-14.8025742-2.0936961-21.0895233l-0.657214-2.8717957l2.4786358,1.5937424     c7.7832918,5.0030441,14.5549431,12.8778763,20.5285492,19.8255692l1.4998569,1.7427902L21.3736839,115.279007z"/></g><g><path d="M27.2416649,102.2473907c-9.4274998-4.0841141-19.2223358-6.9641266-26.8741837-7.9041748l0.2933991-2.3847504     c7.8701382,0.9658737,17.9067345,3.9127731,27.5360947,8.0825653L27.2416649,102.2473907z"/></g><g><path d="M7.6578617,94.6248779l-2.1688066-1.0351105C15.518611,72.556572,24.9226398,60.3394318,35.0859833,55.1415749     l2.8670959-1.4658241l-1.2064552,2.98563c-2.7931595,6.9183502-4.2038231,28.1404991-4.0242615,34.8839836l-2.4035263,0.0633698     c-0.139658-5.2858734,0.823864-23.4132462,3.2320824-32.7926292     C24.9238129,64.4751892,16.4258003,76.236969,7.6578617,94.6248779z"/></g><g><path d="M33.1002579,82.5579605l-2.3072891-0.6689529c3.3975601-11.711319,22.2349586-45.0250244,37.0703888-52.9068985     l6.6296463-3.5231361l-5.199028,5.4161472c-6.7282295,7.0087185-10.9731293,18.3562222-14.0714226,26.6406384     c-0.5738907,1.5327187-1.1055298,2.9527702-1.6019592,4.208519l-2.2345276-0.8825455     c0.4917374-1.2451859,1.0175056-2.6499786,1.5843544-4.1674423c2.2920341-6.127346,5.1966858-13.890686,9.2984047-20.5062485     C49.5845947,48.1539803,35.8276978,73.1597977,33.1002579,82.5579605z"/></g><g><path d="M26.2112484,114.3788528l-2.4011784-0.1243973c1.2099781-23.3041077,23.400341-51.6546745,38.0163078-63.4763145     l0.8825455-0.7135468l1.4071426,1.5456276c1.6993713,1.8589783,2.9281235,3.2027435,4.3587341,5.7377129l-2.093689,1.1806374     c-1.2627945-2.2392197-2.3331146-3.4292488-3.917469-5.1626511     C48.1915359,65.3096161,27.359026,92.2612534,26.2112484,114.3788528z"/></g><g><path d="M64.807312,115.0008621c-4.4491005-9.5683289-7.3267593-14.9786148-18.3667831-22.2596054     c-7.9252968,4.7460251-13.5292206,14.6582184-16.8622322,22.2361298l-2.1993198-0.967041     c3.5677338-8.1130676,9.6774769-18.8162689,18.5181789-23.7301178l0.6313934-0.3509064l0.6055756,0.3931503     C59.2116051,98.15271,62.3967476,104.118103,66.987854,113.9868774L64.807312,115.0008621z"/></g><g><path d="M126.9574661,115.279007l-1.8190765-1.5702744l1.499855-1.7427902     c5.9736023-6.9476929,12.7452545-14.822525,20.5285492-19.8255692l2.4786377-1.5937424l-0.6572113,2.8717957     c-1.4388275,6.2869492-2.0268097,15.2896118-2.0937042,21.0895233l-2.4035187-0.0281677     c0.0610199-5.304657,0.5116882-12.6044235,1.5667419-18.6519623     c-6.5146332,4.8176117-12.3673553,11.6232986-17.5968933,17.7060471L126.9574661,115.279007z"/></g><g><path d="M121.0894775,102.2473907l-0.955307-2.2063599c9.629364-4.1697922,19.6659546-7.1166916,27.5361023-8.0825653     l0.293396,2.3847504C140.3118134,95.2832642,130.516983,98.1632767,121.0894775,102.2473907z"/></g><g><path d="M140.6732788,94.6248779c-8.2010803-17.1990509-16.8833542-28.8117905-25.8461075-34.584713     c2.6452866,9.4005089,4.8645554,27.9891014,4.7119904,33.7749367l-2.4035263-0.0633774     c0.1631317-6.1918945-2.6429443-28.6733093-5.5511093-35.8756714l-1.206459-2.9868011l2.8670959,1.4658203     c10.3921967,5.3152199,20.3501587,17.842186,29.5969238,37.2346954L140.6732788,94.6248779z"/></g><g><path d="M116.1545105,80.1297913c-2.7462158-9.4627075-17.1509399-32.6940498-30.044075-44.1295738     c5.5276413,8.3290138,9.5659866,18.5475159,11.9941559,24.6901207l-2.209877,0.947094l-0.0258255-0.0645485     c-3.0912476-7.8196754-8.844223-22.3769646-16.8317184-30.6977634l-5.199028-5.4161472l6.6296463,3.5231361     c14.8260422,7.8771782,34.5729752,38.6864319,37.9940109,50.4787292L116.1545105,80.1297913z"/></g><g><path d="M122.6362839,114.3377762c-1.1595154-22.3264923-21.6376038-49.1103134-35.7160645-60.9448624     c-1.4634781,1.9622536-2.1242065,3.129982-3.3717422,5.3328247c-0.3121796,0.55159-0.6595612,1.1653824-1.0632782,1.8695374     l-2.0843048-1.1970673c0.4013672-0.6994629,0.7464066-1.3085594,1.0562363-1.8566284     c1.4552536-2.570179,2.1852341-3.8611336,4.3129654-6.6073494l0.7522736-0.9705658l0.9541321,0.7722282     c14.4235001,11.6678963,36.3357239,39.9104919,37.5609589,63.4774857L122.6362839,114.3377762z"/></g><g><g><path d="M60.2960091,102.5114517l-2.3847466-0.3074875c0.2546692-1.9692917,6.3409424-48.3615608,15.4586105-61.681881      l1.0057755-1.4693413l0.985817,1.4822502c7.5215836,11.2993889,13.6125488,48.1432762,15.3248215,61.3861351      l-2.3847427,0.3074875c-1.6136932-12.489418-7.1366425-46.1704636-13.9528885-58.7115135      C67.7600861,55.3704262,62.3239861,86.8263321,60.2960091,102.5114517z"/></g></g><g><path d="M83.5238342,115.0008621l-2.180542-1.0139847c4.5911026-9.8687744,7.7762451-15.8341675,19.8537292-23.6644058     l0.6055756-0.3931503l0.6313934,0.3509064c8.8407059,4.9138489,14.9504471,15.6170502,18.5181808,23.7301178l-2.1993179,0.967041     c-3.3330154-7.5779114-8.9369431-17.4901047-16.862236-22.2361298     C90.8505936,100.0222473,87.9729385,105.4325333,83.5238342,115.0008621z"/></g></g></g><text x="0" y="165" fill="#000000" font-size="5px" font-weight="bold" font-family="'Helvetica Neue', Helvetica, Arial-Unicode, Arial, Sans-serif">Created by DinosoftLabs</text><text x="0" y="170" fill="#000000" font-size="5px" font-weight="bold" font-family="'Helvetica Neue', Helvetica, Arial-Unicode, Arial, Sans-serif">from the Noun Project</text></svg>