<svg width="150" height="188" viewBox="0 0 150 188" fill="none" xmlns="http://www.w3.org/2000/svg">
<g clip-path="url(#clip0_1_2)">
<path d="M100.599 151.767H80.6887V129.861H68.3674V151.767H48.4836L48.7238 150.387C53.7859 121.293 56.8751 91.624 57.9087 62.2045L57.9478 61.0686H91.1313L91.1485 62.2287C91.5808 91.4377 94.6689 121.092 100.328 150.366L100.599 151.767ZM83.0432 149.412H97.7478C92.3074 120.846 89.3021 91.9298 88.8124 63.4232H60.2207C59.1619 92.1126 56.1566 121.028 51.2819 149.412H66.0129V127.507H83.0432V149.412Z" fill="black"/>
<path d="M83.0352 100.334H67.865V89.1245C67.865 85.311 70.968 82.208 74.7816 82.208H76.1186C79.9322 82.208 83.0352 85.311 83.0352 89.1245V100.334ZM70.2196 97.9794H80.6806V89.1245C80.6806 86.609 78.6342 84.5625 76.1186 84.5625H74.7816C72.266 84.5625 70.2196 86.609 70.2196 89.1245V97.9794Z" fill="black"/>
<path d="M96.6257 63.4232H51.2256V54.7626L73.917 31.0905L96.6257 54.32V63.4232ZM53.5801 61.0686H94.2711V55.2788L73.9331 34.4752L53.5801 55.7099V61.0686Z" fill="black"/>
<path d="M73.925 58.2209C69.8643 58.2209 66.5601 54.9166 66.5601 50.8559C66.5601 46.7941 69.8643 43.4899 73.925 43.4899C77.9869 43.4899 81.2911 46.7941 81.2911 50.8559C81.2911 54.9166 77.9869 58.2209 73.925 58.2209ZM73.925 45.8444C71.1623 45.8444 68.9147 48.0921 68.9147 50.8559C68.9147 53.6186 71.1623 55.8663 73.925 55.8663C76.6889 55.8663 78.9365 53.6186 78.9365 50.8559C78.9365 48.0921 76.6889 45.8444 73.925 45.8444Z" fill="black"/>
<path d="M79.352 54.2709L77.7531 55.9993L121.087 96.0844L122.686 94.356L79.352 54.2709Z" fill="black"/>
<path d="M26.764 5.62635L25.1652 7.3548L68.3475 47.2985L69.9463 45.57L26.764 5.62635Z" fill="black"/>
<path d="M115.852 103.477L93.541 82.838L97.166 78.9187L98.8952 80.5168L96.8682 82.7093L115.723 100.15L120.223 95.2846L100.504 77.0447L102.102 75.3156L123.55 95.1558L115.852 103.477Z" fill="black"/>
<path d="M45.7496 26.3951L24.301 6.55495L31.9993 -1.76651L54.3102 18.8727L50.6852 22.792L48.9561 21.1939L50.983 19.0015L32.1281 1.56069L27.6282 6.42618L47.3477 24.666L45.7496 26.3951Z" fill="black"/>
<path d="M122.961 5.60617L77.8739 45.8539L79.442 47.6107L124.529 7.36289L122.961 5.60617Z" fill="black"/>
<path d="M68.4058 54.2807L25.4698 92.6083L27.038 94.3651L69.974 56.0374L68.4058 54.2807Z" fill="black"/>
<path d="M108.714 33.5209L105.159 29.5373L106.915 27.9691L108.902 30.196L128.067 13.0978L123.656 8.15303L103.612 26.0353L102.044 24.2786L123.845 4.82812L131.392 13.2864L108.714 33.5209Z" fill="black"/>
<path d="M26.1543 95.1432L18.6077 86.6837L41.2865 66.4492L44.8413 70.4329L43.0846 72.0011L41.0979 69.7741L21.9326 86.8723L26.3428 91.8183L46.3877 73.9348L47.9558 75.6916L26.1543 95.1432Z" fill="black"/>
</g>
<defs>
<clipPath id="clip0_1_2">
<rect width="150" height="187.5" fill="white"/>
</clipPath>
</defs>
</svg>
