<svg width="150" height="188" viewBox="0 0 150 188" fill="none" xmlns="http://www.w3.org/2000/svg">
<g clip-path="url(#clip0_1_258)">
<path d="M139.474 152.84H10.5262V123.256H44.5381V101.472H61.3379V48.1421H89.741V101.472H105.462V123.265L139.474 123.256V152.84ZM12.8808 150.485H137.119V125.61L103.108 125.62V103.826H87.3865V50.4967H63.6925V103.826H46.8927V125.61H12.8808V150.485Z" fill="black"/>
<path d="M87.5652 49.9425L75.4188 30.4932L63.5195 49.9345L61.511 48.7043L75.3981 26.0163L89.5623 48.6962L87.5652 49.9425Z" fill="black"/>
<path d="M88.0079 35.9381L75.4084 26.7843L62.8084 35.9381L67.621 21.1267L55.0221 11.9729H70.5958L75.4084 -2.83975L80.221 11.9729H95.7947L83.1953 21.1267L88.0079 35.9381ZM62.2686 14.3274L70.3895 20.2276L67.2876 29.7735L75.4084 23.8733L83.5287 29.7735L80.4268 20.2276L88.5482 14.3274H78.5103L75.4084 4.78039L72.3066 14.3274H62.2686Z" fill="black"/>
<path d="M60.5561 116.007H58.2016V142.312H60.5561V116.007Z" fill="black"/>
<path d="M92.6153 116.007H90.2607V142.312H92.6153V116.007Z" fill="black"/>
<path d="M76.5857 116.007H74.2311V142.312H76.5857V116.007Z" fill="black"/>
</g>
<defs>
<clipPath id="clip0_1_258">
<rect width="150" height="187.5" fill="white"/>
</clipPath>
</defs>
</svg>
