<svg width="150" height="188" viewBox="0 0 150 188" fill="none" xmlns="http://www.w3.org/2000/svg">
<path d="M121.955 135.895H28.0361L47.6387 109.33H102.352L121.955 135.895ZM31.9971 133.895H117.994L101.342 111.33H48.6484L31.9971 133.895Z" fill="black"/>
<path d="M53.8867 117.446H51.8867V128.458H53.8867V117.446Z" fill="black"/>
<path d="M65.0684 117.446H63.0684V128.458H65.0684V117.446Z" fill="black"/>
<path d="M76.249 117.446H74.249V128.458H76.249V117.446Z" fill="black"/>
<path d="M87.4307 117.446H85.4307V128.458H87.4307V117.446Z" fill="black"/>
<path d="M87.4307 117.446H85.4307V128.458H87.4307V117.446Z" fill="black"/>
<path d="M65.0684 94.0671H63.0684V105.079H65.0684V94.0671Z" fill="black"/>
<path d="M76.249 94.0671H74.249V105.079H76.249V94.0671Z" fill="black"/>
<path d="M87.4307 94.0671H85.4307V105.079H87.4307V94.0671Z" fill="black"/>
<path d="M98.6113 117.446H96.6113V128.458H98.6113V117.446Z" fill="black"/>
<path d="M102.932 111.33H47.5674V104.42L56.5029 86.4597H94.5225L102.932 104.519V111.33ZM49.5674 109.33H100.932V104.962L93.2471 88.4597H57.7412L49.5674 104.89V109.33Z" fill="black"/>
<path d="M87.5996 88.4597H63.5762V49.6809H65.5762V86.4597H85.5996V49.6809H87.5996V88.4597Z" fill="black"/>
<path d="M80.5908 67.0881H78.5908V29.2883C78.5908 27.6326 77.2441 26.2859 75.5879 26.2859C73.9326 26.2859 72.5859 27.6326 72.5859 29.2883V67.0881H70.5859V29.2883C70.5859 26.53 72.8301 24.2859 75.5879 24.2859C78.3467 24.2859 80.5908 26.53 80.5908 29.2883V67.0881Z" fill="black"/>
<path d="M85.6562 77.093C85.6025 71.6697 81.1045 67.5798 75.1934 67.5798C69.7109 67.5798 65.5762 71.6653 65.5762 77.0833H63.5762C63.5762 70.5251 68.5703 65.5798 75.1934 65.5798C82.1182 65.5798 87.5928 70.6287 87.6562 77.0735L85.6562 77.093Z" fill="black"/>
<path d="M86.6562 76.0833H64.5762V78.0833H86.6562V76.0833Z" fill="black"/>
<path d="M30.5664 135.895H10V129.281C10 128.422 10.1084 127.564 10.3213 126.73L15.8867 104.981H28.3994L33.9658 126.73C34.2012 127.652 34.2871 129.079 34.2871 129.814H32.2871C32.2871 129.056 32.1885 127.851 32.0283 127.225L26.8467 106.981H17.4395L12.2588 127.226C12.0869 127.897 12 128.589 12 129.281V133.895H30.5664V135.895Z" fill="black"/>
<path d="M28.5977 106.981H15.6631V96.2527C15.6631 94.866 15.7676 93.4651 15.9736 92.0886L16.1221 91.1365H28.1396L28.2705 91.9841C28.4873 93.3918 28.5977 94.8279 28.5977 96.2517V106.981ZM17.6631 104.981H26.5977V96.2517C26.5977 95.2141 26.5352 94.1697 26.4102 93.1365H17.8506C17.7266 94.1692 17.6631 95.2156 17.6631 96.2527V104.981Z" fill="black"/>
<path d="M27.5742 92.4509H25.5742V77.3748C25.5742 75.4827 24.0352 73.9436 22.1436 73.9436C20.251 73.9436 18.7119 75.4827 18.7119 77.3748V92.4509H16.7119V77.3748C16.7119 74.3801 19.1484 71.9436 22.1436 71.9436C25.1377 71.9436 27.5742 74.3801 27.5742 77.3748V92.4509Z" fill="black"/>
<path d="M23.1436 65.1824H21.1436V72.9436H23.1436V65.1824Z" fill="black"/>
<path d="M140 135.895H119.434V133.895H138V129.281C138 128.589 137.913 127.897 137.741 127.225L132.561 106.981H123.153L117.972 127.226C117.812 127.851 117.713 129.056 117.713 129.814H115.713C115.713 129.079 115.799 127.652 116.034 126.73L121.601 104.981H134.113L139.679 126.73C139.892 127.564 140 128.422 140 129.281V135.895Z" fill="black"/>
<path d="M134.337 106.981H121.402V96.2517C121.402 94.8279 121.513 93.3918 121.729 91.9841L121.86 91.1365H133.878L134.025 92.0823C134.232 93.4651 134.337 94.866 134.337 96.2527V106.981ZM123.402 104.981H132.337V96.2527C132.337 95.2166 132.274 94.1716 132.149 93.1365H123.59C123.465 94.1697 123.402 95.2141 123.402 96.2517V104.981Z" fill="black"/>
<path d="M133.288 92.4509H131.288V77.3748C131.288 75.4827 129.749 73.9436 127.856 73.9436C125.964 73.9436 124.425 75.4827 124.425 77.3748V92.4509H122.425V77.3748C122.425 74.3801 124.861 71.9436 127.856 71.9436C130.852 71.9436 133.288 74.3801 133.288 77.3748V92.4509Z" fill="black"/>
<path d="M128.856 65.1824H126.856V72.9436H128.856V65.1824Z" fill="black"/>
<path d="M76.5879 14.1047H74.5879V25.2859H76.5879V14.1047Z" fill="black"/>
</svg>
