<svg xmlns="http://www.w3.org/2000/svg" xmlns:xlink="http://www.w3.org/1999/xlink" version="1.1" x="0px" y="0px" viewBox="0 0 150 187.5" enable-background="new 0 0 150 150" xml:space="preserve"><g><g><g><polygon points="142.7403107,33.3752213 140.3857422,33.3752213 140.3857422,25.4044228 132.083252,6.4287901      123.7813416,25.4044228 123.7813416,32.982029 121.4267807,32.982029 121.4267807,24.9123554 132.083252,0.5538749      142.7403107,24.9123554    "/></g><g><polygon points="142.7403107,91.7380829 121.4267807,91.7380829 121.4267807,46.0838928 123.7813416,46.0838928      123.7813416,89.3835144 140.3857422,89.3835144 140.3857422,46.8277435 142.7403107,46.8277435    "/></g><g><path d="M147.2062683,48.1027489h-30.2460327l-1.408371-16.1979809h33.0627747L147.2062683,48.1027489z M119.1193466,45.7481842     h25.927803l0.9990845-11.4888496h-27.9259644L119.1193466,45.7481842z"/></g></g><g><g><polygon points="28.5737972,33.3752213 26.2192326,33.3752213 26.2192326,25.4044228 17.916748,6.4287901 9.6148367,25.4044228      9.6148367,32.982029 7.2602715,32.982029 7.2602715,24.9123554 17.916748,0.5538749 28.5737972,24.9123554    "/></g><g><polygon points="28.5737972,91.7380829 7.2602715,91.7380829 7.2602715,46.0838928 9.6148367,46.0838928 9.6148367,89.3835144      26.2192326,89.3835144 26.2192326,46.8277435 28.5737972,46.8277435    "/></g><g><path d="M33.0397682,48.1027489H2.7937262l-1.40837-16.1979809h33.0627823L33.0397682,48.1027489z M4.9528437,45.7481842     h25.9278069l0.9990807-11.4888496H3.9537632L4.9528437,45.7481842z"/></g></g><g><path d="M142.7403107,151.5231018H88.0231094v-25.4943695c0-7.1821136-5.84272-13.0248413-13.0248337-13.0248413    s-13.0248375,5.8427277-13.0248375,13.0248413v25.4943695H7.2562475V89.3835144h135.4840698V151.5231018z M90.3776779,149.1685333    h50.0080643V91.7380829H9.6108122v57.4304504h50.0080605v-23.139801c0-8.4801178,6.899292-15.3794022,15.3794022-15.3794022    s15.3794022,6.8992844,15.3794022,15.3794022V149.1685333z"/></g><g><path d="M127.3925171,140.0882874h-21.91539v-27.1223297c0-5.9232025,4.818924-10.7427063,10.7427063-10.7427063h0.429985    c5.9237747,0,10.7426987,4.8195038,10.7426987,10.7427063V140.0882874z M107.8316956,137.7337189h17.2062607v-24.7677612    c0-4.625206-3.7629395-8.3881378-8.3881378-8.3881378h-0.429985c-4.625206,0-8.3881378,3.7629318-8.3881378,8.3881378V137.7337189    z"/></g><g><path d="M43.1311722,140.0882874h-21.91539v-27.1223297c0-5.9232025,4.8189259-10.7427063,10.7427025-10.7427063h0.429985    c5.9237747,0,10.7427025,4.8195038,10.7427025,10.7427063V140.0882874z M23.5703468,137.7337189h17.2062607v-24.7677612    c0-4.625206-3.7629356-8.3881378-8.3881378-8.3881378h-0.429985c-4.6252022,0-8.3881378,3.7629318-8.3881378,8.3881378    V137.7337189z"/></g><g><path d="M100.9105606,91.7380829H48.7749977V77.1450653h52.1355629V91.7380829z M51.1295624,89.3835144h47.4264374v-9.8838806    H51.1295624V89.3835144z"/></g><g><g><path d="M49.9517059,79.4996338c-0.2753487,0-0.5512772-0.0954285-0.7748909-0.2920227     c-0.2218895-0.1942978-5.4259605-4.8505402-4.5757637-12.8707809     c1.0743828-10.1425629,11.1088753-20.566803,29.8246765-30.9864426c0.5685272-0.3115654,1.2859268-0.1126671,1.6009445,0.4564285     c0.3167419,0.5679474,0.1120987,1.2853546-0.4558487,1.6015167     c-22.4293022,12.4856339-27.948391,22.7581139-28.6284294,29.1756821     c-0.72258,6.8199615,3.7399406,10.8128357,3.7853546,10.8530731c0.489193,0.427681,0.5386276,1.1715317,0.1103668,1.6613007     C50.6053047,79.3639679,50.2793694,79.4996338,49.9517059,79.4996338z"/></g></g><g><g><path d="M100.0448456,79.5870056c-0.3265152,0-0.6518784-0.1345139-0.8841095-0.4000931     c-0.4294128-0.4874649-0.3822784-1.2301636,0.1040421-1.6589966c0.2011948-0.1805038,4.5366745-4.1469345,3.7819061-10.972641     c-0.7110825-6.4233208-6.2531662-16.6958008-28.6209564-29.1469421     c-0.5679474-0.3161621-0.7725906-1.0335693-0.4558487-1.6015167c0.3161621-0.5667953,1.0352936-0.7714424,1.6009445-0.4564285     c18.698555,10.4092941,28.7324753,20.8404312,29.8223801,31.0025406     c0.8639908,8.0570221-4.3487015,12.7454605-4.571167,12.9409103     C100.5984192,79.4904327,100.3207703,79.5870056,100.0448456,79.5870056z"/></g></g><g><rect x="49.952282" y="77.1450653" width="50.5426674" height="2.3545649"/></g><g><rect x="73.8209915" y="28.1671276" width="2.3545649" height="8.2122345"/></g><g><path d="M80.873764,31.6150475c-2.0544968,0-4.1118622-0.3828468-6.0841599-1.1508408    c-4.1745224-1.6233616-7.4660873-4.7758121-9.269371-8.8756046c-1.8027153-4.0997944-1.9015884-8.6560163-0.2776489-12.8293905    c1.6239319-4.1745238,4.7763824-7.4660864,8.8761749-9.2687998c0.9364243-0.4138884,1.9309082-0.7438493,2.9547043-0.9829848    c0.5484009-0.1276156,1.1163483,0.1540585,1.3451385,0.6725686c0.2282181,0.5185101,0.054039,1.1266961-0.413887,1.4463098    c-5.7179794,3.9054964-7.8420334,11.3474388-5.0505905,17.6937275l0,0    c2.7914505,6.3474388,9.7154541,9.812603,16.454361,8.2340794c0.5530014-0.1264648,1.1175003,0.1540585,1.3451385,0.6714191    c0.2287903,0.519659,0.0551834,1.1266956-0.412735,1.44631c-0.8639908,0.5909405-1.7791443,1.1002541-2.7213211,1.5141411    C85.4575806,31.1379261,83.1673965,31.6150475,80.873764,31.6150475z M72.0527725,3.4292493    c-2.057373,1.5842729-3.6502686,3.7020016-4.6160049,6.1830325c-1.3957291,3.5881815-1.3106461,7.5051746,0.2391357,11.0289745    s4.3791656,6.2336197,7.9673462,7.629343c2.4816055,0.9657383,5.1212921,1.2232685,7.6770554,0.776041    c-5.4110184-0.926651-10.1966019-4.4929886-12.521843-9.7792625l0,0    C68.4743576,13.9822531,69.080246,8.0452538,72.0527725,3.4292493z"/></g><g><path d="M88.0006943,18.2924404c-0.1511841,0-0.3035202-0.0287418-0.4478073-0.0885258    c-0.4144592-0.1701546-0.6961365-0.5610485-0.7266006-1.0082779l-0.3155899-4.6160059l-3.9802246-2.356864    c-0.3857269-0.2276382-0.6081924-0.655323-0.5742722-1.1025524c0.0339127-0.4460802,0.3184662-0.835825,0.7346497-1.0025301    l4.292366-1.7268338l1.0123062-4.5148325c0.0977249-0.4368821,0.43573-0.7806394,0.8708878-0.8864109    c0.4345856-0.1092205,0.8933105,0.0436882,1.1807327,0.3885952l2.967926,3.5490928l4.6062317-0.4322834    c0.4472275-0.0505862,0.8772125,0.1747527,1.1123199,0.5553002c0.2351151,0.3816972,0.2328186,0.8634171-0.0051727,1.2428145    l-2.4580307,3.9192929l1.8348999,4.2469549c0.1776276,0.4115887,0.1063461,0.8875599-0.1839523,1.2290182    c-0.2902908,0.3414574-0.7490158,0.4886189-1.1836014,0.3793983l-4.4872437-1.1266966l-3.4720612,3.0581751    C88.5600204,18.191267,88.2817917,18.2924404,88.0006943,18.2924404z M85.7823639,9.4122353l2.4603424,1.4566574    c0.3334045,0.1977463,0.5484009,0.5461025,0.5748444,0.9323988l0.19487,2.8546801l2.147049-1.8912401    c0.2914429-0.2552319,0.6880875-0.3506556,1.0646133-0.2575312l2.7736206,0.6967125l-1.1341629-2.6258917    c-0.1534882-0.3552542-0.1224442-0.7645435,0.0833511-1.092205l1.5198898-2.4235468l-2.8483582,0.2678781    c-0.3857193,0.0425382-0.7645416-0.1195679-1.0128784-0.4173374l-1.8343277-2.1936088l-0.6260071,2.7902975    c-0.0845032,0.3782482-0.3495102,0.6898136-0.7093582,0.8346748L85.7823639,9.4122353z"/></g></g><text x="0" y="165" fill="#000000" font-size="5px" font-weight="bold" font-family="'Helvetica Neue', Helvetica, Arial-Unicode, Arial, Sans-serif">Created by DinosoftLabs</text><text x="0" y="170" fill="#000000" font-size="5px" font-weight="bold" font-family="'Helvetica Neue', Helvetica, Arial-Unicode, Arial, Sans-serif">from the Noun Project</text></svg>