<svg width="150" height="188" viewBox="0 0 150 188" fill="none" xmlns="http://www.w3.org/2000/svg">
<g clip-path="url(#clip0_1_274)">
<path d="M128.665 112.47H19.5013L73.7397 49.3056L128.665 112.47ZM24.6266 110.115H123.497L73.7512 52.9064L24.6266 110.115Z" fill="black"/>
<path d="M72.6105 50.7834L55.3154 111.625L57.5803 112.269L74.8754 51.4272L72.6105 50.7834Z" fill="black"/>
<path d="M78.1068 66.1405H69.1357V68.4951H78.1068V66.1405Z" fill="black"/>
<path d="M74.6174 98.4146H59.5404V100.769H74.6174V98.4146Z" fill="black"/>
<path d="M92.9354 94.9253H83.9638V97.2798H92.9354V94.9253Z" fill="black"/>
<path d="M91.1908 77.4799H73.4971V79.8344H91.1908V77.4799Z" fill="black"/>
<path d="M99.0409 103.648H78.7305V106.003H99.0409V103.648Z" fill="black"/>
<path d="M88.5741 86.2026H63.9018V88.5571H88.5741V86.2026Z" fill="black"/>
<path d="M58.7627 100.911L48.0762 106.167L49.1155 108.28L59.802 103.024L58.7627 100.911Z" fill="black"/>
<path d="M61.6346 90.8095L36.039 103.538L37.0875 105.646L62.6831 92.918L61.6346 90.8095Z" fill="black"/>
<path d="M64.5588 80.4772L42.79 91.6003L43.8615 93.6973L65.6303 82.5742L64.5588 80.4772Z" fill="black"/>
<path d="M67.4017 70.5536L53.8974 77.0861L54.9229 79.2061L68.4272 72.6737L67.4017 70.5536Z" fill="black"/>
<path d="M70.2857 60.3926L64.8505 63.0599L65.8876 65.173L71.3227 62.5057L70.2857 60.3926Z" fill="black"/>
<path d="M152.919 95.6921H111.578V93.3376H147.752L114.721 55.353L96.5731 76.4877L94.7865 74.954L114.71 51.7521L152.919 95.6921Z" fill="black"/>
<path d="M113.582 53.2302L104.045 86.7802L106.31 87.424L115.847 53.874L113.582 53.2302Z" fill="black"/>
<path d="M117.684 63.4088H111.578V65.7634H117.684V63.4088Z" fill="black"/>
<path d="M115.31 85.3736H105.048V87.7282H115.31V85.3736Z" fill="black"/>
<path d="M127.776 82.9995H121.671V85.3541H127.776V82.9995Z" fill="black"/>
<path d="M126.589 71.1255H114.547V73.4801H126.589V71.1255Z" fill="black"/>
<path d="M131.932 88.9365H118.108V91.2911H131.932V88.9365Z" fill="black"/>
<path d="M124.808 77.0625H108.017V79.4171H124.808V77.0625Z" fill="black"/>
<path d="M106.304 80.2345L101.761 82.496L102.811 84.6046L107.354 82.343L106.304 80.2345Z" fill="black"/>
<path d="M108.293 73.2071L98.2013 78.3634L99.2728 80.4604L109.364 75.3041L108.293 73.2071Z" fill="black"/>
<path d="M110.234 66.4491L101.043 70.8951L102.069 73.0152L111.26 68.5691L110.234 66.4491Z" fill="black"/>
<path d="M112.195 59.5351L108.497 61.3502L109.534 63.4633L113.232 61.6482L112.195 59.5351Z" fill="black"/>
<path d="M41.223 89.4907H-2.91937L41.6989 37.5305L63.7253 62.8616L61.949 64.4068L41.7104 41.1313L2.20595 87.1361H41.223V89.4907Z" fill="black"/>
<path d="M40.5702 39.0084L26.4946 88.5244L28.7595 89.1682L42.8351 39.6522L40.5702 39.0084Z" fill="black"/>
<path d="M45.2538 51.3474H37.9527V53.702H45.2538V51.3474Z" fill="black"/>
<path d="M42.414 77.6132H30.144V79.9678H42.414V77.6132Z" fill="black"/>
<path d="M55.9022 60.576H41.5023V62.9306H55.9022V60.576Z" fill="black"/>
<path d="M53.7724 67.6742H33.6936V70.0287H53.7724V67.6742Z" fill="black"/>
<path d="M29.4156 79.6687L20.7166 83.9425L21.7548 86.0556L30.4537 81.7819L29.4156 79.6687Z" fill="black"/>
<path d="M31.7504 71.447L10.9197 81.8055L11.9682 83.914L32.7989 73.5555L31.7504 71.447Z" fill="black"/>
<path d="M34.1285 63.0392L16.4118 72.0918L17.4833 74.1889L35.2 65.1363L34.1285 63.0392Z" fill="black"/>
<path d="M36.4462 54.9602L25.4559 60.2766L26.4814 62.3966L37.4718 57.0803L36.4462 54.9602Z" fill="black"/>
<path d="M38.7923 46.6918L34.3694 48.8623L35.4064 50.9755L39.8293 48.8049L38.7923 46.6918Z" fill="black"/>
</g>
<defs>
<clipPath id="clip0_1_274">
<rect width="150" height="187.5" fill="white"/>
</clipPath>
</defs>
</svg>
