<svg width="150" height="188" viewBox="0 0 150 188" fill="none" xmlns="http://www.w3.org/2000/svg">
<path d="M75 166.12C70.5542 166.12 66.875 162.658 66.875 158.475V114.338C66.875 110.155 70.5542 106.693 75 106.693C79.4458 106.693 83.125 110.155 83.125 114.338V158.475C83.125 162.658 79.4458 166.12 75 166.12ZM75 109.289C71.934 109.289 69.6344 111.597 69.6344 114.338V158.475C69.6344 161.36 72.0873 163.524 75 163.524C77.9127 163.524 80.3656 161.216 80.3656 158.475V114.338C80.3656 111.597 78.066 109.289 75 109.289Z" fill="black"/>
<path d="M75 109.289C74.2335 109.289 73.6203 108.712 73.6203 107.991V54.0456C73.6203 53.3244 74.2335 52.7474 75 52.7474C75.7665 52.7474 76.3797 53.3244 76.3797 54.0456V107.991C76.3797 108.712 75.7665 109.289 75 109.289Z" fill="black"/>
<path d="M86.9576 143.907C86.3443 143.907 85.7311 143.474 85.5778 142.897C85.4245 142.176 85.8844 141.599 86.651 141.455C113.325 136.551 134.021 115.636 137.241 90.2498C137.394 89.5286 138.007 89.0959 138.774 89.0959C139.54 89.2401 140 89.8171 140 90.5383C138.314 103.664 132.488 115.636 122.83 125.3C113.172 134.964 100.908 141.455 87.2642 143.763C87.1109 143.907 87.1109 143.907 86.9576 143.907Z" fill="black"/>
<path d="M62.5825 143.763C62.4292 143.763 62.4292 143.763 62.2759 143.763C34.375 138.57 13.3726 117.223 10.1533 90.6825C9.99998 89.9613 10.6132 89.3844 11.3797 89.2401C12.1462 89.0959 12.7594 89.6728 12.9127 90.394C16.1321 115.924 36.2146 136.407 63.0424 141.311C63.8089 141.455 64.2689 142.176 64.1155 142.753C63.8089 143.33 63.1957 143.763 62.5825 143.763Z" fill="black"/>
<path d="M138.62 77.5567C138.007 77.5567 137.394 77.124 137.241 76.4028C133.561 46.8336 106.734 24.4764 75 24.4764C43.2665 24.4764 16.4387 46.8336 12.7594 76.547C12.6061 77.2682 11.9929 77.7009 11.2264 77.7009C10.4599 77.5567 9.99999 76.9797 9.99999 76.2585C13.9858 45.2469 41.8868 21.8801 75 21.8801C108.113 21.8801 136.014 45.2469 139.847 76.1143C140 76.8355 139.387 77.4124 138.62 77.5567Z" fill="black"/>
<path d="M78.9858 53.9013C78.6792 53.9013 78.3726 53.7571 78.2193 53.6128C77.6061 53.1801 77.4528 52.3147 77.9127 51.882C80.3656 48.9972 83.2783 46.5451 86.6509 44.9585C87.2641 44.67 88.184 44.8142 88.4906 45.5354C88.7972 46.1124 88.6439 46.9778 87.8774 47.2663C84.8113 48.7087 82.0519 50.8723 79.9057 53.4686C79.9057 53.7571 79.4457 53.9013 78.9858 53.9013Z" fill="black"/>
<path d="M80.3656 63.1327C80.059 63.1327 79.7524 62.9884 79.4458 62.8442C78.8326 62.4115 78.8326 61.546 79.2925 61.1133C84.0448 55.9207 90.1769 51.882 97.0755 49.5741C97.842 49.2856 98.6085 49.7184 98.7618 50.2953C99.0684 51.0165 98.6085 51.7377 97.9953 51.882C91.5566 54.0455 85.8844 57.6515 81.2854 62.5557C81.1321 62.9884 80.8255 63.1327 80.3656 63.1327Z" fill="black"/>
<path d="M80.3656 71.2101C79.9057 71.2101 79.4458 71.0659 79.2924 70.6331C78.8325 70.0562 78.9858 69.1907 79.7524 68.9023C89.5637 62.8442 101.368 59.8152 113.019 60.2479C113.785 60.2479 114.399 60.8248 114.245 61.546C114.245 62.2672 113.632 62.8442 112.866 62.7C101.675 62.2672 90.4835 65.152 81.1321 70.9216C80.9788 71.0659 80.6722 71.2101 80.3656 71.2101Z" fill="black"/>
<path d="M80.3656 78.1336C79.9057 78.1336 79.4457 77.8451 79.1391 77.4124C78.8325 76.8355 78.9858 75.97 79.7523 75.6815C93.2429 69.1907 109.953 68.758 123.597 74.5276C124.21 74.8161 124.516 75.5373 124.21 76.2585C123.903 76.8355 123.137 77.1239 122.37 76.8355C109.493 71.3543 93.5495 71.7871 80.8255 77.8451C80.8255 77.9894 80.6722 78.1336 80.3656 78.1336Z" fill="black"/>
<path d="M125.283 93.423C124.976 93.423 124.67 93.2788 124.363 93.1345C118.231 88.0862 110.873 84.6244 102.901 83.182C95.6957 81.8838 88.0307 82.1723 80.8255 84.1917C80.059 84.3359 79.2924 84.0474 79.1391 83.3262C78.9858 82.605 79.2924 81.8838 80.059 81.7396C87.5707 79.576 95.6957 79.2875 103.361 80.5857C111.792 82.1723 119.611 85.7783 126.203 91.1152C126.816 91.5479 126.816 92.4133 126.356 92.8461C126.05 93.2788 125.59 93.423 125.283 93.423Z" fill="black"/>
<path d="M121.91 104.241C121.604 104.241 121.297 104.097 120.991 103.953C110.106 94.577 95.3892 89.5286 80.5189 89.9613C79.7524 89.9613 79.1392 89.3843 79.1392 88.6631C79.1392 87.9419 79.7524 87.365 80.5189 87.365C96.0024 86.9323 111.486 92.2691 122.83 102.077C123.443 102.51 123.443 103.376 122.984 103.808C122.524 104.097 122.217 104.241 121.91 104.241Z" fill="black"/>
<path d="M113.785 114.049C113.479 114.049 113.019 113.905 112.712 113.617C104.434 104.674 92.6297 98.3272 80.2123 96.3079C79.4458 96.1636 78.9859 95.5867 79.1392 94.8655C79.2925 94.1443 79.9057 93.7115 80.6722 93.8558C94.0094 96.0194 106.12 102.51 114.858 112.03C115.318 112.607 115.318 113.328 114.705 113.761C114.399 113.905 114.092 114.049 113.785 114.049Z" fill="black"/>
<path d="M106.427 124.146C105.967 124.146 105.66 124.002 105.354 123.713C100.755 118.377 95.5425 113.472 89.8703 109.289C87.2641 107.414 83.7382 104.962 79.9057 103.664C79.1391 103.376 78.8325 102.654 79.1391 102.077C79.4458 101.356 80.2123 101.068 80.8255 101.356C84.9646 102.799 88.7972 105.251 91.5566 107.414C97.3821 111.742 102.748 116.79 107.5 122.271C107.96 122.848 107.807 123.569 107.347 124.002C107.04 124.002 106.733 124.146 106.427 124.146Z" fill="black"/>
<path d="M71.0142 53.9013C70.5543 53.9013 70.2476 53.7571 69.941 53.4686C67.7948 50.8723 65.0354 48.7087 61.9693 47.2663C61.3561 46.9778 61.0495 46.1124 61.3561 45.5354C61.6627 44.9584 62.5825 44.67 63.1958 44.9584C66.5684 46.5451 69.6344 48.9972 71.934 51.882C72.3939 52.4589 72.2406 53.1801 71.6274 53.6128C71.6274 53.7571 71.3208 53.9013 71.0142 53.9013Z" fill="black"/>
<path d="M69.1745 62.5557C68.8679 62.5557 68.408 62.4114 68.1014 62.123C63.6557 57.5073 58.1368 53.9013 51.8514 51.8819C51.0849 51.5935 50.7783 50.8723 51.0849 50.2953C51.3915 49.5741 52.158 49.2856 52.7712 49.5741C59.3632 51.7377 65.342 55.4879 70.0943 60.5363C70.5543 61.1133 70.5543 61.8345 69.941 62.2672C69.7877 62.5557 69.4811 62.5557 69.1745 62.5557Z" fill="black"/>
<path d="M69.1745 70.9216C68.8679 70.9216 68.7146 70.9216 68.408 70.7774C59.2099 65.152 48.0189 62.4115 37.1344 62.8442C36.3679 62.8442 35.7547 62.2672 35.7547 61.6903C35.7547 60.9691 36.3679 60.3921 36.9811 60.3921C48.4788 59.9594 60.1297 62.8442 69.7877 68.758C70.4009 69.1907 70.5543 69.9119 70.2476 70.4889C69.941 70.6331 69.6344 70.9216 69.1745 70.9216Z" fill="black"/>
<path d="M69.1745 77.8452C69.0212 77.8452 68.7146 77.8452 68.5613 77.7009C55.9906 71.7871 40.2005 71.3544 27.4764 76.8355C26.8632 77.124 25.9434 76.8355 25.6368 76.2585C25.3302 75.6816 25.6368 74.8161 26.25 74.5276C39.8939 68.6138 56.1439 69.0465 69.6344 75.3931C70.2477 75.6816 70.5543 76.4028 70.2477 77.124C70.0944 77.5567 69.6344 77.8452 69.1745 77.8452Z" fill="black"/>
<path d="M24.717 93.423C24.4104 93.423 23.9505 93.2788 23.6439 92.9903C23.184 92.4134 23.184 91.6922 23.7972 91.2594C30.2358 85.9226 38.2075 82.3166 46.6391 80.7299C54.1509 79.2875 62.1226 79.7203 69.4811 81.7396C70.2476 81.8839 70.5542 82.6051 70.4009 83.3262C70.2476 84.0474 69.4811 84.3359 68.7146 84.1917C61.6627 82.3166 54.3042 82.0281 47.099 83.3262C39.1274 84.7686 31.6156 88.2304 25.6368 93.2788C25.4835 93.2788 25.0236 93.423 24.717 93.423Z" fill="black"/>
<path d="M28.0896 104.241C27.783 104.241 27.3231 104.097 27.0165 103.808C26.5566 103.231 26.5566 102.51 27.1698 102.077C38.5141 92.4134 53.8443 87.0765 69.1745 87.365C69.941 87.365 70.5542 87.9419 70.5542 88.6631C70.5542 89.3843 69.941 89.9613 69.1745 89.9613C54.4575 89.6728 39.8939 94.7212 29.0094 103.953C28.8561 104.241 28.5495 104.241 28.0896 104.241Z" fill="black"/>
<path d="M36.2146 114.049C35.908 114.049 35.6014 113.905 35.2948 113.761C34.6816 113.328 34.6816 112.463 35.1415 112.03C43.8797 102.51 55.9906 96.0194 69.3278 93.8558C70.0943 93.7115 70.7075 94.1442 70.8608 94.8654C71.0141 95.5866 70.5542 96.1636 69.7877 96.3078C57.217 98.3272 45.4127 104.674 37.1344 113.617C36.9811 113.905 36.5212 114.049 36.2146 114.049Z" fill="black"/>
<path d="M43.5731 124.146C43.2665 124.146 42.9599 124.002 42.6533 123.858C42.0401 123.425 42.0401 122.559 42.5 122.127C47.2524 116.646 52.6179 111.597 58.4434 107.27C61.0495 105.251 64.5755 102.943 68.5613 101.5C69.3278 101.212 70.0943 101.645 70.2476 102.222C70.5542 102.943 70.0943 103.664 69.4811 103.808C65.8019 105.106 62.4292 107.414 59.9764 109.289C54.3042 113.472 49.092 118.377 44.4929 123.713C44.3396 124.002 44.033 124.146 43.5731 124.146Z" fill="black"/>
</svg>
